<?xml version="1.0" encoding="utf-8"?>
<!-- Generator: Adobe Illustrator 16.0.0, SVG Export Plug-In . SVG Version: 6.00 Build 0)  -->
<!DOCTYPE svg PUBLIC "-//W3C//DTD SVG 1.1//EN" "http://www.w3.org/Graphics/SVG/1.1/DTD/svg11.dtd">
<svg version="1.1" id="Layer_1" xmlns="http://www.w3.org/2000/svg" xmlns:xlink="http://www.w3.org/1999/xlink" x="0px" y="0px"
	 width="1000px" height="1000px" viewBox="0 0 1000 1000" enable-background="new 0 0 1000 1000" xml:space="preserve">
<g>
	<path stroke="#000000" stroke-width="2" stroke-miterlimit="10" d="M493.538,222.905c4.745-1.826,99.839-36.202,34.005-107.157
		c0,0-42.785-57.41-91.057-57.41c-48.285,0-64.371,23.398-65.463,24.139c-1.104,0.721-31.457,14.981-33.283,19.375
		c-1.827,4.388-10.965,13.168-10.965,13.168s3.289,9.873-4.023,9.873c-7.318,0-15-5.85-21.948-2.932
		c-6.941,2.932-6.941,2.932-6.941,2.932s-21.585-10.607-50.839-6.955c0,0-15.365-8.768-28.155-7.676l-8.053,2.197l2.925-4.758
		c0,0-4.387-6.22-15.358-10.964c-10.972-4.757-19.015-12.804-20.841-13.896c-1.833-1.104-8.781-4.387-15.361-5.128
		c-6.587-0.734-9.142-5.108-14.263-4.017c-5.119,1.099-8.781,15.365-8.781,15.365s10.24,13.525,12.437,14.26
		c2.194,0.728,8.781,9.873,10.607,11.699c1.826,1.827,16.82,20.116,23.041,26.33c6.213,6.22,23.041,21.578,23.041,21.578
		s14.26,14.63,19.745,17.191c5.479,2.561,48.636,34.74,49.006,41.681c0.364,6.955-7.312,31.458-10.607,33.284
		c-3.289,1.833-6.578,12.44,3.653,19.024c10.243,6.584,21.584,27.792,21.584,31.087c0,3.289-3.301,21.942-9.151,24.139
		c-5.85,2.19-50.098,6.213-53.029,0.721c-2.918-5.479-0.351-21.201-0.351-21.201s-13.174,49.006-15,50.098
		c-1.826,1.098-12.069,16.086-22.307,21.214c-10.243,5.115-16.827,10.965-21.948,21.936c-5.118,10.978-3.292,33.284-3.292,33.284
		s-19.014,67.66-7.309,83.381c11.699,15.723,17.916,48.271,17.916,48.271l-15.358-6.214c0,0,2.561,4.388-4.023,16.821
		c-6.581,12.44-10.802,82.12-8.878,84.577c0,0,16.544,4.322,23.255-3.113c6.714-7.436,50.348-54.66,52.98-61.842
		c2.625-7.195,3.418-23.541,5.271-24.458c1.437-0.715,9.827-12.459,4.069-25.413c0,0-1.196-7.422-5.265-8.15
		c0,0-1.794-6.766-4.836-9.053c-0.286-0.222-0.598-0.403-0.923-0.527c0,0,7.91-4.081,5.759-11.751c0,0-4.563-4.79-2.398-12.466
		c2.158-7.669,2.398-13.181,2.398-13.181s-5.031-6.233-2.158-9.346c2.873-3.126,26.362-21.104,27.558-21.104
		c1.209,0,2.165,17.51,2.165,17.51s0.962,5.746-1.437,12.94c-2.405,7.195-9.119,42.909-10.068,46.737
		c-0.955,3.842,6.948,59.217,9.821,65.684c2.879,6.474-4.062,0.481-4.062,0.481s3.354,17.263,8.625,22.768l-2.879-0.228
		c0,0,3.354,3.354,6.24,13.421c2.873,10.067,1.677,13.669,1.677,13.669s-11.758,32.12-10.549,35.233
		c1.196,3.119,12.459,14.376,17.971,15.345c5.519,0.955,17.978,4.31,18.699,4.31c0.728,0,3.841,5.759,3.841,5.759
		s15.098-6,21.331-31.881c0,0,2.873-18.698,12.7-28.285v-26.375c0,0,4.804-8.871,0.241-22.527c0,0,4.563-26.374,7.435-34.524
		c2.873-8.15,7.67-21.571,8.15-23.009c0.481-1.449,16.535-26.861,16.308-39.314c-0.241-12.473,27.356-56.961,29.917-63.182
		c2.561-6.213,13.168-29.618,15.364-34.375c2.197-4.758,23.769-42.052,27.792-46.439c4.023-4.394,8.046-10.607,12.063-13.174
		c4.023-2.548,10.978-4.023,12.804-4.023c1.827,0,51.924,4.758,56.688-7.676c4.758-12.434,8.41-19.018,2.925-30.716
		c-5.491-11.706-29.624-35.467-33.283-49.376c-3.653-13.896-4.387-21.571-4.387-21.571S488.781,224.731,493.538,222.905z"/>
	<path fill="#FFFFFF" stroke="#000000" stroke-width="2" stroke-miterlimit="10" d="M370.595,118.238
		c0,0-21.825,1.937-23.756,23.762C346.839,142,341.38,109.574,370.595,118.238z"/>
	<g>
		<g>
			<path fill="#FFFFFF" stroke="#000000" stroke-width="2" stroke-miterlimit="10" d="M231.52,557.179
				c0.084,2.697-0.059,4.815-1.079,7.403l2.32-1.977c0,0,1.911-2.658-2.1-13.024C231.52,552.492,231.474,555.697,231.52,557.179z"/>
			<path stroke="#000000" stroke-width="2" stroke-miterlimit="10" d="M227.808,568.267l1.612-4.088
				c0.949-2.398,1.085-4.368,1.001-6.968l-0.013-0.624c-0.033-1.599-0.085-4.283-0.8-6.694l2.073-0.708
				c4.023,10.393,2.347,13.538,1.97,14.064L227.808,568.267z"/>
		</g>
		<g>
			<path fill="#FFFFFF" stroke="#000000" stroke-width="2" stroke-miterlimit="10" d="M317.773,664.18
				c4.31-7.683,6.922-9.021,6.922-9.021v-27.525c0,0-2.209,2.964-5.427,5.791C321.225,645.422,319.249,654.515,317.773,664.18z"/>
			<path stroke="#000000" stroke-width="2" stroke-miterlimit="10" d="M315.778,669.977l1.449-9.392
				c1.365-8.527,2.652-16.587,0.956-26.985l-0.097-0.599l0.461-0.402c3.081-2.711,5.245-5.597,5.271-5.622l1.976-2.646v31.496
				l-0.598,0.306c-0.007,0.007-2.464,1.449-6.467,8.586L315.778,669.977z M320.445,633.846c1.482,9.646,0.449,17.575-0.741,25.153
				c1.833-2.612,3.165-3.86,3.893-4.42v-23.918C322.759,631.598,321.687,632.715,320.445,633.846z"/>
		</g>
		<g>
			<path fill="#FFFFFF" stroke="#000000" stroke-width="2" stroke-miterlimit="10" d="M196.942,626.769
				c8.716-7.657,16.71-14.825,20.142-23.249C212.216,608.551,203.981,619.632,196.942,626.769z"/>
			<path stroke="#000000" stroke-width="2" stroke-miterlimit="10" d="M197.664,627.594l-1.502-1.599
				c3.9-3.952,8.235-9.204,12.057-13.838c3.035-3.679,5.901-7.149,8.079-9.397l3.945-4.082l-2.145,5.258
				C214.478,612.827,205.931,620.334,197.664,627.594z"/>
		</g>
		<g>
			<path fill="#FFFFFF" stroke="#000000" stroke-width="2" stroke-miterlimit="10" d="M507.33,199.059c8.638,0,8.638,0,8.638,0
				s40.102-17.295,25.159-59.75c-14.941-42.455-81.756-78.624-92.767-83.349c-11.01-4.712-58.176-24.366-82.556,0l-14.149,31.458
				l-9.438-3.932c0,0-15.722,10.217-15.722,20.435c0,10.23,0,15.722,0,15.722l8.644,2.366c0,0-6.298,5.797-7.598,14.494
				c-3.425,23.047-25.673,55.109-29.234,61.627c2.275-1.195,4.433-2.066,6.181-2.268c7.332-0.838,39.835,43.813,39.835,43.813
				l-9.444,4.198c0,0-5.095-4.829-8.566-7.955l0,0l-4.979,18.998c0,0-17.315,35.961-15.339,29.306
				c1.411-4.803,8.768-23.651,12.758-33.797c-1.176,0.988-4.082,2.216-6.564,4.296c-7.942,6.662-16.054,29.501-16.054,29.501
				s1.443-18.445,12.213-30.593c5.446-6.148,6.701-17.964,8.586-20.805c-1.456-0.253-21.124-11.939-27.675-17.756
				c-11.972,22.781-25.66,49.837-25.66,49.837l23.801-51.482c-2.509-2.229-4.348-3.861-4.933-4.146c0,0,4.946-4.218,10.516-7.942
				c-1.254,2.255,19.206-32.192,21.54-39.179c1.229-3.711,2.151-12.472-1.125-21.792c-3.289-9.327-7.864-15.319-7.864-15.319
				c4.439-0.345,8.118-0.091,11.173,0.475c-6.955-3.933-15.449-7.644-19.297-5.083c-7.078,4.712-4.726,13.37-4.726,13.37
				s-37.157-11.01-44.521-9.437c-3.068,0.656-5.505,0.747-7.357,0.656c0.286,0.708,1.15,5.804-0.059,10.711
				c-1.793,7.351-14.195,13.285-14.195,13.285s-1.904-1.612-0.448-9.99c2.431-14.045-3.328-19.316-3.328-19.316
				s-7.987-4.654-9.996-4.654c-2.002,0-9.32,13.317-9.32,13.317l-6.954,7.357c0,0-3.035-6.025-3.666-10.854
				c-0.63-4.823-1.364-3.834-6.031-6.5c-4.66-2.671-3.997-12.654-3.997-12.654c3.334-0.669,13.694,8.001,13.694,8.001v-8.67
				c0,0-5.03-5.317-11.029-7.988c-4.596-2.034-15.001,8.826-19.069,13.103c0,0-0.039-0.676,1.205-1.988
				c3.455-7.514,10.539-16.431,10.539-16.431s-2.665-1.339-5.992-2.932c-2.909-1.404-14.166,11.017-19.872,12.687
				c-0.602,0.169,0,0,0,0s-0.494,0.41,0,0c2.749-2.378,12.085-10.802,13.298-16.827c0.149-0.734,0.179-1.333,0.156-1.859
				c-1.677-0.786-1.898-2.45-6.874-0.175c-5.417,4.036-16.45,14.208-12.68,10.438c0.309-0.312,0.595-0.644,0.861-0.988
				c3.717-4.796,3.129-12.336,3.129-12.336c-0.195-2.782-2.356-3.295-3.773-3.594c-0.006,0-0.312-0.357,0.202-0.565
				c1.384-0.364,4.55,0.149,5.999,0.825c-1.115-1.092-1.732-1.157-4.608-1.664c0,0-3.116-3.861-8.621-2.288
				c0,0-15.723,16.515-6.292,23.586c0,0,1.573,11.01,14.153,11.79c0,0-7.075,3.933-3.929,8.651
				c3.143,4.712,20.438,12.576,23.587,21.227c3.146,8.645,6.288,16.509,11.003,26.732c4.718,10.217,14.156,11.017,26.732,18.875
				c12.583,7.865,17.295,10.217,17.295,10.217s9.437,14.942,34.59,23.586c0,0,12.953,3.374,9.437,8.651
				c-4.712,7.071-24.367,18.861-29.872,37.729c-5.505,18.874-8.651,36.949-8.651,36.949s-13.37,3.945-14.149,14.162
				c-0.423,5.563-1.086,10.887-1.605,14.585c-0.429,3.1-0.754,5.069-0.754,5.069l-3.933,11.79c0,0-3.146,7.864-9.437,13.37
				c-3.029,2.652-15.169,17.237-27.909,35.741l5.378-2.977c0,0,7.393,11.023,15.225,20.675c6.922,8.514,29.852,18.953,29.852,18.953
				s-15.208-1.365-26.732-10.803c-9.366-7.669-21.835-18.438-26.196-22.215c-12.911,19.167-25.881,41.798-30.158,59.691
				c-6.941,29.091-6.941,29.091-6.941,29.091s4.585,23.58,9.304,37.729c4.718,14.163,15.722,35.39,22.014,44.82
				c6.288,9.438,9.437,14.93,9.437,14.93l-15.836-8.378c0,0-18.36,22.793-24.918,50.832c-5.632,24.08,2.005,35.377,20.155,35.045
				c14.809-0.279,18.923-5.485,32.39-22.455c1.632-2.061,3.686-3.737,5.597-5.519c3.971-5.667,14.331-20.226,21.402-28.552
				c6.76-7.949,9.093-19.512,9.827-24.64c-0.137-4.699-0.656-6.552-0.656-6.552l4.023-3.549c-5.635,3.471-11.627,5.389-11.627,5.389
				c8.917-2.619,15.43-16.905,16.385-19.512c-5.414,7.201-12.563,11.121-12.563,11.121c10.783-9.964,7.715-25.687,7.715-25.687
				c-8.93,13.733-11.329,16.21-15.722,18.342c0,0,16.32-16.262,9.684-28.818c-1.306-2.496-7.942-0.786-9.684,0
				c0,0,2.061-3.074,7.208-2.736c8.156-7.13,5.895-13.519,5.895-13.519c0.273,0.148,5.355,2.255,5.616,2.417
				c-2.593-1.716-6.148-4.771-6.148-4.771l-0.78-7.864c0,0,3.932-3.14,7.864-7.857c3.926-4.712,12.57-15.723,14.936-19.654
				c2.359-3.933,8.645-12.583,8.645-12.583s-2.353,14.936,7.078,19.661c9.437,4.712,14.149,7.071,14.149,7.071
				s-14.39-0.884-19.895-4.816c0,0-7.299,35.26-6.506,39.972c0.787,4.712,11.459,14.377,11.459,14.377l-14.143-7.078
				c0,0-3.932,14.155-3.932,18.868c0,4.725,2.353,20.447,3.932,25.952c1.573,5.492,2.099,27.492,10.217,37.729
				c0,0,14.155,19.654,24.373,25.159c0,0-11.79-0.78-19.654-6.285c0,0,6.291,12.583-0.793,25.159
				c-7.065,12.583-13.525,29.293-8.378,46.484c5.427,18.114,14.422,17.197,14.422,17.197s24.529,6.389,41.376-21.422
				c4.53-10.094,1.599-40.42,1.599-40.42s3.094,0.526,8.332-6.292c4.53-5.895,3.406-17.087,3.601-21.857
				c-4.153,3.634-9.496,7.357-12.993,8.229c0,0,20.337-14.396,22.631-25.134c-0.357,1.6-4.79,6.987-7.149,8.047
				c0,0,5.875-13.578-2.366-24.848c0,0,6.805,5.765,7.864,11.79c0.006,0.117,0.02,0.182,0.045,0.286
				c0.104-3.595,0.364-12.805,0.41-19.408c0.059-8.391,2.678-22.825,2.678-22.825s1.268,3.724,1.476,8.741
				c2.482-9.235,5.407-17.503,6.648-19.992c1.58-3.139,31.451-29.092,29.885-48.746c-1.573-19.654,5.492-39.302,7.071-41.674
				c1.573-2.354,11.01-12.57,11.01-12.57l7.812-21.604c-2.047,1.788-3.698,2.997-3.698,2.997s-9.359-8.391-9.359-10.484
				c0-2.099,5.771-11.536,5.245-13.109c-0.52-1.566,2.62-12.043,3.926-13.623c1.3-1.573-4.445-5.239-9.684-11.01
				c-4.036-4.433-7.988-17.834-9.6-23.801c-0.312-0.975-0.585-1.95-0.76-2.932c0,0,0.279,1.15,0.76,2.932
				c3.783,11.875,16.398,23.801,16.398,23.801l2.886-4.192c0,0-9.17-15.722-16.502-24.633c-7.344-8.917-15.202-37.742-15.202-37.742
				s-1.579-3.666,6.019-8.378c7.611-4.719,14.422-33.03,14.422-42.467c0-9.424-11.01-11.523-11.01-11.523s-3.666-1.573,0.533-2.093
				c4.179-0.527,6.812-5.771,6.812-5.771s-2.1-4.712-9.431-4.712c-7.345,0-15.735-13.109-15.735-13.109s7.838-4.205,15.202-3.139
				c6.239,0.897,13.629,7.865,13.629,16.769c0,8.917,1.58,3.146,5.245,11.53c3.666,8.384,0.514,19.927,0.514,19.927
				s-20.961,41.921-20.961,43.501c0,1.573,9.438,17.295,13.63,25.686c4.198,8.378,8.91,12.57,19.654,20.435
				c3.191,2.333,6.909,0.825,10.574-2.45c4.868-7.41,16.951-25.329,16.951-25.329s-8.3,17.607-16.951,25.329
				c-0.955,1.462-1.67,2.541-1.924,2.977c-1.573,2.619,0.52,8.911-4.719,16.242c-5.245,7.344-3.932,7.871-3.932,7.871
				c12.849-5.771,19.134-25.686,21.227-28.838c2.106-3.146,9.963-15.189,13.103-21.487c3.146-6.285,4.725-5.245,4.725-5.245
				l7.858,7.344c0,0-3.666,6.292-6.298,11.01c-2.62,4.712-11.53,2.093-11.53,2.093c-7.332,22.541-24.25,37.216-24.25,37.216
				s-6.675,9.95-7.195,11.53c-0.468,1.423,1.222,6.285,5.037,11.465c1.229-1.41,32.354-37.43,40.823-64.403h8.65
				c0,0,19.654,19.654,51.099,7.857c0,0,19.654-10.217,18.088-34.59c-0.064-0.942-0.11-1.794-0.155-2.587
				c-1.138,0.137-3.854,0.91-8.762,4.687c-6.812,5.245-15.722,11.53-15.722,11.53s3.679-5.771,2.619-7.864
				c-1.04-2.099,0-4.192-8.826-7.344c-3.146-1.111-7.045,0.039-10.763,1.982c-0.013,0-0.591,0.422-1.488,1.092
				c-3.386,2.515-8.202,3.815-12.583,6.812c9.71-17.711,32.472-14.149,32.472-14.149s-4.05-5.161-7.384-6.214
				c-12.973-4.068-32.822,11.537-32.822,11.537s7.617-10.217,17.815-14.676c8.403-3.679,13.103-1.573,14.753-2.619
				c1.644-1.06-5.317-6.818-5.317-6.818s-4.796,0.773-12.576,2.093c-9.587,1.618-25.686,12.057-25.686,12.057
				s11.159-10.484,21.857-13.506c5.395-1.515,5.251-3.471,14.461-7.988c0,0-10.113-3.666-17.288-4.192
				c-7.169-0.52-19.03,11.01-19.03,11.01s2.288-4.699,7.526-9.411c5.245-4.712,7.149-6.312,9.359-7.357
				c2.216-1.047,3.029-1.573,0.929-5.771c-2.093-4.192,0-6.285,0-6.285l-1.826-9.964c-20.714,1.06-34.856,22.021-34.856,22.021
				c13.097-25.16,34.856-28.306,34.856-28.306l-3.412-5.245c-35.643,5.245-55.558,39.309-55.558,39.309
				c37.21-65.508,72.333-42.455,72.333-42.455s-1.573,14.156,8.118,18.868c9.697,4.725,19.134,20.447,19.134,20.447
				c-8.703-2.392-19.297,0.175-19.297,0.175s20.389,1.242,25.595,9.333c5.434,8.423,6.116,16.054,7.137,23.398
				c0.182-1.358,4.771-4.452,5.238-3.107c-1.813-6.948-4.472-15.917-7.149-20.363c-4.712-7.864-27.512-32.237-28.292-45.606
				c-0.669-11.192-3.542-25.101-9.067-32.121c1.619,5.369,1.411,11.134,1.411,11.134l-19.973-12.453c0,0-8.664,1.742-20.655,3.744
				c-11.985,2.001-34.532,31.308-34.532,31.308c5.421-11.335,27.883-37.294,27.883-37.294s0,0,9.71-1.332
				c9.697-1.333,18.25-5.999,28.247-4.004c1.001,0.208,1.872,0.598,2.678,1.092c1.573-0.754,4.068-0.949,4.068-0.949
				s10.23,2.353,14.163,0c3.926-2.359,0-18.094,0-18.094l9.431,14.163C495.534,208.496,498.673,199.059,507.33,199.059z
				 M225.865,412.644c-0.527-3.139-5.766-7.331-5.766-7.331s-4.725-7.345-9.963-18.354c-5.239-10.997-13.629-17.295-13.629-17.295
				c12.057,0.526,16.255,12.583,20.174,17.295c3.945,4.725-0.247,4.725,5.505,14.156c5.771,9.437,14.682,37.216,14.682,37.216
				S226.385,415.79,225.865,412.644z M232.521,288.576c15.644-27.928,41.044,0.897,41.044,0.897s-23.482-18.01-35.455,0.104
				c-5.603,8.482-0.787,19.687,7.591,23.353c8.391,3.666,19.115,1.118,23.665-7.202c2.717-4.959,4.199-11.413,4.199-11.413
				s-0.357,25.751-19.921,25.647C232.683,319.864,226.788,298.819,232.521,288.576z M252.98,396.395
				c-3.796-3.672,1.709-6.636,1.709-6.636h2.093h8.917c0,0,0,4.011,1.046,15.554c0.222,2.379,1.541,4.426,3.438,6.207
				c10.529,4.205,19.85,8.547,22.215,9.365c0.416,0.091,0.656,0.149,0.552,0.149c-0.084,0-0.286-0.071-0.552-0.149
				c-2.782-0.624-15.859-3.405-22.215-9.365c-2.164-0.865-4.367-1.729-6.584-2.542C249.451,403.739,256.783,400.067,252.98,396.395z
				 M341.691,493.36c0,0-12.569-2.093-28.292-5.245c-15.722-3.133-13.636-5.758-23.066-12.57
				c-9.438-6.818-21.494-9.437-21.494-9.437s22.02,3.152,26.732,7.331c4.726,4.199,16.782,2.619,35.123,8.391
				C349.036,487.602,341.691,493.36,341.691,493.36z M331.5,429.744c1.709,0.643,2.997,1.267,3.379,1.768
				C335.472,432.305,333.685,431.596,331.5,429.744c-5.486-2.093-15.482-4.518-15.482-4.518l-10.483-4.192
				c6.818-7.344,20.961-8.391,20.961-8.391C323.233,420.469,327.887,426.676,331.5,429.744z M371.576,386.958v5.732
				c0,0-15.209,5.277-29.358,8.943c-14.143,3.679-24.626,3.679-24.626,3.679s-23.066-27.779-53.991-30.931
				c0,0,8.385-1.046,18.868,2.093c10.483,3.152,27.778,7.344,37.216,9.963c9.438,2.619,11.01,7.864,24.64,5.771
				C357.94,390.104,371.576,386.958,371.576,386.958z M409.832,323.536l-10.478,11.784c0,0-0.52-4.199-6.291-14.806
				c-5.765-10.607-5.765-10.607-5.765-10.607l1.306-4.179c2.359,1.56,2.359,6.812,10.75,9.431
				C407.739,317.771,409.832,323.536,409.832,323.536z M413.498,200.885c-3.132,0.533-38.899,3.607-58.69-13.616
				c-19.147-16.665-30.931-50.845-8.917-77.051c0,0,15.234-11.608,27.258-6.298c68.381,30.229,69.187,59.749,69.187,59.749
				S441.979,196.141,413.498,200.885z M463.16,161.018c10.185,2.034,14.286-0.481,14.286-0.481s0-18.874-4.712-29.352
				c-4.712-10.496-8.904-14.682-16.248-23.599c-7.332-8.904-17.828-31.958-17.828-31.958c19.921,6.285,37.229,23.58,44.56,36.683
				c7.332,13.103-2.62,23.066-2.62,23.424c0,0.364,2.483,6.344,3.146,9.593c5.193,25.296-20.044,46.562-22.722,49.051
				c-0.299,0.279,18.543-28.052,13.805-28.604C469.725,165.164,463.621,162.486,463.16,161.018"/>
			<path stroke="#000000" stroke-width="2" stroke-miterlimit="10" d="M268.846,726.763c-3.425,0-5.765-0.481-6.396-0.624h-0.11
				c-1.645,0-10.126-0.865-15.254-17.99c-4.238-14.15-1.463-29.632,8.475-47.336c6.721-11.927,0.826-24.009,0.768-24.133
				l-1.938-3.867l3.549,2.483c4.491,3.146,10.399,4.698,14.448,5.446c-9.561-7.409-20.174-22.072-20.688-22.781
				c-6.155-7.76-8.014-21.779-9.242-31.047c-0.403-3.042-0.748-5.668-1.138-7.026c-1.56-5.434-3.978-21.384-3.978-26.251
				c0-4.804,3.809-18.576,3.971-19.16l0.358-1.287l9.138,4.575c-3.022-3.224-6.369-7.325-6.837-10.113
				c-0.8-4.776,5.765-36.748,6.519-40.375l0.338-1.651l1.372,0.981c2.97,2.119,8.82,3.321,13.311,3.965l-8.69-4.348
				c-6.961-3.49-8.007-11.842-7.962-16.847c-2.034,2.86-4.92,6.994-6.331,9.353c-2.45,4.068-11.218,15.208-15.033,19.791
				c-3.217,3.854-6.389,6.649-7.559,7.63l0.676,6.837c0.936,0.793,3.653,3.049,5.707,4.407l-1.183,1.846
				c-0.221-0.11-1.722-0.741-3.087-1.312c-0.188-0.085-0.384-0.169-0.565-0.247c0.098,2.612-0.702,7.279-6.233,12.264
				c1.157,0.28,1.957,0.846,2.405,1.697c3.38,6.395,1.273,13.558-1.853,19.283c1.625-2.268,3.562-5.16,5.992-8.897l1.482-2.274
				l0.52,2.664c0.104,0.54,2.061,11.095-3.197,20.532c1.976-1.69,4.153-3.841,6.09-6.415l4.465-5.94l-2.561,6.974
				c-0.039,0.11-3.107,7.969-8.346,13.968c0.663-0.364,1.326-0.747,1.982-1.157l1.307,1.762l-3.542,3.119
				c0.175,0.942,0.448,2.886,0.546,6.123c-0.702,5.011-3.068,17.126-10.087,25.38c-7.376,8.684-18.199,23.989-21.344,28.475
				c-0.598,0.591-1.06,1.007-1.514,1.423c-1.437,1.294-2.925,2.639-4.121,4.146c-13.415,16.905-17.919,22.58-33.229,22.872
				l-0.79,0.007c-8.153,0-14.175-2.379-17.899-7.078c-4.822-6.084-5.681-15.943-2.554-29.319
				c6.542-27.96,24.948-51.047,25.133-51.274l0.569-0.701l13.158,6.961c-1.563-2.555-4.033-6.48-7.387-11.511
				c-5.94-8.904-17.237-30.366-22.14-45.087c-4.689-14.052-9.294-37.625-9.34-37.866l-0.046-0.233l6.997-29.319
				c4.592-19.212,18.93-43.137,30.2-59.879l-0.049,0.026l2.642-3.841c13.097-19.024,25.068-33.297,28.091-35.942
				c6.024-5.271,9.112-12.875,9.138-12.953l3.906-11.719c-0.013,0,0.306-1.924,0.715-4.881c0.488-3.497,1.17-8.853,1.599-14.52
				c0.735-9.619,11.465-13.948,14.279-14.917c0.618-3.418,3.685-19.699,8.56-36.416c3.893-13.337,14.591-23.119,22.397-30.262
				c3.347-3.055,6.233-5.7,7.618-7.773c0.565-0.845,0.441-1.436,0.299-1.813c-0.865-2.262-6.038-4.368-9.106-5.167
				c-23.794-8.169-33.648-21.695-35.071-23.801c-1.157-0.604-6.123-3.256-17.113-10.133c-3.997-2.496-7.715-4.289-11.004-5.875
				c-7.136-3.451-12.777-6.181-16.145-13.467c-4.309-9.34-7.507-17.113-11.039-26.817c-1.816-4.991-9.051-9.977-14.864-13.986
				c-3.903-2.691-7.276-5.018-8.605-7.007c-0.919-1.378-1.202-2.833-0.838-4.328c0.416-1.723,1.654-3.172,2.811-4.199
				c-9.46-1.897-11.829-9.905-12.277-11.913c-1.846-1.508-2.883-3.471-3.081-5.85c-0.686-8.229,9.151-18.667,9.571-19.102
				l0.208-0.221l0.286-0.078c0.975-0.28,1.947-0.422,2.889-0.422c3.545,0,5.814,1.95,6.59,2.749h0.02
				c2.613,0.462,3.494,0.618,4.8,1.892l4.585,4.491l-5.817-2.71c-0.481-0.228-1.206-0.429-1.979-0.585
				c0.588,0.657,1.02,1.573,1.111,2.847c0.016,0.234,0.322,4.465-1.088,8.703c2.693-2.327,5.811-4.965,8.026-6.616
				c4.475-2.112,6.109-1.202,7.25-0.403c0.231,0.163,0.462,0.332,0.744,0.462l0.602,0.286l0.029,0.663
				c0.032,0.696-0.026,1.391-0.176,2.125c-0.598,2.977-2.954,6.408-5.645,9.521c0.286-0.228,0.572-0.461,0.852-0.688
				c5.531-4.466,8.768-6.838,10.77-5.902c3.334,1.599,6.009,2.938,6.009,2.938l1.202,0.604l-0.838,1.059
				c-0.052,0.072-4.374,5.531-7.851,11.413c5.537-5.232,11.4-9.314,14.76-7.78c6.136,2.729,11.173,8.014,11.387,8.235l0.299,0.318
				v11.452l-1.801-1.508c-3.308-2.762-9.151-7.019-11.933-7.688c-0.026,3.106,0.546,8.865,3.483,10.555
				c1.04,0.591,1.885,1,2.567,1.333c2.671,1.3,3.471,1.852,4.004,5.973c0.422,3.204,1.982,7.039,2.892,9.073l5.752-6.083
				c5.024-9.131,8.462-13.766,10.21-13.766c2.139,0,8.612,3.678,10.549,4.803c0.442,0.37,6.363,5.979,3.854,20.454
				c-0.852,4.907-0.494,7.292-0.169,8.333c2.847-1.521,11.296-6.448,12.667-12.076c1.131-4.595,0.357-9.366,0.104-10.042
				l-0.579-1.56l1.651,0.052c2.027,0.104,4.575-0.104,7.078-0.63c0.559-0.124,1.242-0.175,2.08-0.175
				c9.106,0,34.467,7.162,41.311,9.145c-0.312-3.003-0.117-9.021,5.473-12.745c3.536-2.353,10.412-0.637,20.447,5.043l5.707,3.23
				l-6.447-1.196c-2.743-0.513-5.667-0.708-8.95-0.572c1.592,2.411,4.543,7.344,6.876,13.974c3.497,9.944,2.269,19.069,1.131,22.501
				c-0.968,2.905-4.907,10.432-11.706,22.378c-6.09,10.705-8.54,14.923-9.69,16.58l-0.221,0.409l-0.052-0.02
				c-0.123,0.156-0.228,0.28-0.318,0.377l0.02,0.02c-0.045,0.033-0.091,0.059-0.13,0.091c-0.091,0.078-0.169,0.13-0.234,0.156
				c-3.802,2.567-7.292,5.349-8.982,6.733c0.865,0.702,2.106,1.801,3.88,3.38l0.61,0.54l-2.164,4.686
				c0.572-1.099,1.144-2.19,1.716-3.275l0.65-1.235l1.046,0.93c6.486,5.758,25.53,17.022,27.181,17.503l1.658,0.292l-0.975,1.384
				c-0.565,0.858-1.15,2.944-1.82,5.369c-1.333,4.803-3.159,11.38-6.863,15.56c-5.011,5.655-7.962,12.785-9.678,18.667
				c3.126-6.98,7.546-15.41,11.998-19.141c1.541-1.294,3.21-2.262,4.556-3.035c0.858-0.494,1.599-0.923,2.002-1.261l3.308-2.782
				l-1.58,4.023c-2.886,7.344-6.181,15.787-8.722,22.521c3.029-6.019,6.623-13.363,9.294-18.907l5.362-20.545l1.339,1.209
				c2.801,2.522,6.656,6.148,8.053,7.468l7.532-3.347c-12.316-16.808-32.828-42.279-37.937-42.279
				c-1.534,0.169-3.484,0.897-5.875,2.151l-3.217,1.69l1.742-3.185c0.637-1.17,1.807-3.042,3.419-5.642
				c7.436-11.952,22.897-36.832,25.692-55.622c0.981-6.558,4.627-11.484,6.623-13.759l-7.683-2.099V103.92
				c0-10.692,15.56-20.922,16.223-21.357l0.487-0.312l8.982,3.744l13.941-30.808c8.15-8.15,19.557-12.277,33.901-12.277
				c14.416,0,31.19,4.049,49.857,12.044c12.369,5.303,78.332,41.245,93.372,83.992c15.11,42.922-25.349,60.945-25.758,61.121
				l-0.436,0.091h-8.638c-7.773,0-10.724,8.599-10.756,8.683l-0.708,2.132l-7.559-11.348c0.838,5.141,1.312,11.972-1.638,13.746
				c-1.333,0.793-3.347,1.203-5.986,1.203c-3.854,0-7.917-0.838-8.813-1.033c-0.539,0.052-2.366,0.273-3.522,0.826l-0.54,0.26
				l-0.507-0.312c-0.779-0.481-1.54-0.793-2.326-0.956c-1.573-0.312-3.152-0.461-4.823-0.461c-4.523,0-8.793,1.131-13.311,2.327
				c-3.133,0.832-6.376,1.69-9.743,2.151l-9.301,1.28c-1.625,1.898-10.301,12.063-17.672,21.877
				c7.461-8.066,16.944-16.899,23.58-18.01c11.836-1.969,20.532-3.718,20.623-3.73l0.423-0.091l18.646,11.627
				c-0.071-2.093-0.357-5.557-1.345-8.827l-1.67-5.55l3.588,4.556c5.855,7.442,8.644,21.786,9.301,32.731
				c0.539,9.307,12.719,24.88,20.785,35.182c3.354,4.289,6.006,7.676,7.351,9.924c2.203,3.659,4.647,10.607,7.267,20.649
				l-2.093,0.637c0.091,0.267,0.351,0.403,0.468,0.41c-0.812,0-3.334,1.774-3.594,2.535l-0.501,3.705
				c1.573-0.768,2.717-1.079,3.522-1.177l1.157-0.137l0.221,3.737c1.599,24.809-18.471,35.539-18.673,35.643
				c-6.915,2.6-13.701,3.893-20.298,3.893c-18.296,0-29.65-9.684-31.75-11.627h-7.41c-8.91,27.22-39.484,62.525-40.797,64.026
				l-0.897,1.033l-0.812-1.105c-3.601-4.888-5.882-10.36-5.193-12.459c0.54-1.638,6.194-10.113,7.325-11.797l0.188-0.214
				c0.169-0.15,16.781-14.76,23.924-36.729l0.332-1.014l1.021,0.299c0.025,0.006,2.365,0.682,4.887,0.682
				c2.736,0,4.55-0.76,5.375-2.255c2.086-3.737,4.822-8.462,5.869-10.276l-6.902-6.454c-0.383,0.201-1.514,1.059-3.308,4.646
				c-3.074,6.162-10.73,17.958-13.175,21.604c-0.377,0.565-0.975,1.911-1.742,3.614c-3.263,7.286-9.346,20.85-19.947,25.614
				l-0.422,0.188l-0.929-0.371l-0.267-0.688c-0.267-0.904-0.026-2.704,4.211-8.638c3.217-4.504,3.516-8.651,3.737-11.673
				c0.091-1.242,0.169-2.307,0.41-3.217c-2.912,1.43-5.57,1.293-7.839-0.357c-10.483-7.676-15.546-11.966-19.985-20.824
				c-1.788-3.575-4.485-8.41-7.098-13.09c-5.232-9.366-6.649-12.05-6.649-13.09c0-0.559,1.599-4.141,4.01-9.236
				c-0.514,0.507-1.027,0.936-1.554,1.254c-6.538,4.056-5.589,7.02-5.576,7.045c0.117,0.403,7.916,28.812,15.026,37.45
				c7.306,8.872,16.516,24.62,16.606,24.776l0.351,0.598l-4.01,5.823l-0.93-0.877c-0.351-0.332-6.012-5.732-10.86-12.869
				c1.677,4.66,3.652,9.164,5.628,11.329c1.904,2.099,3.848,3.886,5.563,5.466c3.393,3.126,5.635,5.193,4.153,6.987
				c-1.125,1.358-4.01,11.141-3.718,12.603c0.371,1.118-0.5,3.087-2.73,7.65c-0.988,2.008-2.47,5.043-2.47,5.778
				c0.188,1.092,4.342,5.427,8.319,9.061c0.663-0.514,1.729-1.358,2.918-2.398l3.198-2.788l-9.483,25.965
				c-3.243,3.509-9.697,10.626-10.906,12.433c-1.294,1.943-8.443,21.514-6.89,40.979c1.28,16.047-17.185,35.552-26.057,44.924
				c-1.897,2.002-3.685,3.894-3.938,4.4c-1.137,2.281-4.056,10.425-6.571,19.784l-1.859,6.915l-0.299-7.155
				c-0.039-1.015-0.13-1.976-0.24-2.86c-0.748,4.934-1.684,12.012-1.716,16.905c-0.033,4.589-0.169,11.128-0.41,19.434l-0.136,4.55
				l1.716,0.37c-0.988,4.628-5.063,9.808-9.515,14.312l-0.098,2.412c-0.039,0.864-0.026,1.943-0.02,3.165
				c0.046,5.654,0.117,14.208-3.809,19.316c-3.666,4.771-6.435,6.2-8.014,6.591c0.487,5.589,2.372,30.631-1.787,39.899
				C292.972,723.831,277.191,726.763,268.846,726.763z M262.535,723.922l0.299,0.053c0.026,0.006,2.365,0.598,6.012,0.598
				c7.884,0,22.807-2.802,34.155-21.526c4.296-9.6,1.469-39.452,1.443-39.751l-0.137-1.423l1.411,0.24
				c0.266-0.007,2.892-0.176,7.279-5.882c3.464-4.511,3.399-12.603,3.36-17.965c-0.006-0.286-0.006-0.572-0.006-0.845
				c-3.725,3.028-8.294,6.09-11.608,6.915l-5.654,1.41l4.751-3.373c0.149-0.104,10.568-7.532,17.139-15.494
				c-0.201,0.123-0.39,0.228-0.571,0.306l-2.567,1.156l1.111-2.593c0.059-0.13,5.518-13.148-2.242-23.762l-5.453-7.455l7.045,5.967
				c0.208,0.182,3.842,3.288,6.253,7.39c0.149-5.727,0.234-10.38,0.26-13.89c0.059-8.391,2.587-22.423,2.697-23.015l0.754-4.166
				l1.365,4.01c0.032,0.091,0.474,1.404,0.877,3.497c2.035-6.857,4.141-12.72,5.226-14.884c0.384-0.773,1.599-2.067,4.31-4.927
				c7.975-8.43,26.667-28.168,25.465-43.247c-1.554-19.382,5.304-39.438,7.247-42.37c1.514-2.255,9.71-11.173,10.971-12.537
				l6.376-17.646c-0.396,0.306-0.63,0.481-0.656,0.501l-0.722,0.526l-0.663-0.592c-3.626-3.256-9.723-9.054-9.723-11.303
				c0-1.183,1.026-3.334,2.69-6.74c1.046-2.132,2.619-5.355,2.587-6.123c-0.683-2.034,2.801-12.94,4.146-14.571
				c-0.143-0.462-2.255-2.405-3.952-3.965c-1.664-1.534-3.731-3.438-5.7-5.609c-4.075-4.472-7.917-17.113-9.847-24.249
				c-0.364-1.145-0.618-2.119-0.78-3.022l2.145-0.455c0,0.007,0.28,1.144,0.754,2.905c3.055,9.587,12.239,19.414,15.177,22.384
				l1.748-2.535c-1.748-2.958-9.665-16.125-16.047-23.893c-7.409-8.995-15.092-36.962-15.417-38.151
				c-0.149-0.318-1.664-4.53,6.5-9.593c7.143-4.433,13.902-32.575,13.902-41.538c0-8.417-10.016-10.425-10.12-10.445
				c-1.099-0.441-2.535-1.261-2.359-2.515c0.202-1.404,2.139-1.644,2.964-1.749c2.632-0.325,4.784-3.132,5.693-4.673
				c-0.695-1.053-2.931-3.62-8.176-3.62c-7.852,0-16.301-13.058-16.658-13.616l-0.637-1.001l1.04-0.559
				c0.267-0.136,6.493-3.438,13.233-3.438c0.91,0,1.8,0.059,2.645,0.182c6.89,0.988,14.572,8.566,14.572,17.854
				c0,4.458,0.338,4.725,1.15,5.362c0.91,0.709,2.275,1.788,4.004,5.727c3.776,8.644,0.695,20.174,0.565,20.655
				c-8.222,16.495-20.499,41.434-20.935,43.357c0.188,0.787,3.62,6.935,6.382,11.875c2.626,4.699,5.336,9.561,7.144,13.181
				c3.99,7.962,8.325,11.985,19.322,20.038c2.438,1.78,5.414,0.962,9.087-2.288c4.92-7.487,16.879-25.218,16.879-25.218l1.904,1.079
				c-0.345,0.721-8.43,17.756-17.106,25.582l-0.494,0.754c-0.65,0.995-1.125,1.716-1.319,2.054c-0.429,0.708-0.52,2.021-0.631,3.535
				c-0.24,3.289-0.565,7.787-4.146,12.791c-1.794,2.516-2.756,4.146-3.269,5.187c8.638-5.167,13.916-16.931,16.84-23.463
				c0.838-1.865,1.442-3.211,1.917-3.932c2.424-3.62,10.016-15.306,13.038-21.37c1.995-3.984,3.763-5.921,5.414-5.921
				c0.455,0,0.754,0.156,0.896,0.247l8.645,8.06l-0.442,0.754c0,0-2.047,3.516-4.186,7.26h8.931l0.318,0.325
				c0.117,0.11,11.576,11.303,30.534,11.303c6.331,0,12.863-1.242,19.408-3.698c0.065-0.046,18.875-10.152,17.379-33.492
				l-0.085-1.293c-0.708,0.234-1.695,0.656-2.989,1.404l-0.208,1.58l-0.188-1.346c-1.04,0.63-2.262,1.456-3.685,2.554
				c-6.754,5.2-15.671,11.491-15.762,11.556l-4.543,3.204l2.989-4.692c1.58-2.483,3.022-5.876,2.561-6.779
				c-0.214-0.436-0.351-0.857-0.494-1.293c-0.481-1.527-0.988-3.107-7.722-5.512c-2.431-0.858-5.797-0.208-9.833,1.897
				c-0.163,0.111-0.669,0.488-1.391,1.021c-1.774,1.319-3.867,2.295-6.083,3.328c-2.165,1.014-4.413,2.06-6.539,3.51l-3.782,2.593
				l2.203-4.023c7.162-13.064,21.032-15.014,28.663-15.014c0.793,0,1.514,0.02,2.138,0.052c-1.475-1.541-3.464-3.315-5.082-3.828
				c-1.32-0.416-2.802-0.624-4.388-0.624c-12.05,0-27.271,11.854-27.428,11.979l-6.499,5.108l4.946-6.629
				c0.319-0.429,7.91-10.503,18.25-15.027c4.861-2.125,8.547-2.398,11.212-2.398l1.995,0.026c0.214,0,0.656,0,1.001-0.052
				c-0.533-0.962-2.477-3.002-4.647-4.842c-1.41,0.228-5.758,0.942-12.076,2.009c-9.255,1.566-25.114,11.796-25.27,11.9
				l-1.352-1.723c0.468-0.436,11.484-10.704,22.312-13.759c2.639-0.741,3.854-1.592,5.7-2.873c1.403-0.975,3.217-2.242,6.246-3.854
				c-3.412-1.098-9.716-2.95-14.552-3.308c-6.688-0.344-18.068,10.601-18.186,10.705l-4.498,4.368l2.743-5.635
				c0.098-0.201,2.444-4.946,7.78-9.749c5.193-4.66,7.221-6.389,9.625-7.533c0.78-0.364,1.377-0.669,1.482-0.975
				c0.11-0.318,0.013-1.15-1.066-3.314c-1.839-3.686-0.825-6.07-0.182-7.045l-1.566-8.534c-19.42,1.605-32.907,21.272-33.043,21.474
				l-1.885-1.118c11.27-21.644,28.61-27.285,34.031-28.559l-2.145-3.296c-34.265,5.447-53.88,38.341-54.075,38.672l-1.904-1.092
				c37.437-65.917,73.262-43.247,73.893-42.831l0.559,0.37l-0.071,0.669c-0.013,0.13-1.365,13.448,7.507,17.756
				c9.873,4.816,19.199,20.22,19.596,20.87l1.41,2.346l-2.645-0.721c-2.366-0.65-5.115-0.981-8.176-0.981
				c-0.864,0-1.716,0.026-2.528,0.071c6.493,1.215,14.968,3.718,18.218,8.768c4.953,7.676,6.051,14.63,6.961,21.351
				c0.942-0.779,2.08-1.442,3.022-1.735c-2.386-8.897-4.667-15.286-6.623-18.529c-1.274-2.132-4.017-5.642-7.194-9.704
				c-8.723-11.146-20.669-26.414-21.254-36.403c-0.475-7.988-2.242-18.588-5.693-26.173c0.306,2.873,0.234,5.018,0.234,5.161
				l-0.071,1.897l-21.214-13.226c-1.892,0.371-9.873,1.93-20.259,3.659c-11.426,1.911-33.622,30.606-33.843,30.898l-6.356,8.261
				l4.498-9.405c5.42-11.335,27.122-36.475,28.038-37.534l0.273-0.318l10.119-1.385c3.237-0.448,6.409-1.287,9.477-2.099
				c4.458-1.183,9.066-2.405,13.876-2.405c1.82,0,3.536,0.169,5.258,0.507c0.871,0.182,1.709,0.494,2.542,0.949
				c1.689-0.644,3.809-0.812,3.906-0.819l0.169-0.013l0.162,0.032c0.046,0.013,4.479,1.021,8.495,1.021
				c2.203,0,3.887-0.306,4.855-0.891c2.204-1.319,1.007-10.86-0.5-16.885l-1.534-6.148l11.829,17.756
				c1.495-2.964,5.128-8.248,11.998-8.248h8.404c3.359-1.514,38.392-18.413,24.359-58.287
				c-14.591-41.453-80.625-77.753-92.168-82.705C429.532,49.097,413.049,45.1,398.933,45.1c-13.662,0-24.497,3.867-32.212,11.498
				l-14.5,32.244l-9.879-4.114c-2.574,1.781-14.748,10.653-14.748,19.193v14.884l9.743,2.665l-1.456,1.345
				c-0.058,0.059-6.031,5.661-7.253,13.851c-2.86,19.238-18.491,44.378-25.998,56.454c-0.572,0.923-1.105,1.774-1.573,2.535
				c1.241-0.481,2.333-0.767,3.308-0.884l0.332-0.02c8.053,0,37.216,39.744,40.511,44.281l0.799,1.092l-11.348,5.05l-0.533-0.5
				c0-0.007-3.912-3.711-7.208-6.727l-4.524,17.25c-14.877,30.944-15.67,30.944-16.508,30.944h-0.546l-0.363-0.455
				c-0.371-0.494-0.241-1.072-0.033-1.774c1.215-4.127,6.72-18.413,11.582-30.801c-1.144,0.663-2.457,1.469-3.633,2.45
				c-7.617,6.396-15.645,28.806-15.722,29.026l-2.775,7.812l0.65-8.261c0.059-0.767,1.593-18.953,12.485-31.236
				c3.36-3.796,5.109-10.094,6.383-14.689c0.552-1.969,1.014-3.64,1.521-4.849c-4.712-2.301-19.42-11.322-25.842-16.574
				c-11.679,22.261-24.88,48.343-25.01,48.609l-1.976-0.955l23.456-50.741c-1.8-1.599-3.646-3.224-4.075-3.438l-1.469-0.747
				l1.235-1.073c0.052-0.045,4.959-4.218,10.451-7.91c2.054-3.341,19.212-32.53,21.279-38.724
				c1.053-3.191,2.177-11.699-1.118-21.084c-3.185-9.034-7.656-14.961-7.702-15.02l-1.222-1.599l2.008-0.156
				c2.021-0.156,3.874-0.195,5.635-0.13c-6.298-2.997-10.958-3.887-13.064-2.47c-6.317,4.206-4.361,11.842-4.276,12.167l0.507,1.891
				l-1.878-0.552c-0.325-0.097-32.329-9.547-42.357-9.547c-0.676,0-1.222,0.045-1.625,0.13c-2.145,0.461-4.238,0.702-6.22,0.708
				c0.338,2.132,0.592,5.999-0.357,9.847c-1.897,7.767-14.26,13.766-14.786,14.013l-0.644,0.305l-0.539-0.455
				c-0.396-0.338-2.308-2.451-0.819-11.017c2.281-13.181-2.944-18.277-2.996-18.322c-3.522-2.021-8.189-4.361-9.249-4.361
				c-1.046,0.494-5.206,7.006-8.358,12.745l-0.162,0.228l-8.033,8.495l-0.702-1.397c-0.124-0.254-3.126-6.246-3.77-11.205
				c-0.41-3.133-0.592-3.217-2.788-4.283c-0.722-0.351-1.605-0.78-2.704-1.404c-5.193-2.983-4.576-13.246-4.543-13.681l0.052-0.839
				l0.825-0.169c0.188-0.032,0.396-0.052,0.618-0.052c3.061,0,9.112,4.419,12.192,6.837v-5.927
				c-1.15-1.145-5.466-5.245-10.379-7.436c-0.234-0.104-0.513-0.156-0.832-0.156c-4.615,0-13.931,9.795-16.993,13.012l-1.745,1.833
				l-0.146-2.521c-0.02-0.338,0.082-1.255,1.378-2.671c2.821-6.064,7.803-12.843,9.775-15.43c-1.089-0.533-2.817-1.384-4.78-2.327
				l0,0c-1.469,0-5.333,3.126-8.437,5.635c-3.714,2.996-7.549,6.097-10.415,7.045l-0.065,0.045l-0.016-0.02l-0.179,0.052
				c-0.374,0.104-0.542,0.149-0.826,0.078l-3.964-1.014l3.939-1.105c2.596-2.229,11.653-10.425,12.787-16.06
				c0.072-0.351,0.114-0.683,0.134-1.007c-0.153-0.098-0.299-0.195-0.442-0.299c-0.504-0.351-0.809-0.565-1.417-0.565
				c-0.77,0-1.934,0.351-3.461,1.053c-2.69,2.034-7.211,5.966-10.204,8.566c-3.207,2.789-3.207,2.789-3.695,2.789l-0.734,0.006
				l-0.283-0.683c-0.299-0.715,0.059-1.072,1.004-2.015c0.273-0.279,0.53-0.578,0.771-0.884c3.419-4.413,2.908-11.511,2.902-11.582
				c-0.13-1.872-1.339-2.275-2.905-2.606l-0.711-0.149l-0.228-0.891c-0.104-0.526,0.084-1.261,0.949-1.611
				c-1.147-0.852-3.523-1.813-6.22-1.138c-1.387,1.521-9.326,10.549-8.771,17.197c0.159,1.885,0.991,3.374,2.548,4.537l0.36,0.272
				l0.065,0.449c0.062,0.41,1.634,10.139,13.135,10.854l3.725,0.228l-3.26,1.82c-0.965,0.546-3.578,2.405-4.085,4.498
				c-0.211,0.884-0.035,1.729,0.536,2.587c1.096,1.645,4.462,3.965,8.027,6.421c6.386,4.407,13.623,9.392,15.677,15.04
				c3.513,9.652,6.691,17.373,10.968,26.648c3.042,6.578,8.104,9.021,15.111,12.414c3.334,1.605,7.116,3.432,11.205,5.993
				c12.368,7.728,17.158,10.139,17.204,10.165l0.273,0.137l0.169,0.26c0.091,0.143,9.574,14.734,34.019,23.132
				c0.838,0.221,8.976,2.443,10.522,6.486c0.475,1.261,0.292,2.573-0.533,3.815c-1.527,2.294-4.504,5.018-7.955,8.17
				c-7.617,6.967-18.056,16.508-21.773,29.254c-2.847,9.755-5.069,19.355-6.545,26.31c0.279-0.729,0.598-1.43,0.975-2.093
				c4.738-8.463,10.848-12.746,18.166-12.746c11.283,0,21.663,10.25,24.12,12.869l0.955-4.146l-0.143,10.308
				c-0.007,0.267-0.611,26.732-20.902,26.732c-9.366-0.045-16.808-4.088-21.065-11.394c-2.437-4.179-3.555-9.145-3.295-13.72
				c-0.572,2.918-0.877,4.653-0.89,4.712l-0.117,0.669l-0.65,0.195c-0.13,0.039-12.654,3.861-13.369,13.194
				c-0.436,5.719-1.118,11.127-1.612,14.656c-0.429,3.113-0.754,5.089-0.754,5.089l-3.978,11.959
				c-0.156,0.396-3.341,8.234-9.756,13.851c-2.665,2.333-13.265,14.955-25.032,31.671l2.132-1.183l0.559,0.839
				c0.075,0.11,7.458,11.095,15.167,20.597c6.681,8.215,29.228,18.536,29.455,18.641l5.856,2.671l-6.409-0.578
				c-0.637-0.059-15.677-1.501-27.331-11.043c-8.234-6.746-19.017-16.008-25.279-21.429c-11.078,16.548-24.874,39.738-29.312,58.307
				l-6.886,28.857c0.491,2.49,4.829,24.191,9.223,37.365c4.849,14.546,16.015,35.754,21.887,44.555
				c6.236,9.358,9.443,14.941,9.476,14.994l1.885,3.288l-18.371-9.723c-3.104,4.062-18.368,24.944-24.152,49.682
				c-2.97,12.693-2.252,21.936,2.135,27.46c3.286,4.146,8.732,6.246,16.18,6.246l0.751-0.006c14.272-0.268,18.267-5.305,31.5-21.981
				c1.358-1.71,2.912-3.113,4.413-4.472c0.455-0.41,0.904-0.812,1.345-1.223c3.003-4.335,13.877-19.706,21.312-28.461
				c6.656-7.825,8.917-19.452,9.58-24.087c-0.124-3.73-0.507-5.596-0.604-6.012c-2.275,1.053-4.199,1.78-5.213,2.145
				c-0.325,0.13-0.683,0.254-1.046,0.364l-0.644-2.1c0.006,0,0.351-0.11,0.949-0.324c4.608-1.827,8.625-7.117,11.329-11.674
				c-3.933,3.582-7.39,5.506-7.598,5.616l-7.832,4.289l6.558-6.058c7.475-6.902,7.981-16.826,7.702-21.715
				c-7.715,11.693-10.198,14.085-14.481,16.165l-5.882,2.853l4.628-4.621c0.156-0.156,15.664-15.832,9.489-27.525
				c-0.241-0.461-1.105-0.721-2.373-0.721c-2.242,0-4.985,0.799-5.895,1.209l-3.497,1.579l2.138-3.191
				c0.085-0.13,2.236-3.249,7.338-3.249c0.13,0,0.254,0,0.384,0.006c7.052-6.369,5.329-11.81,5.251-12.043l-0.891-2.658l0.319,0.175
				l-0.852-8.579l0.468-0.37c0.039-0.033,3.894-3.133,7.702-7.702c3.932-4.712,12.55-15.709,14.838-19.518
				c2.359-3.926,8.443-12.311,8.696-12.661l2.678-3.679l-0.702,4.491c-0.025,0.143-2.112,14.201,6.487,18.51l18.953,9.476
				l-5.362-0.331c-0.559-0.033-12.745-0.819-19.069-4.16c-2.893,14.11-6.721,34.851-6.188,38.041
				c0.598,3.556,8.229,11.128,11.114,13.747l5.94,5.382l-20.109-10.068c-0.956,3.575-3.542,13.591-3.542,17.289
				c0,4.744,2.359,20.33,3.887,25.646c0.435,1.515,0.773,4.088,1.208,7.338c1.196,9.034,3.002,22.689,8.813,30.015
				c0.176,0.233,14.156,19.557,24.035,24.873l4.446,2.398l-5.037-0.338c-0.442-0.026-9.704-0.683-17.393-4.758
				c1.489,4.634,3.198,13.806-2.028,23.08c-9.632,17.151-12.343,32.081-8.28,45.632c4.784,15.957,12.31,16.418,13.148,16.418
				L262.535,723.922z M322.115,608.089c1.703,5.901,0.891,11.536-0.006,15.014c1.456-1.481,2.912-3.341,3.575-4.452l-1.248-4.972
				c-0.045-0.183-0.065-0.293-0.078-0.494C324.052,611.436,323.168,609.675,322.115,608.089z M167.483,397.637l0.406,0.351
				c6.067,5.252,17.529,15.124,26.173,22.196c5.863,4.803,12.752,7.468,17.984,8.924c-7.403-3.841-18.166-10.016-22.65-15.534
				c-6.539-8.053-12.836-17.159-14.718-19.921L167.483,397.637z M401.09,397.649c-3.171,4.738-6.681,10.217-6.986,11.146
				c-0.221,0.683,0.754,4.479,4.081,9.34c5.122-6.012,29.547-35.402,38.503-59.496c-1.312,1.892-3.718,2.886-6.987,2.886
				c-1.788,0.007-3.451-0.286-4.471-0.514C418.054,382.077,402.585,396.311,401.09,397.649z M483.23,325.668
				c1.092,0,2.119,0.169,3.048,0.5c7.195,2.567,8.333,4.563,9.08,6.916c0.104,0.325,0.208,0.65,0.364,0.975
				c0.618,1.216,0.195,3.062-0.5,4.79c3.224-2.313,7.969-5.771,11.952-8.839c1.833-1.41,3.393-2.431,4.706-3.165l-0.819-5.974
				c-0.909-6.739-1.852-13.707-6.746-21.292c-4.849-7.539-24.542-8.826-24.737-8.839l-7.286-0.442l7.091-1.716
				c0.208-0.052,5.128-1.229,11.088-1.229c2.184,0,4.231,0.163,6.116,0.481c-2.958-4.439-10.113-14.338-17.263-17.822
				c-9.086-4.419-8.976-16.19-8.787-19.258c-1.651-0.91-6.929-3.432-14.5-3.432c-11.056,0-26.849,5.291-43.982,27.831
				c9.606-9.587,24.067-20.194,42.695-22.937l0.695-0.104l4.731,7.273l-1.696,0.247c-0.163,0.026-13.337,2.119-25.114,14.909
				c6.181-5.206,14.734-10.288,24.899-10.809l0.962-0.045l2.106,11.478l-0.41,0.403c-0.045,0.052-1.469,1.657,0.208,5.024
				c1.242,2.476,1.573,3.88,1.183,5.011c-0.416,1.196-1.541,1.729-2.625,2.242c-2.034,0.962-3.77,2.398-9.093,7.182
				c-0.734,0.657-1.404,1.313-2.021,1.957c4.01-2.912,9.066-5.707,12.869-5.466c7.247,0.526,17.165,4.101,17.587,4.25l2.424,0.884
				l-2.32,1.138c-4.335,2.125-6.525,3.646-8.287,4.875c-1.956,1.358-3.366,2.34-6.356,3.185c-1.995,0.559-4.017,1.397-5.973,2.378
				c3.269-1.436,6.545-2.6,9.32-3.068c7.786-1.326,12.583-2.099,12.583-2.099l0.494-0.078l0.383,0.319
				c2.275,1.885,6.077,5.336,5.96,7.292c-0.032,0.54-0.299,1.001-0.754,1.293c-0.669,0.422-1.481,0.507-2.58,0.507l-1.995-0.02
				c-2.451,0-5.843,0.253-10.328,2.216c-4.257,1.859-8.072,4.777-11.042,7.5c5.739-3.386,13.708-7.143,20.889-7.143
				c1.807,0,3.51,0.247,5.05,0.729c3.614,1.144,7.741,6.362,7.917,6.583l1.716,2.184l-2.75-0.423
				c-0.019-0.006-1.839-0.279-4.602-0.279c-6.311,0-17.165,1.404-24.171,10.042c0.91-0.455,1.813-0.878,2.704-1.294
				c2.106-0.981,4.101-1.911,5.694-3.1c0.942-0.696,1.378-1.021,1.638-1.177v-0.007C477.868,326.526,480.761,325.668,483.23,325.668
				z M249.731,277.487c-6.467,0-11.933,3.913-16.255,11.621c-2.951,5.271-2.489,13.272,1.118,19.453
				c3.848,6.604,10.62,10.263,19.057,10.302c8.696,0,13.375-5.512,15.891-11.315c-3.373,5.037-9.34,8.111-15.937,8.111
				c-2.873,0-5.759-0.598-8.345-1.723c-4.712-2.067-8.436-6.363-9.951-11.491c-1.397-4.731-0.728-9.515,1.885-13.473
				c3.757-5.687,8.969-8.573,15.488-8.573c4.244,0,8.437,1.235,11.972,2.736C260.494,280.211,255.158,277.487,249.731,277.487z
				 M252.682,282.596c-5.732,0-10.328,2.554-13.655,7.584c-2.255,3.406-2.827,7.546-1.612,11.641
				c1.333,4.518,4.596,8.293,8.729,10.101c2.307,1.007,4.888,1.547,7.461,1.547c6.337,0,12.011-3.172,14.799-8.268
				c2.606-4.764,4.075-11.068,4.088-11.134l1.007-4.367l-0.604,0.644C272.797,290.266,262.665,282.596,252.682,282.596z
				 M366.877,260.18c1.189,0.253,11.562,2.931,11.562,12.511c0,4.835-1.82,14.929-4.699,24.25
				c2.938-5.953,5.915-11.939,8.378-16.859l0,0c-0.026,0,2.912-11.107-0.539-18.998c-1.502-3.438-2.561-4.271-3.341-4.881
				c-1.476-1.157-1.996-2.015-1.996-7.091c0-8.169-6.688-14.819-12.687-15.683c-5.434-0.761-11.088,1.443-13.435,2.496
				c2.769,3.984,9.08,11.569,14.124,11.569c7.955,0,10.334,5.147,10.431,5.362l0.214,0.475l-0.233,0.468
				c-0.117,0.234-2.951,5.771-7.657,6.363C366.955,260.167,366.916,260.173,366.877,260.18z M341.991,494.524l-0.481-0.078
				c-0.124-0.026-12.765-2.132-28.325-5.251c-11.51-2.294-13.811-4.407-17.626-7.897c-1.508-1.377-3.211-2.944-5.869-4.862
				c-9.132-6.597-20.967-9.229-21.084-9.255l0.39-2.158c0.91,0.13,22.404,3.25,27.305,7.598c2.184,1.943,6.473,2.561,12.407,3.413
				c5.94,0.857,13.33,1.924,22.319,4.751c8.111,2.554,12.537,5.537,13.142,8.878c0.5,2.724-1.703,4.491-1.8,4.562L341.991,494.524z
				 M282.768,469.858c2.724,1.293,5.557,2.879,8.209,4.797c2.756,1.995,4.517,3.601,6.063,5.024
				c3.653,3.347,5.668,5.187,16.574,7.357c13.701,2.75,25.133,4.712,27.713,5.148c0.357-0.403,0.865-1.183,0.682-2.151
				c-0.266-1.384-2.131-4.16-11.646-7.156c-8.813-2.775-16.105-3.828-21.968-4.673c-6.311-0.91-10.874-1.566-13.551-3.945
				C293.023,472.646,288.052,471.106,282.768,469.858z M235.874,438.791c-1.079-2.32-10.562-22.768-11.095-25.965
				c-0.37-2.223-4.088-5.635-5.362-6.656l-0.241-0.266c-0.045-0.072-4.822-7.526-10.028-18.471
				c-5.07-10.633-13.22-16.834-13.298-16.893l-2.84-2.125l3.542,0.149c9.951,0.436,14.78,8.144,18.316,13.772
				c0.981,1.573,1.833,2.925,2.658,3.919c2.027,2.431,2.145,3.848,2.288,5.492c0.143,1.742,0.325,3.906,3.308,8.794
				c5.771,9.437,14.429,36.312,14.793,37.45L235.874,438.791z M220.932,404.571c0.546,0.448,2.119,1.787,3.529,3.438
				c-1.124-2.509-2.216-4.699-3.211-6.324c-3.25-5.329-3.471-7.89-3.626-9.756c-0.124-1.475-0.202-2.372-1.788-4.27
				c-0.916-1.105-1.846-2.587-2.827-4.153c-2.944-4.693-6.499-10.354-12.914-12.174c2.983,2.847,7.63,8.014,11.029,15.15
				C215.875,396.46,220.243,403.486,220.932,404.571z M334.874,432.929c-1.15,0-3.309-1.703-3.933-2.223h-0.006
				c-5.395-2.035-15.079-4.388-15.176-4.414l-12.115-4.835l1.086-1.17c7.032-7.572,21.091-8.696,21.688-8.735l1.781-0.137
				l-0.689,1.651c-3.236,7.754,1.989,13.493,4.556,15.722c2.639,1.008,3.354,1.625,3.685,2.054c0.487,0.656,0.345,1.183,0.215,1.436
				l-0.299,0.604L334.874,432.929z M307.518,420.645l8.911,3.562c0.202,0.039,6.077,1.469,11.264,3.087
				c-2.288-3.022-4.472-7.676-2.814-13.356C321.277,414.431,312.782,416.05,307.518,420.645z M292.952,422.133
				c-0.228,0-0.422-0.059-0.669-0.137v-0.013c-0.039-0.006-0.078-0.02-0.117-0.026h-0.007l0,0c-0.078-0.026-0.156-0.059-0.247-0.091
				l-0.013,0.033c-10.536-2.353-18.042-5.524-22.312-9.437c-2.093-0.832-4.225-1.67-6.363-2.457
				c-9.301-3.438-10.042-6.344-10.042-9.788c0-1.222,0-2.1-0.962-3.035c-1.281-1.235-1.827-2.567-1.638-3.965
				c0.364-2.619,3.257-4.244,3.588-4.426l0.52-0.13h12.108v1.098c0,0.039,0.013,4.127,1.04,15.456
				c0.175,1.865,1.137,3.62,2.951,5.362c5.973,2.392,11.562,4.829,15.657,6.609c2.964,1.287,5.304,2.308,6.292,2.652l0.033,0.013
				c0.487,0.098,1.403,0.306,1.3,1.3l-0.11,0.975L292.952,422.133z M254.989,390.857c-0.729,0.448-2.074,1.508-2.229,2.665
				c-0.091,0.676,0.228,1.352,0.981,2.086c1.631,1.573,1.638,3.257,1.638,4.608c0,2.236,0,4.55,8.605,7.734
				c0.936,0.345,1.872,0.695,2.801,1.053c-0.637-1.163-1.02-2.359-1.131-3.588c-0.754-8.3-0.968-12.7-1.026-14.559H254.989z
				 M317.592,406.411h-0.514l-0.331-0.396c-0.228-0.273-23.151-27.474-53.257-30.541l-9.632-0.981l9.606-1.196
				c0.15-0.032,8.84-1.007,19.316,2.125c6.39,1.924,15.463,4.27,23.463,6.337c5.193,1.345,10.061,2.6,13.733,3.62
				c3.217,0.897,5.596,2.106,7.689,3.172c3.21,1.631,5.979,3.042,10.958,3.042c0.006,0,0.006,0,0.006,0
				c1.664,0,3.471-0.149,5.525-0.468c13.421-2.073,27.037-5.206,27.174-5.232l1.346-0.312v7.891l-0.741,0.253
				c-0.149,0.059-15.41,5.336-29.442,8.97C328.381,406.365,318.027,406.411,317.592,406.411z M277.685,376.396
				c21.955,7.48,37.879,24.925,40.401,27.811c2.229-0.059,11.731-0.481,23.859-3.633c12.187-3.159,25.322-7.572,28.532-8.67v-3.575
				c-3.782,0.845-14.948,3.256-25.984,4.966c-2.171,0.331-4.088,0.494-5.863,0.494c0,0,0,0-0.006,0
				c-5.505,0-8.638-1.593-11.953-3.282c-2.099-1.073-4.277-2.178-7.279-3.01c-3.666-1.02-8.521-2.274-13.701-3.613
				c-8.021-2.073-17.113-4.426-23.541-6.356C280.61,377.065,279.115,376.695,277.685,376.396z M398.562,337.861l-0.299-2.405
				c0-0.039-0.617-4.225-6.161-14.416l-5.986-11.017l1.878-6.019l1.215,0.806c0.949,0.63,1.527,1.599,2.197,2.723
				c1.3,2.184,2.918,4.907,8.273,6.578c8.807,2.742,11.088,8.793,11.186,9.047l0.221,0.617L398.562,337.861z M388.481,309.79
				l5.544,10.197c3.594,6.604,5.187,10.783,5.889,13.051l8.625-9.697c-0.748-1.43-3.224-5.18-9.509-7.136
				c-6.162-1.924-8.176-5.311-9.508-7.553c-0.156-0.26-0.306-0.514-0.449-0.741L388.481,309.79z M403.164,202.529
				c-12.134,0-34.642-1.872-49.078-14.436c-10.185-8.865-17.756-22.163-20.252-35.571c-2.061-11.075-1.788-27.531,11.218-43.013
				c0.598-0.488,10.679-8.079,21.169-8.079c2.658,0,5.141,0.5,7.37,1.488c68.231,30.157,69.811,59.489,69.843,60.718
				c-0.006,0.377-0.702,33.492-29.754,38.334C412.601,202.152,408.604,202.529,403.164,202.529z M366.221,103.627
				c-9.756,0-19.57,7.39-19.667,7.462c-13.5,16.112-19.804,50.306,8.976,75.354c13.889,12.089,35.805,13.896,47.634,13.896
				c5.245,0,9.17-0.37,10.152-0.533c27.259-4.543,27.922-35.832,27.922-36.15c0-0.026-0.351-7.279-8.904-18.088
				c-7.929-10.022-24.711-25.212-59.626-40.647C370.757,104.062,368.573,103.627,366.221,103.627z M460.749,196.134l-0.682-1.222
				c-0.332-0.579-0.306-0.617,0.852-2.431c12.758-20.031,13.727-24.614,13.59-25.641c-4.458-0.585-11.66-3.152-12.395-5.492
				l-0.552-1.768l1.813,0.357c2.567,0.514,4.965,0.773,7.117,0.773c3.113,0,4.998-0.546,5.85-0.871
				c-0.059-3.49-0.553-19.187-4.608-28.208c-3.964-8.839-7.591-13.168-13.083-19.732c-0.942-1.131-1.943-2.32-3.009-3.62
				c-7.338-8.911-17.548-31.25-17.984-32.198l-1.021-2.243l2.353,0.741c20.337,6.415,37.678,23.781,45.185,37.196
				c3.133,5.596,5.265,14.332-2.373,24.159c-0.006,0.006-0.006,0.006-0.006,0.013c0.104,0.26,0.286,0.741,0.5,1.332
				c0.826,2.216,2.067,5.577,2.522,7.825c3.275,15.937-4.732,33.551-22.534,49.61L460.749,196.134z M467.917,162.805
				c1.963,0.806,4.491,1.573,7.039,1.878c0.676,0.084,1.208,0.455,1.495,1.066c0.728,1.527,0.156,5.453-9.69,21.52
				c13.012-13.851,18.634-28.455,15.911-41.72c-0.429-2.086-1.683-5.479-2.437-7.507c-0.65-1.762-0.735-2.002-0.735-2.308
				c0-0.416,0.175-0.644,0.565-1.144c6.903-8.878,5.004-16.724,2.197-21.747c-7.214-12.889-23.567-28.786-41.525-35.351
				c2.86,6.057,10.802,22.358,16.593,29.396c1.065,1.287,2.061,2.477,3.003,3.601c5.608,6.701,9.313,11.134,13.401,20.246
				c4.751,10.568,4.81,29.02,4.81,29.8v0.611l-0.526,0.325c-0.091,0.058-2.398,1.436-7.526,1.436
				C469.666,162.909,468.802,162.876,467.917,162.805z"/>
		</g>
	</g>
	<g>
		<g>
			<path fill="#FFFFFF" stroke="#000000" stroke-width="2" stroke-miterlimit="10" d="M353.3,463.924
				c56.662,52.328,136.085,82.263,210.621,51.535c66.405-27.389,121.364-85.942,198.955-62.024
				c34.785,10.717,60.12,38.912,74.978,71.116c17.126,37.119,13.941,76.129-4.289,111.791
				c-17.315,33.855-39.465,64.201-54.141,99.553c-15.111,36.441-21.553,75.991-15.846,115.17
				c4.959,34.142,16.833,66.567,29.267,98.609c5.083,13.077,26.382,7.403,21.228-5.862c-15.319-39.465-30.313-79.931-30.71-122.788
				c-0.396-43.286,17.347-85.097,38.652-121.91c17.249-29.8,37.769-57.955,46.191-91.883c8.858-35.753-0.267-73.625-17.159-105.531
				c-32.88-62.096-105.596-89.575-172.014-69.538c-33.688,10.159-63.155,30.807-93.424,48.024
				c-34.271,19.505-68.9,30.424-108.527,24.25c-41.09-6.389-78.039-28.201-108.21-56.071
				C358.46,438.746,342.855,454.279,353.3,463.924L353.3,463.924z"/>
			<path stroke="#000000" stroke-width="2" stroke-miterlimit="10" d="M803.836,957.356c-5.2,0-9.398-2.834-11.244-7.585
				c-12.597-32.451-24.309-64.416-29.287-98.668c-5.434-37.307,0.052-77.182,15.865-115.313
				c8.833-21.286,20.577-41.096,31.938-60.25c7.526-12.706,15.319-25.842,22.208-39.321c19.174-37.502,20.656-76.076,4.29-111.551
				c-16.619-36.026-43.188-61.231-74.809-70.974c-12.231-3.77-24.101-5.603-36.293-5.603c-39.27,0-72.651,19.141-107.995,39.406
				c-17.529,10.055-35.656,20.447-54.484,28.214c-19.967,8.235-41.064,12.407-62.707,12.407c-26.147,0-52.763-5.992-79.125-17.809
				c-24.594-11.029-47.836-26.562-69.083-46.185c-3.36-3.106-4.394-7.188-2.821-11.205c1.781-4.55,6.506-7.858,11.238-7.858
				c2.729,0,5.336,1.073,7.532,3.1c33.375,30.833,70.747,50.202,108.061,55.999c7.344,1.145,14.74,1.723,21.987,1.723
				c27.824,0,55.271-8.241,86.364-25.939c6.994-3.971,14.065-8.208,20.909-12.303c22.924-13.727,46.634-27.921,72.573-35.741
				c14.24-4.303,28.975-6.479,43.787-6.479c54.42,0,103.679,29.183,128.546,76.147c19.056,35.994,25.159,73.541,17.185,105.727
				c-6.623,26.681-20.955,50.183-34.805,72.911c-3.796,6.22-7.715,12.647-11.413,19.043c-26.323,45.477-38.951,85.306-38.62,121.773
				c0.384,41.324,14.13,80.016,30.69,122.69c1.632,4.192,0.533,7.176-0.676,8.943C811.667,955.557,807.904,957.356,803.836,957.356z
				 M726.505,447.546c12.245,0,24.171,1.839,36.449,5.628c31.775,9.788,58.462,35.097,75.146,71.26
				c16.443,35.636,14.955,74.373-4.29,112.03c-6.908,13.5-14.695,26.642-22.234,39.354c-11.348,19.142-23.08,38.933-31.899,60.179
				c-15.774,38.041-21.247,77.818-15.826,115.027c4.966,34.193,16.671,66.125,29.247,98.551c1.762,4.524,5.778,7.228,10.738,7.228
				c3.893,0,7.48-1.702,9.358-4.452c1.632-2.379,1.847-5.297,0.624-8.442c-16.586-42.728-30.346-81.464-30.729-122.886
				c-0.338-36.559,12.316-76.485,38.685-122.046c3.712-6.402,7.631-12.837,11.42-19.057c13.838-22.689,28.143-46.159,34.746-72.755
				c7.942-32.056,1.859-69.467-17.133-105.337c-24.775-46.789-73.847-75.855-128.064-75.855c-14.761,0-29.437,2.171-43.631,6.448
				c-25.868,7.806-49.553,21.981-72.45,35.688c-6.844,4.101-13.922,8.332-20.915,12.316c-31.185,17.743-58.709,26.011-86.638,26.011
				c-7.279,0-14.702-0.585-22.065-1.729c-37.431-5.824-74.9-25.238-108.359-56.143c-2.093-1.931-4.562-2.958-7.155-2.958
				c-4.518,0-9.028,3.159-10.731,7.513c-1.482,3.79-0.5,7.657,2.691,10.601c21.201,19.577,44.391,35.084,68.933,46.088
				c26.284,11.783,52.828,17.757,78.897,17.757c21.571,0,42.598-4.16,62.498-12.362c18.797-7.754,36.904-18.14,54.42-28.182
				C653.646,466.719,687.092,447.546,726.505,447.546z"/>
		</g>
	</g>
	<g>
		<path fill="#FFFFFF" stroke="#000000" stroke-width="2" stroke-miterlimit="10" d="M231.52,557.179
			c0.084,2.697-0.059,4.815-1.079,7.403l2.32-1.977c0,0,1.911-2.658-2.1-13.024C231.52,552.492,231.474,555.697,231.52,557.179z"/>
		<path fill="#FFFFFF" stroke="#000000" stroke-width="2" stroke-miterlimit="10" d="M317.773,664.18
			c4.31-7.683,6.922-9.021,6.922-9.021v-27.525c0,0-2.209,2.964-5.427,5.791C321.225,645.422,319.249,654.515,317.773,664.18z"/>
		<path fill="#FFFFFF" stroke="#000000" stroke-width="2" stroke-miterlimit="10" d="M196.942,626.769
			c8.716-7.657,16.71-14.825,20.142-23.249C212.216,608.551,203.981,619.632,196.942,626.769z"/>
		<path fill="#FFFFFF" stroke="#000000" stroke-width="2" stroke-miterlimit="10" d="M507.33,199.059c8.638,0,8.638,0,8.638,0
			s40.102-17.295,25.159-59.75c-14.941-42.455-81.756-78.624-92.767-83.349c-11.01-4.712-58.176-24.366-82.556,0l-14.149,31.458
			l-9.438-3.932c0,0-15.722,10.217-15.722,20.435c0,10.23,0,15.722,0,15.722l8.644,2.366c0,0-6.298,5.797-7.598,14.494
			c-3.425,23.047-25.673,55.109-29.234,61.627c2.275-1.195,4.433-2.066,6.181-2.268c7.332-0.838,39.835,43.813,39.835,43.813
			l-9.444,4.198c0,0-5.095-4.829-8.566-7.955l0,0l-4.979,18.998c0,0-17.315,35.961-15.339,29.306
			c1.411-4.803,8.768-23.651,12.758-33.797c-1.176,0.988-4.082,2.216-6.564,4.296c-7.942,6.662-16.054,29.501-16.054,29.501
			s1.443-18.445,12.213-30.593c5.446-6.148,6.701-17.964,8.586-20.805c-1.456-0.253-21.124-11.939-27.675-17.756
			c-11.972,22.781-25.66,49.837-25.66,49.837l23.801-51.482c-2.509-2.229-4.348-3.861-4.933-4.146c0,0,4.946-4.218,10.516-7.942
			c-1.254,2.255,19.206-32.192,21.54-39.179c1.229-3.711,2.151-12.472-1.125-21.792c-3.289-9.327-7.864-15.319-7.864-15.319
			c4.439-0.345,8.118-0.091,11.173,0.475c-6.955-3.933-15.449-7.644-19.297-5.083c-7.078,4.712-4.726,13.37-4.726,13.37
			s-37.157-11.01-44.521-9.437c-3.068,0.656-5.505,0.747-7.357,0.656c0.286,0.708,1.15,5.804-0.059,10.711
			c-1.793,7.351-14.195,13.285-14.195,13.285s-1.904-1.612-0.448-9.99c2.431-14.045-3.328-19.316-3.328-19.316
			s-7.987-4.654-9.996-4.654c-2.002,0-9.32,13.317-9.32,13.317l-6.954,7.357c0,0-3.035-6.025-3.666-10.854
			c-0.63-4.823-1.364-3.834-6.031-6.5c-4.66-2.671-3.997-12.654-3.997-12.654c3.334-0.669,13.694,8.001,13.694,8.001v-8.67
			c0,0-5.03-5.317-11.029-7.988c-4.596-2.034-15.001,8.826-19.069,13.103c0,0-0.039-0.676,1.205-1.988
			c3.455-7.514,10.539-16.431,10.539-16.431s-2.665-1.339-5.992-2.932c-2.909-1.404-14.166,11.017-19.872,12.687
			c-0.602,0.169,0,0,0,0s-0.494,0.41,0,0c2.749-2.378,12.085-10.802,13.298-16.827c0.149-0.734,0.179-1.333,0.156-1.859
			c-1.677-0.786-1.898-2.45-6.874-0.175c-5.417,4.036-16.45,14.208-12.68,10.438c0.309-0.312,0.595-0.644,0.861-0.988
			c3.717-4.796,3.129-12.336,3.129-12.336c-0.195-2.782-2.356-3.295-3.773-3.594c-0.006,0-0.312-0.357,0.202-0.565
			c1.384-0.364,4.55,0.149,5.999,0.825c-1.115-1.092-1.732-1.157-4.608-1.664c0,0-3.116-3.861-8.621-2.288
			c0,0-15.723,16.515-6.292,23.586c0,0,1.573,11.01,14.153,11.79c0,0-7.075,3.933-3.929,8.651
			c3.143,4.712,20.438,12.576,23.587,21.227c3.146,8.645,6.288,16.509,11.003,26.732c4.718,10.217,14.156,11.017,26.732,18.875
			c12.583,7.865,17.295,10.217,17.295,10.217s9.437,14.942,34.59,23.586c0,0,12.953,3.374,9.437,8.651
			c-4.712,7.071-24.367,18.861-29.872,37.729c-5.505,18.874-8.651,36.949-8.651,36.949s-13.37,3.945-14.149,14.162
			c-0.423,5.563-1.086,10.887-1.605,14.585c-0.429,3.1-0.754,5.069-0.754,5.069l-3.933,11.79c0,0-3.146,7.864-9.437,13.37
			c-3.029,2.652-15.169,17.237-27.909,35.741l5.378-2.977c0,0,7.393,11.023,15.225,20.675c6.922,8.514,29.852,18.953,29.852,18.953
			s-15.208-1.365-26.732-10.803c-9.366-7.669-21.835-18.438-26.196-22.215c-12.911,19.167-25.881,41.798-30.158,59.691
			c-6.941,29.091-6.941,29.091-6.941,29.091s4.585,23.58,9.304,37.729c4.718,14.163,15.722,35.39,22.014,44.82
			c6.288,9.438,9.437,14.93,9.437,14.93l-15.836-8.378c0,0-18.36,22.793-24.918,50.832c-5.632,24.08,2.005,35.377,20.155,35.045
			c14.809-0.279,18.923-5.485,32.39-22.455c1.632-2.061,3.686-3.737,5.597-5.519c3.971-5.667,14.331-20.226,21.402-28.552
			c6.76-7.949,9.093-19.512,9.827-24.64c-0.137-4.699-0.656-6.552-0.656-6.552l4.023-3.549c-5.635,3.471-11.627,5.389-11.627,5.389
			c8.917-2.619,15.43-16.905,16.385-19.512c-5.414,7.201-12.563,11.121-12.563,11.121c10.783-9.964,7.715-25.687,7.715-25.687
			c-8.93,13.733-11.329,16.21-15.722,18.342c0,0,16.32-16.262,9.684-28.818c-1.306-2.496-7.942-0.786-9.684,0
			c0,0,2.061-3.074,7.208-2.736c8.156-7.13,5.895-13.519,5.895-13.519c0.273,0.148,5.355,2.255,5.616,2.417
			c-2.593-1.716-6.148-4.771-6.148-4.771l-0.78-7.864c0,0,3.932-3.14,7.864-7.857c3.926-4.712,12.57-15.723,14.936-19.654
			c2.359-3.933,8.645-12.583,8.645-12.583s-2.353,14.936,7.078,19.661c9.437,4.712,14.149,7.071,14.149,7.071
			s-14.39-0.884-19.895-4.816c0,0-7.299,35.26-6.506,39.972c0.787,4.712,11.459,14.377,11.459,14.377l-14.143-7.078
			c0,0-3.932,14.155-3.932,18.868c0,4.725,2.353,20.447,3.932,25.952c1.573,5.492,2.099,27.492,10.217,37.729
			c0,0,14.155,19.654,24.373,25.159c0,0-11.79-0.78-19.654-6.285c0,0,6.291,12.583-0.793,25.159
			c-7.065,12.583-13.525,29.293-8.378,46.484c5.427,18.114,14.422,17.197,14.422,17.197s24.529,6.389,41.376-21.422
			c4.53-10.094,1.599-40.42,1.599-40.42s3.094,0.526,8.332-6.292c4.53-5.895,3.406-17.087,3.601-21.857
			c-4.153,3.634-9.496,7.357-12.993,8.229c0,0,20.337-14.396,22.631-25.134c-0.357,1.6-4.79,6.987-7.149,8.047
			c0,0,5.875-13.578-2.366-24.848c0,0,6.805,5.765,7.864,11.79c0.006,0.117,0.02,0.182,0.045,0.286
			c0.104-3.595,0.364-12.805,0.41-19.408c0.059-8.391,2.678-22.825,2.678-22.825s1.268,3.724,1.476,8.741
			c2.482-9.235,5.407-17.503,6.648-19.992c1.58-3.139,31.451-29.092,29.885-48.746c-1.573-19.654,5.492-39.302,7.071-41.674
			c1.573-2.354,11.01-12.57,11.01-12.57l7.812-21.604c-2.047,1.788-3.698,2.997-3.698,2.997s-9.359-8.391-9.359-10.484
			c0-2.099,5.771-11.536,5.245-13.109c-0.52-1.566,2.62-12.043,3.926-13.623c1.3-1.573-4.445-5.239-9.684-11.01
			c-4.036-4.433-7.988-17.834-9.6-23.801c-0.312-0.975-0.585-1.95-0.76-2.932c0,0,0.279,1.15,0.76,2.932
			c3.783,11.875,16.398,23.801,16.398,23.801l2.886-4.192c0,0-9.17-15.722-16.502-24.633c-7.344-8.917-15.202-37.742-15.202-37.742
			s-1.579-3.666,6.019-8.378c7.611-4.719,14.422-33.03,14.422-42.467c0-9.424-11.01-11.523-11.01-11.523s-3.666-1.573,0.533-2.093
			c4.179-0.527,6.812-5.771,6.812-5.771s-2.1-4.712-9.431-4.712c-7.345,0-15.735-13.109-15.735-13.109s7.838-4.205,15.202-3.139
			c6.239,0.897,13.629,7.865,13.629,16.769c0,8.917,1.58,3.146,5.245,11.53c3.666,8.384,0.514,19.927,0.514,19.927
			s-20.961,41.921-20.961,43.501c0,1.573,9.438,17.295,13.63,25.686c4.198,8.378,8.91,12.57,19.654,20.435
			c3.191,2.333,6.909,0.825,10.574-2.45c4.868-7.41,16.951-25.329,16.951-25.329s-8.3,17.607-16.951,25.329
			c-0.955,1.462-1.67,2.541-1.924,2.977c-1.573,2.619,0.52,8.911-4.719,16.242c-5.245,7.344-3.932,7.871-3.932,7.871
			c12.849-5.771,19.134-25.686,21.227-28.838c2.106-3.146,9.963-15.189,13.103-21.487c3.146-6.285,4.725-5.245,4.725-5.245
			l7.858,7.344c0,0-3.666,6.292-6.298,11.01c-2.62,4.712-11.53,2.093-11.53,2.093c-7.332,22.541-24.25,37.216-24.25,37.216
			s-6.675,9.95-7.195,11.53c-0.468,1.423,1.222,6.285,5.037,11.465c1.229-1.41,32.354-37.43,40.823-64.403h8.65
			c0,0,19.654,19.654,51.099,7.857c0,0,19.654-10.217,18.088-34.59c-0.064-0.942-0.11-1.794-0.155-2.587
			c-1.138,0.137-3.854,0.91-8.762,4.687c-6.812,5.245-15.722,11.53-15.722,11.53s3.679-5.771,2.619-7.864
			c-1.04-2.099,0-4.192-8.826-7.344c-3.146-1.111-7.045,0.039-10.763,1.982c-0.013,0-0.591,0.422-1.488,1.092
			c-3.386,2.515-8.202,3.815-12.583,6.812c9.71-17.711,32.472-14.149,32.472-14.149s-4.05-5.161-7.384-6.214
			c-12.973-4.068-32.822,11.537-32.822,11.537s7.617-10.217,17.815-14.676c8.403-3.679,13.103-1.573,14.753-2.619
			c1.644-1.06-5.317-6.818-5.317-6.818s-4.796,0.773-12.576,2.093c-9.587,1.618-25.686,12.057-25.686,12.057
			s11.159-10.484,21.857-13.506c5.395-1.515,5.251-3.471,14.461-7.988c0,0-10.113-3.666-17.288-4.192
			c-7.169-0.52-19.03,11.01-19.03,11.01s2.288-4.699,7.526-9.411c5.245-4.712,7.149-6.312,9.359-7.357
			c2.216-1.047,3.029-1.573,0.929-5.771c-2.093-4.192,0-6.285,0-6.285l-1.826-9.964c-20.714,1.06-34.856,22.021-34.856,22.021
			c13.097-25.16,34.856-28.306,34.856-28.306l-3.412-5.245c-35.643,5.245-55.558,39.309-55.558,39.309
			c37.21-65.508,72.333-42.455,72.333-42.455s-1.573,14.156,8.118,18.868c9.697,4.725,19.134,20.447,19.134,20.447
			c-8.703-2.392-19.297,0.175-19.297,0.175s20.389,1.242,25.595,9.333c5.434,8.423,6.116,16.054,7.137,23.398
			c0.182-1.358,4.771-4.452,5.238-3.107c-1.813-6.948-4.472-15.917-7.149-20.363c-4.712-7.864-27.512-32.237-28.292-45.606
			c-0.669-11.192-3.542-25.101-9.067-32.121c1.619,5.369,1.411,11.134,1.411,11.134l-19.973-12.453c0,0-8.664,1.742-20.655,3.744
			c-11.985,2.001-34.532,31.308-34.532,31.308c5.421-11.335,27.883-37.294,27.883-37.294s0,0,9.71-1.332
			c9.697-1.333,18.25-5.999,28.247-4.004c1.001,0.208,1.872,0.598,2.678,1.092c1.573-0.754,4.068-0.949,4.068-0.949
			s10.23,2.353,14.163,0c3.926-2.359,0-18.094,0-18.094l9.431,14.163C495.534,208.496,498.673,199.059,507.33,199.059z
			 M225.865,412.644c-0.527-3.139-5.766-7.331-5.766-7.331s-4.725-7.345-9.963-18.354c-5.239-10.997-13.629-17.295-13.629-17.295
			c12.057,0.526,16.255,12.583,20.174,17.295c3.945,4.725-0.247,4.725,5.505,14.156c5.771,9.437,14.682,37.216,14.682,37.216
			S226.385,415.79,225.865,412.644z M232.521,288.576c15.644-27.928,41.044,0.897,41.044,0.897s-23.482-18.01-35.455,0.104
			c-5.603,8.482-0.787,19.687,7.591,23.353c8.391,3.666,19.115,1.118,23.665-7.202c2.717-4.959,4.199-11.413,4.199-11.413
			s-0.357,25.751-19.921,25.647C232.683,319.864,226.788,298.819,232.521,288.576z M252.98,396.395
			c-3.796-3.672,1.709-6.636,1.709-6.636h2.093h8.917c0,0,0,4.011,1.046,15.554c0.222,2.379,1.541,4.426,3.438,6.207
			c10.529,4.205,19.85,8.547,22.215,9.365c0.416,0.091,0.656,0.149,0.552,0.149c-0.084,0-0.286-0.071-0.552-0.149
			c-2.782-0.624-15.859-3.405-22.215-9.365c-2.164-0.865-4.367-1.729-6.584-2.542C249.451,403.739,256.783,400.067,252.98,396.395z
			 M341.691,493.36c0,0-12.569-2.093-28.292-5.245c-15.722-3.133-13.636-5.758-23.066-12.57c-9.438-6.818-21.494-9.437-21.494-9.437
			s22.02,3.152,26.732,7.331c4.726,4.199,16.782,2.619,35.123,8.391C349.036,487.602,341.691,493.36,341.691,493.36z M331.5,429.744
			c1.709,0.643,2.997,1.267,3.379,1.768C335.472,432.305,333.685,431.596,331.5,429.744c-5.486-2.093-15.482-4.518-15.482-4.518
			l-10.483-4.192c6.818-7.344,20.961-8.391,20.961-8.391C323.233,420.469,327.887,426.676,331.5,429.744z M371.576,386.958v5.732
			c0,0-15.209,5.277-29.358,8.943c-14.143,3.679-24.626,3.679-24.626,3.679s-23.066-27.779-53.991-30.931
			c0,0,8.385-1.046,18.868,2.093c10.483,3.152,27.778,7.344,37.216,9.963c9.438,2.619,11.01,7.864,24.64,5.771
			C357.94,390.104,371.576,386.958,371.576,386.958z M409.832,323.536l-10.478,11.784c0,0-0.52-4.199-6.291-14.806
			c-5.765-10.607-5.765-10.607-5.765-10.607l1.306-4.179c2.359,1.56,2.359,6.812,10.75,9.431
			C407.739,317.771,409.832,323.536,409.832,323.536z M413.498,200.885c-3.132,0.533-38.899,3.607-58.69-13.616
			c-19.147-16.665-30.931-50.845-8.917-77.051c0,0,15.234-11.608,27.258-6.298c68.381,30.229,69.187,59.749,69.187,59.749
			S441.979,196.141,413.498,200.885z M463.16,161.018c10.185,2.034,14.286-0.481,14.286-0.481s0-18.874-4.712-29.352
			c-4.712-10.496-8.904-14.682-16.248-23.599c-7.332-8.904-17.828-31.958-17.828-31.958c19.921,6.285,37.229,23.58,44.56,36.683
			c7.332,13.103-2.62,23.066-2.62,23.424c0,0.364,2.483,6.344,3.146,9.593c5.193,25.296-20.044,46.562-22.722,49.051
			c-0.299,0.279,18.543-28.052,13.805-28.604C469.725,165.164,463.621,162.486,463.16,161.018"/>
	</g>
</g>
</svg>
