<?xml version="1.0" encoding="utf-8"?>
<!-- Generator: Adobe Illustrator 16.0.0, SVG Export Plug-In . SVG Version: 6.00 Build 0)  -->
<!DOCTYPE svg PUBLIC "-//W3C//DTD SVG 1.1//EN" "http://www.w3.org/Graphics/SVG/1.1/DTD/svg11.dtd">
<svg version="1.1" id="Layer_1" xmlns="http://www.w3.org/2000/svg" xmlns:xlink="http://www.w3.org/1999/xlink" x="0px" y="0px"
	 width="1000px" height="1000px" viewBox="0 0 1000 1000" enable-background="new 0 0 1000 1000" xml:space="preserve">
<g>
	<g>
		<g>
			<path fill="#010101" d="M74.291,945.314c-0.252,0.545-0.263,0.557-0.263,0.557s13.408-1.028,23.656-3.528
				c1.166-0.284,2.08-0.494,2.825-0.682c1.249-0.105,15.614-1.281,23.868-5.282c6.143-2.983,10.606-5.492,13.924-7.172
				c1.48-0.316,3.023-0.673,4.703-1.05c1.324-0.306,2.626-0.673,3.906-1.093c7.392-0.703,20.896-3.653,33.812-24.739
				c0,0,11.215-14.009,31.334-24.425c20.099-10.416,55.327-34.987,67.959-59.381c12.622-24.393,28.268-34.474,32.604-38.705
				c2.11-2.068,15.636-18.629,31.134-41.635c11.688-0.399,59.035-4.883,97.677-50.718c1.628-1.932,3.193-3.812,4.727-5.66
				c3.633-3.665,7.161-7.56,10.511-11.75c27.722-34.652,39.031-53.049,46.392-64.012c0.642-0.588,1.281-1.176,1.953-1.753
				c14.045-12.086,37.115-39.178,43.037-54.404c0.042,0.189,0.074,0.336,0.074,0.399c0,1.312,6.095-7.403,6.095-7.403
				s18.734-20.905,25.265-22.649c6.531-1.743,48.775-33.528,55.742-40.937c6.883-7.313,12.905-15.498,14.312-35.423
				c-0.068,0.667-0.241,1.764-0.593,3.045c0.109-1.354,0.161-2.588,0.156-3.696c0.311-0.042,0.494-0.073,0.494-0.073
				c9.152-9.141,48.346-65.325,51.826-73.599c3.486-8.275,12.632-19.164,12.632-19.164c6.909-7.466,11.767-14.318,15.194-20.534
				c3.738-5.266,6.841-11.493,7.449-18.224c1.744-19.164,6.533-35.702,10.455-43.546c1.055-2.105,3.596-6.562,6.987-12.469
				c15.646-23.185,55.359-87.895,69.226-105.987c10.097-13.183,27.16-20.744,46.938-26.178c5.682-1.392,11.414-2.762,16.953-4.101
				c5.791-1.25,11.703-2.41,17.646-3.549c34.49-6.615,26.451-25.322,26.451-25.322c-18.649-30.966-49.123-28.998-58.5-27.543
				c-0.142-0.011-0.283-0.027-0.431-0.037c0,0-0.151,0.073-0.446,0.173c-1.25,0.22-1.957,0.399-1.957,0.399
				c0.062,0.005,0.125,0.016,0.188,0.026c-2.81,0.467-8.589,0.682-18.97-1.843c-16.112-3.916-27.442-3.481-35.711,2.615
				c0,0-5.666,0.872-10.019-1.743c-4.353-2.615-32.662-19.594-39.629,6.101c-6.972,25.69-10.453,42.244-22.214,57.921
				c-11.756,15.677-26.567,35.713-46.161,50.088c-19.599,14.365-32.662,37.009-41.372,72.291
				c-8.716,35.271-14.37,45.294-29.612,59.659c-15.247,14.371-33.539,31.791-33.539,31.791s-7.183-9.577-10.884-3.912
				c-0.257,0.384-0.902,1.024-1.743,1.78c-0.714,0.462-1.433,0.992-2.179,1.696c-0.352,0.337-0.688,0.667-1.029,1.014
				c-2.888,2.341-5.938,4.646-5.938,4.646s-15.242,16.549-29.617,24.829c-14.37,8.269-32.662,21.768-32.662,21.768
				s-25.579,5.89-32.3,30.824c-2.836,6.038-4.767,13.115-5.156,21.442c-0.02,0.503-0.041,0.976-0.073,1.459
				c-3.57,16.68-5.712,29.591-3.843,32.074c0.347,0.467,1.134,0.682,2.311,0.845c-0.126,2.625-0.126,2.636-0.126,2.636
				s-16.559,35.713-54.445,52.702c-37.887,16.98-81.002,46.591-97.991,78.818c-16.979,32.235-21.768,40.94-31.785,52.69
				c-10.017,11.771-10.017,19.164-12.19,19.615c0,0-0.348,4.642,0.271,11.215c-1.521-0.567-2.594-0.756-2.594-0.756
				s-6.551,2.099-14.28-0.684c-7.717-2.782-14.133-2.257-18.438-1.564c-4.305,0.693-6.07,2.668-6.07,2.668
				c-8.421-0.715-13.84,6.783-15.414,6.646c-1.586-0.126-7.057,1.28-10.627,3.959c-3.559,2.688-5.858,4.504-7.569,4.043
				c-1.713-0.463-7.203,9.209-8.495,12.547c-1.303,3.35-7.876,5.167-11.678,9.557c-3.822,4.379,1.701,7.78,6.195,11.203
				c4.494,3.433,0.189,10.112,0.189,10.112s-6.826,1.869-9.084,6.688c-2.259,4.821,0.692,7.972,0.692,7.972
				s-3.979,6.049-3.213,9.766c0.746,3.717,4.893,4.725,8.578,4.684c3.697-0.043,7.204,8.273,7.204,8.273
				c0.608,4.159,11.024,14.848,11.024,14.848l-1.195,7.855c0,0,1.604-0.631,3.99-1.156c-8.748,10.994-17.233,23.333-22.851,32.279
				c-10.711,17.127-30.336,30.641-37.276,38.475c-6.951,7.833-30.955,18.397-34.536,22.021c-3.581,3.611-6.92,8.811-6.92,8.811
				s-2.962,4.388-8.862,8.861c-5.891,4.483-21.59,12.601-23.186,17.158C68.242,943.445,70.973,944.957,74.291,945.314z
				 M558.892,360.521c2.096-2,4.085-3.911,5.823-5.586C563.02,356.72,561.104,358.579,558.892,360.521z M470.361,468.094
				c-0.072,1.664-0.137,3.129-0.199,4.41c-0.294-0.094-0.42-0.173-0.42-0.173S469.91,470.735,470.361,468.094z"/>
			<path fill="#010101" d="M782.477,54.603c9.838,0,20.496,6.395,23.031,7.918c2.608,1.57,5.695,1.885,7.743,1.885
				c1.364,0,2.272-0.142,2.272-0.142c4.773-3.517,10.564-5.15,17.699-5.15c5.235,0,11.199,0.877,18.015,2.536
				c6.81,1.659,11.646,2.132,14.952,2.132c1.734,0,3.052-0.126,4.018-0.289c-0.062-0.01-0.126-0.021-0.189-0.026
				c0,0,0.709-0.178,1.959-0.399c0.293-0.1,0.445-0.173,0.445-0.173c0.147,0.011,0.289,0.026,0.432,0.037
				c2.104-0.325,5.271-0.677,9.129-0.677c13.33,0,34.904,4.205,49.369,28.22c0,0,8.037,18.706-26.451,25.322
				c-5.943,1.139-11.854,2.299-17.646,3.549c-5.539,1.339-11.271,2.71-16.953,4.101c-19.777,5.434-36.842,12.994-46.938,26.178
				c-13.866,18.092-53.579,82.802-69.225,105.987c-3.393,5.907-5.934,10.364-6.988,12.469c-3.922,7.844-8.711,24.382-10.454,43.546
				c-0.609,6.731-3.712,12.958-7.45,18.224c-3.428,6.217-8.284,13.068-15.193,20.534c0,0-9.146,10.89-12.633,19.164
				c-3.48,8.275-42.675,64.458-51.826,73.6c0,0-0.184,0.03-0.493,0.072c0.006,1.108-0.048,2.343-0.157,3.696
				c0.351-1.281,0.524-2.378,0.593-3.045c-1.407,19.924-7.429,28.11-14.312,35.423c-6.968,7.409-49.211,39.194-55.742,40.938
				c-6.532,1.742-25.266,22.648-25.266,22.648s-5.271,7.54-6.011,7.54c-0.053,0-0.084-0.042-0.084-0.137
				c0-0.063-0.032-0.21-0.074-0.399c-5.923,15.227-28.993,42.318-43.037,54.404c-0.672,0.577-1.312,1.165-1.952,1.753
				c-7.362,10.963-18.671,29.361-46.393,64.012c-3.35,4.19-6.878,8.085-10.511,11.75c-1.534,1.849-3.099,3.728-4.727,5.66
				c-38.642,45.835-85.988,50.319-97.677,50.718c-15.498,23.007-29.023,39.567-31.134,41.636
				c-4.336,4.23-19.982,14.312-32.604,38.705c-12.632,24.393-47.86,48.964-67.959,59.381
				c-20.118,10.416-31.334,24.424-31.334,24.424c-12.916,21.086-26.419,24.036-33.812,24.74c-1.28,0.42-2.582,0.787-3.906,1.092
				c-1.68,0.377-3.223,0.735-4.703,1.05c-3.318,1.68-7.78,4.19-13.924,7.172c-8.254,4.001-22.619,5.177-23.868,5.282
				c-0.744,0.188-1.658,0.399-2.824,0.682c-10.248,2.5-23.657,3.528-23.657,3.528s0.011-0.011,0.263-0.556
				c-3.319-0.357-6.049-1.869-5.104-4.537c1.596-4.557,17.295-12.674,23.186-17.158c5.9-4.472,8.862-8.861,8.862-8.861
				s3.339-5.2,6.92-8.811c3.581-3.624,27.585-14.188,34.536-22.021c6.94-7.834,26.565-21.348,37.276-38.475
				c5.618-8.946,14.103-21.285,22.851-32.279c-2.386,0.525-3.99,1.156-3.99,1.156l1.196-7.855c0,0-10.417-10.689-11.025-14.848
				c0,0-3.486-8.272-7.172-8.272c-0.011,0-0.011,0-0.032,0c-0.062,0-0.125,0-0.188,0c-3.634,0-7.656-1.03-8.391-4.685
				c-0.766-3.717,3.213-9.766,3.213-9.766s-2.95-3.151-0.692-7.972c2.258-4.818,9.084-6.688,9.084-6.688s4.305-6.678-0.189-10.112
				c-4.494-3.423-10.017-6.824-6.194-11.203c3.801-4.39,10.375-6.207,11.677-9.557c1.26-3.254,6.53-12.559,8.368-12.559
				c0.053,0,0.084,0,0.127,0.012c0.178,0.051,0.367,0.072,0.557,0.072c1.659,0,3.823-1.711,7.014-4.115
				c3.424-2.563,8.59-3.97,10.406-3.97c0.075,0,0.159,0,0.221,0.011c0.011,0,0.021,0,0.042,0c1.554,0,6.531-6.689,14.239-6.689
				c0.367,0,0.756,0.022,1.133,0.043c0,0,1.765-1.975,6.07-2.668c1.806-0.294,3.98-0.557,6.468-0.557
				c3.445,0,7.488,0.504,11.972,2.121c3.087,1.103,5.964,1.438,8.337,1.438c3.569,0,5.942-0.756,5.942-0.756
				s1.073,0.189,2.594,0.756c-0.618-6.573-0.271-11.215-0.271-11.215c2.173-0.451,2.173-7.844,12.191-19.615
				c10.016-11.75,14.806-20.454,31.784-52.69c16.989-32.227,60.104-61.838,97.991-78.818c37.886-16.99,54.445-52.702,54.445-52.702
				s0-0.011,0.126-2.636c-1.176-0.163-1.964-0.378-2.311-0.845c-1.868-2.483,0.273-15.395,3.844-32.074
				c0.031-0.481,0.052-0.955,0.072-1.459c0.389-8.327,2.32-15.404,5.156-21.442c6.721-24.933,32.3-30.824,32.3-30.824
				s18.292-13.499,32.662-21.768c14.375-8.28,29.617-24.829,29.617-24.829s3.05-2.305,5.938-4.646
				c0.341-0.347,0.677-0.678,1.028-1.014c0.745-0.704,1.465-1.234,2.18-1.696c0.84-0.756,1.485-1.397,1.742-1.78
				c0.847-1.292,1.869-1.791,2.951-1.791c3.654-0.005,7.934,5.702,7.934,5.702s18.292-17.421,33.539-31.791
				c15.241-14.365,20.896-24.388,29.611-59.659c8.71-35.282,21.773-57.926,41.372-72.291c19.595-14.376,34.406-34.411,46.161-50.088
				c11.761-15.677,15.242-32.232,22.214-57.921C768.788,57.89,775.42,54.603,782.477,54.603 M558.892,360.521
				c2.212-1.942,4.128-3.801,5.823-5.586C562.977,356.61,560.987,358.521,558.892,360.521 M470.162,472.504
				c0.063-1.28,0.127-2.745,0.199-4.41c-0.451,2.642-0.619,4.237-0.619,4.237S469.868,472.41,470.162,472.504 M782.477,49.378
				c-10.832,0-18.514,6.348-21.646,17.874l-2.195,8.186c-5.597,20.975-9.298,34.83-19.153,47.972l-0.813,1.082
				c-11.466,15.3-25.736,34.337-44.254,47.925c-20.64,15.126-34.416,39.041-43.357,75.252
				c-8.567,34.663-13.977,43.777-28.126,57.113c-11.01,10.374-23.604,22.345-29.764,28.199c-2.189-1.854-5.03-3.539-8.122-3.539
				c-2.972,0-5.576,1.481-7.146,3.912c-0.173,0.199-0.44,0.451-0.761,0.745c-0.835,0.567-1.68,1.218-2.573,2.058l-0.902,0.888
				c-2.751,2.221-5.586,4.368-5.607,4.384l-0.378,0.284l-0.314,0.346c-0.147,0.157-14.886,16.065-28.379,23.836
				c-12.909,7.429-28.598,18.759-32.352,21.5c-5.392,1.528-28.083,9.325-34.919,33.817c-3.234,7.03-5.082,14.764-5.461,23.033
				l-0.041,0.998c-5.628,26.235-5.398,32.494-2.857,35.865c0.138,0.178,0.274,0.351,0.42,0.509
				c-4.346,7.979-20.526,34.3-50.611,47.793c-36.521,16.359-82.104,46.286-100.49,81.147c-16.613,31.564-21.368,40.29-31.134,51.747
				c-6.668,7.822-9.231,13.86-10.764,17.462c-0.127,0.284-0.231,0.546-0.337,0.788l-2.025,0.42l-0.306,3.928
				c0,0.146-0.168,2.488-0.072,6.164c-0.756,0.115-1.776,0.22-2.974,0.22c-2.267,0-4.472-0.377-6.562-1.123
				c-4.473-1.607-9.094-2.426-13.745-2.426c-2.373,0-4.683,0.188-7.287,0.608c-3.192,0.525-5.481,1.596-6.973,2.572
				c-6.835,0.22-11.781,4.148-14.491,6.279c-0.209,0.168-0.398,0.327-0.576,0.473c-3.182,0.357-8.558,2.058-12.402,4.945
				l-0.481,0.368c-1.281,0.965-2.824,2.131-3.654,2.604h-0.41c-6.961,0-13.155,15.656-13.125,15.656h0.011
				c-0.398,0.514-2.152,1.606-3.317,2.342c-2.342,1.449-5.251,3.254-7.561,5.9c-2.416,2.794-2.709,5.503-2.521,7.309
				c0.515,4.789,4.642,7.865,8.275,10.585l1.195,0.829c0.084,0.326-0.072,1.06-0.355,1.816c-2.94,1.218-7.812,3.854-10.081,8.694
				c-1.848,3.938-1.544,7.477-0.567,10.111c-1.47,2.867-3.107,7.109-2.342,10.869c1.082,5.376,5.828,8.652,12.969,8.861
				c0.798,0.776,2.1,2.836,2.951,4.715c1.207,4.41,6.426,10.638,10.469,14.953l-0.818,5.312l-0.546,3.665
				c-6.174,8.211-12.453,17.305-17.578,25.475c-6.846,10.962-17.662,20.434-26.356,28.036c-4.262,3.738-7.948,6.973-10.405,9.745
				c-3.622,4.095-14.123,9.838-21.788,14.039c-6.974,3.812-10.7,5.891-12.538,7.76c-3.928,3.97-7.456,9.45-7.52,9.545
				c-0.032,0.042-2.667,3.812-7.729,7.654c-1.702,1.303-4.558,3.077-7.562,4.957c-9.766,6.111-15.813,10.142-17.389,14.616
				c-0.84,2.374-0.588,4.81,0.693,6.847c0.566,0.894,1.323,1.68,2.227,2.331l-1.66,3.55l8.916-0.684
				c0.567-0.041,13.956-1.081,24.478-3.664l1.26-0.295l1.176-0.283c3.561-0.305,16.928-1.691,25.328-5.765
				c4.031-1.952,7.36-3.718,10.122-5.178c1.197-0.64,2.289-1.217,3.276-1.731c1.303-0.273,2.655-0.588,4.084-0.914
				c1.293-0.293,2.572-0.642,3.834-1.039c14.732-1.596,26.839-10.385,37.004-26.84c1.48-1.765,11.906-13.734,29.465-22.828
				c21.043-10.899,57.102-36.311,70.206-61.617c9.933-19.195,21.735-29.014,28.066-34.295c1.503-1.25,2.722-2.267,3.551-3.076
				c2.51-2.447,15.437-18.365,30.347-40.291c16.58-1.049,61.48-8.147,98.8-52.438c1.649-1.953,3.224-3.833,4.442-5.347
				c4.062-4.105,7.623-8.073,10.889-12.17c23.857-29.821,35.492-47.463,43.189-59.139c1.123-1.701,2.151-3.266,3.112-4.705
				c0.446-0.399,0.898-0.819,1.365-1.217c13.158-11.32,35.734-37.173,43.457-54.006c1.517-1.3,3.376-3.727,6.442-8.105
				c8.385-9.324,19.367-19.878,22.513-20.844c8.406-2.247,51.879-35.697,58.2-42.417c6.982-7.419,13.928-16.434,15.635-37.503
				c11.051-12.433,47.798-64.836,51.568-73.798c3.123-7.403,11.66-17.641,11.656-17.641l0,0
				c6.558-7.088,11.871-14.255,15.787-21.301c4.852-6.899,7.613-13.803,8.223-20.534c1.67-18.34,6.315-34.463,9.923-41.677
				c1.028-2.058,3.827-6.951,6.647-11.887c6.006-8.904,15.582-23.951,25.721-39.886c16.349-25.705,34.882-54.839,43.32-65.849
				c8.059-10.521,22.098-18.25,44.033-24.277l11.682-2.83l5.129-1.239c5.756-1.239,11.625-2.394,17.531-3.523
				c15.074-2.893,24.897-8.474,29.209-16.596c4.242-8.001,1.396-15.136,1.061-15.924l-0.143-0.325l-0.184-0.31
				c-16.118-26.755-40.652-30.751-53.848-30.751c-3.858,0-7.082,0.331-9.276,0.646l-1.149-0.158l-1.072,0.515
				c-1.117,0.21-1.742,0.373-1.742,0.373l-0.174,0.042c-0.646,0.069-1.432,0.116-2.377,0.116c-3.635,0-8.381-0.688-13.719-1.985
				c-7.431-1.806-13.726-2.683-19.248-2.683c-7.744,0-14.156,1.728-19.531,5.282c-0.137,0.005-0.284,0.005-0.441,0.005
				c-2.037,0-3.833-0.404-5.051-1.134C798.764,52.371,789.869,49.378,782.477,49.378L782.477,49.378z"/>
		</g>
		<g>
			<path fill="#010101" d="M649.597,443.145c-0.011,0.247-0.042,0.474-0.058,0.726C649.585,443.418,649.596,443.145,649.597,443.145
				z"/>
			<path fill="#231F20" d="M649.596,443.145L649.596,443.145L649.596,443.145 M649.596,443.145c0,0.006-0.011,0.278-0.058,0.726
				C649.554,443.617,649.585,443.392,649.596,443.145 M644.377,442.909l-0.053,0.635l10.412,0.872
				c0.067-0.667,0.084-1.072,0.084-1.082L644.377,442.909L644.377,442.909z"/>
		</g>
	</g>
	<path fill="#FFFFFF" d="M392.341,635.271c-2.593-1.679-15.256-7.485-40.942-0.565c-25.684,6.889-51.673,80.256-51.673,80.256
		c-8.957,5.953-27.059,29.748-31.7,36.721c-4.642,6.993-22.21,23.354-23.731,24.582c-1.511,1.217-5.271,5.239-18.816,13.881
		c-13.547,8.644-34.778,38.192-45.51,55.308c-10.711,17.127-30.336,30.641-37.276,38.475c-6.951,7.833-30.955,18.397-34.536,22.021
		c-3.581,3.611-6.92,8.811-6.92,8.811s-2.962,4.388-8.862,8.861c-5.891,4.483-21.59,12.601-23.187,17.158
		c-1.605,4.537,7.394,5.785,11.804,3.485c4.41-2.278,16.045-3.653,16.045-3.653s-1.681-3.634,1.533-1.207
		c3.191,2.426,8.054,2.258,14.921-2.259c6.856-4.536,13.462-5.334,29.517-8.987c16.045-3.655,28.709-15.573,34.422-24.93
		c5.733-9.356,19.3-23.25,44.963-36.396c25.685-13.146,44.522-32.278,45.615-34.651c1.092-2.383-5.094-6.982,4.451-16.232
		c81.148-78.734,108.439-146.988,108.439-146.988C386.956,657.85,394.926,636.934,392.341,635.271z"/>
	<path fill="#FFFFFF" d="M287.265,729.717C271.156,714.029,273.33,685.3,273.33,685.3c2.173-0.451,2.173-7.844,12.191-19.615
		c10.016-11.75,14.806-20.454,31.784-52.69c16.989-32.227,60.104-61.838,97.991-78.818c37.886-16.99,54.445-52.702,54.445-52.702
		s0,0,1.731-37.015c1.743-37.015,33.761-49.647,42.029-53.133c8.274-3.48,19.379-12.191,35.933-23.521
		c16.55-11.315,20.467-20.03,28.74-27.869c8.275-7.834,14.807,0.436,14.807,0.436s18.292-17.421,33.539-31.791
		c15.241-14.365,20.896-24.388,29.611-59.659c8.71-35.282,21.773-57.926,41.372-72.291c19.595-14.376,34.406-34.411,46.161-50.088
		c11.762-15.677,15.242-32.232,22.214-57.921c6.968-25.695,35.276-8.716,39.63-6.101c4.353,2.615,10.018,1.743,10.018,1.743
		c8.269-6.096,19.599-6.532,35.712-2.615c16.108,3.922,21.185,1.245,21.185,1.245c62.274,3.486,62.862,37.077,52.414,44.491
		c-10.453,7.398-54.871,14.801-81.878,23.511c-26.997,8.715-42.239,34.405-54.871,61.843c-12.633,27.438-37.02,67.497-40.937,75.341
		c-3.922,7.844-8.711,24.382-10.454,43.546s-23.517,34.411-23.517,34.411s-3.922,7.397-14.811,26.566
		c-10.884,19.158-50.954,61.838-50.954,61.838s4.578,6.53-1.302,26.775c-2.735,9.445-79.264,60.106-84.923,62.719
		c-5.659,2.615-36.148,60.746-47.032,69.021c-10.889,8.274-13.94,22.66-57.491,77.095c-43.546,54.435-114.319,63.57-114.319,63.57
		C331.471,737.99,303.371,745.383,287.265,729.717z"/>
	<path fill="#010101" d="M509.723,605.285c-8.957,7.718-13.156,21.81-63.271,81.253c-44.417,52.713-105.405,51.664-105.405,51.664
		c11.489-23.669,11.971-57.712,11.971-57.712c2.185,7.844,4.357,23.101,4.357,23.101c49.216-30.493,82.314-111.494,82.314-111.494
		c-2.184,10.018-12.201,31.785-12.201,31.785s6.1,4.799,10.898,5.229c4.788,0.432,7.393-7.402,7.393-7.402l1.303,12.201
		c0,0-1.302,3.045,2.184-2.184c3.486-5.229,3.047-14.375,3.047-14.375l3.045,7.401c0,0,10.018-3.916,14.386-10.018
		c4.347-6.09,13.493-5.67,13.493-5.67c23.951-11.741,21.777-56.599,21.777-56.599c-12.633,2.174-23.951,12.621-23.951,12.621
		c14.364-17.851,47.903-41.372,47.903-41.372c9.146,2.605,20.472,21.337,20.472,21.337
		C547.693,558.557,525.4,591.791,509.723,605.285z"/>
	<path fill="#010101" d="M635.228,479.292c-6.967,7.409-49.21,39.194-55.741,40.937c-6.532,1.743-25.266,22.649-25.266,22.649
		s-6.095,8.715-6.095,7.403c0-1.303-9.577-27.428-9.577-27.428c-41.808-51.4-68.375-41.383-70.989-44.863
		c-2.614-3.486-0.567-25.742,5.533-51.873c6.103-26.125,35.839-33.927,35.839-33.927s18.292-13.499,32.662-21.768
		c14.375-8.28,29.617-24.829,29.617-24.829s7.723-8.189,8.915-10.007c3.701-5.66,12.858,4.783,12.858,4.783
		c-13.063,17.856-13.499,56.839-13.499,56.839c-1.959-41.157-1.309-45.95-1.309-45.95l-7.402-2.179c0,0-16.113,15.683-25.26,23.957
		c-9.146,8.27-23.521,15.678-23.521,15.678l-3.917,5.224c0,0-6.102,3.051-13.063,3.917c-6.967,0.87-16.549,20.034-16.549,20.034
		c13.934-23.08,42.679-20.034,48.775-21.337c6.096-1.307,20.471,19.163,20.035,17.852c-0.436-1.303-17.426-10.448-17.426-10.448
		c-37.015-10.017-50.514,16.985-50.514,16.985c6.531-7.84,21.337-12.196,21.337-12.196c-33.013,15.483-35.513,62.247-35.513,62.247
		s-2.814,3.077,8.075,0.032c10.89-3.051,60.536,49.206,60.536,49.206s0.865-5.649,1.307-9.577
		c0.436-3.927-3.486-13.067-3.486-13.067l11.761,7.408l5.66-9.582c0,0-6.532-8.28-18.728-11.325
		c-12.19-3.051-13.062-11.32-13.062-10.018c0,1.302,10.019,6.967,16.549,7.844c6.531,0.872,16.112,9.576,17.421,7.403
		c1.301-2.185,12.195-0.877,12.195-0.877l5.22-5.654l-6.526-9.151l15.241,3.922c0,0-9.146-6.531-8.279-7.844
		c0.872-1.302,14.375,1.744,16.99,2.62c2.615,0.866,3.045-5.665,3.045-5.665c-18.722-11.325-34.841-7.403-34.841-7.403
		c3.922-2.614,33.539-2.614,33.539-2.614c-31.36-5.224-31.36-33.97-31.36-33.97c14.37,30.054,43.551,28.305,43.551,28.305
		c-24.387-14.802-27.868-45.726-27.868-45.726c2.609,21.342,39.193,51.39,53.127,51.82c13.939,0.436,14.37-13.935,14.37-13.935
		C648.289,463.621,642.198,471.896,635.228,479.292z"/>
	<path fill="#010101" d="M630.438,444.456c5.224,0,11.76-10.889,11.76-10.889s-6.102,10.889-3.922,10.889
		c2.179,0,11.319-1.312,11.319-1.312c9.152-9.141,48.345-65.325,51.826-73.599c3.486-8.275,12.632-19.164,12.632-19.164
		c26.562-28.74,23.076-48.334,22.646-57.485c-0.437-9.14,3.045-18.286,12.632-30.488c9.576-12.186,58.352-92.322,74.034-112.787
		c15.677-20.472,48.108-27.423,81.536-33.828c34.49-6.615,26.451-25.322,26.451-25.322c-22.24-36.935-61.332-27.007-61.332-27.007
		c29.244,3.738,29.117,18.649,29.117,18.649c2.457,16.974-15.236,23.086-22.209,27.879c-6.962,4.788-23.951,10.018-41.367,16.985
		c-17.426,6.966-50.518,50.954-57.055,66.631c-6.531,15.677-10.013,16.544-24.388,43.551
		c-14.375,26.997-37.021,33.528-37.021,33.528c12.633-3.039,22.646-13.934,22.646-13.934s-6.091,12.197-14.37,20.471
		c-8.273,8.27-8.273,16.985-8.273,16.985c3.916-7.408,15.246-9.151,15.246-9.151s-3.486,9.577-4.352,29.187
		c-0.872,19.595-24.829,21.768-24.829,21.768c-0.871-8.269,5.66-19.594,5.66-19.594c-8.71,7.839-18.729,29.617-31.785,58.362
		c-13.069,28.74-55.748,65.755-55.748,65.755S625.208,444.458,630.438,444.456z"/>
	<path fill="#010101" d="M800.283,77.33c-3.051-3.486-15.741-8.143-24.829,2.174c-9.576,10.889-19.158,46.597-19.595,47.909
		c-0.435,1.302,12.187-32.447,20.908-42.68c10.012-11.755,20.029-4.357,20.029-4.357s-6.102,8.71-12.191,27.874
		c-6.096,19.164-32.227,45.73-48.78,59.229c-16.548,13.498-30.048,45.294-30.048,45.294c6.533-15.678,64.453-73.168,75.343-86.231
		c10.884-13.062,13.499-19.163,15.241-33.969c1.744-14.811,21.8-27.795,20.472-27.438C802.458,69.057,800.285,77.331,800.283,77.33z
		"/>
	<path fill="#010101" d="M723.637,184.464c2.178-2.614,1.737-6.531,1.737-6.531c-17.856-7.844-24.388,3.045-24.388,3.045
		c9.582-8.275,22.214,5.229,22.214,5.229"/>
	<path fill="#010101" d="M312.619,779.816c-4.336,4.231-19.982,14.312-32.604,38.705c-12.632,24.394-47.86,48.965-67.959,59.382
		c-20.119,10.416-31.334,24.424-31.334,24.424c-17.18,28.057-35.082,25.38-38.548,26.661c-3.465,1.292-9.167,3.203-17.798,7.393
		c-8.631,4.19-23.984,5.303-23.984,5.303s7.529-1.826-2.709,0.661c-10.248,2.5-23.656,3.528-23.656,3.528s0,0,0.725-1.585
		c0.736-1.577,8.925-6.932,16.14-6.974c7.213-0.053,14.984-6.542,14.984-6.542s-2.184,4.758-0.609,5.472
		c1.586,0.734,10.375-4.819,15.311-8.296c4.956-3.496,20.643-6.353,31.07-9.24c10.428-2.877,20.046-12.36,24.109-19.132
		c4.063-6.764,21.842-22.557,29.832-28.479c7.981-5.922,13.588-12.916,18.597-20.686c4.999-7.772,13.746-14.303,27.104-22.545
		c13.377-8.243,13.85-11.373,13.85-11.373c-21.327-2.604-39.85,14.774-39.85,14.774c14.018-18.009,40.102-24.729,45.331-25.686
		c5.219-0.955,9.545-11.424,13.388-18.764c3.854-7.352,11.719-17.159,28.174-25.896c16.466-8.736,13.011-18.943,13.011-18.943
		c-14.826-6.331-31.449,3.78-31.449,3.78c11.719-10.911,39.451-14.974,39.451-14.974s9.565-5.188,14.133-14.113
		c4.578-8.914,11.299-23.562,11.299-23.562c18.859-12.916,29.832-39.978,29.832-39.978
		C369.525,710.08,316.959,775.572,312.619,779.816z"/>
	<path fill="#010101" d="M237.711,794.799c-18.701,6.279-27.059,18.25-40.898,41.131c-13.852,22.882-23.061,27.271-31.062,38.463
		c-8.001,11.174-18.271,18.923-26.966,21.171c-8.694,2.245-27.669,17.493-27.669,17.493s12.79-8.022,21.452-11.235
		c8.664-3.234,24.487-13.693,25.422-14.701c0.936-1.008,4.306-5.208,12.633-12.896c8.307-7.686,28.877-33.707,39.136-52.965
		c10.259-19.236,26.251-24.844,26.251-24.844"/>
	<path fill="#010101" d="M657.22,307.052c-51.604,24.829-69.246,55.527-69.246,55.527c6.536-11.104,60.751-47.688,77.084-58.136
		c16.334-10.454,18.943-47.027,18.943-47.027C675.512,297.912,657.22,307.052,657.22,307.052z"/>
	<path d="M290.099,730.6c8.443-20.748-6.572-7.244-6.562-19.972c0-0.693-0.031-1.354-0.104-1.974
		c-1.187-10.985-12.423-12.896-12.423-12.896s-6.551,2.1-14.28-0.684c-7.717-2.782-14.133-2.257-18.438-1.564
		c-4.305,0.693-6.07,2.668-6.07,2.668c-8.421-0.715-13.84,6.783-15.414,6.646c-1.586-0.126-7.057,1.28-10.627,3.959
		c-3.559,2.688-5.858,4.504-7.569,4.043c-1.712-0.463-7.203,9.209-8.495,12.547c-1.303,3.35-7.876,5.167-11.678,9.557
		c-3.822,4.379,1.701,7.78,6.195,11.203c4.494,3.434,0.189,10.112,0.189,10.112s-6.826,1.869-9.084,6.688
		c-2.258,4.821,0.692,7.972,0.692,7.972s-3.979,6.049-3.213,9.766c0.746,3.717,4.893,4.726,8.578,4.685
		c3.697-0.043,7.204,8.272,7.204,8.272c0.608,4.159,11.025,14.848,11.025,14.848l-1.196,7.855c0,0,6.594-2.616,12.873-1.555
		c6.269,1.07,12.748-6.343,12.748-6.343s-4.327,3.508,9.858-3.875c10.123-5.25,14.892-12.59,14.892-12.59s-0.83-2.72,0.346,2.143
		c1.175,4.893-1.438,16.863-1.438,16.863c9.555-12.442,14.92-44.364,14.92-44.364c4.369-13.955,26.524-31.177,26.524-31.177"/>
	<path fill="#FFFFFF" d="M252.706,741.709c-3.245,3.802-6.489,3.802-16.538,10.27c-10.061,6.47-11.678,19.396-11.678,19.396
		c-0.336-9.125,2.92-15.204,2.92-15.204c-4.547,4.19-8.758,28.898-10.711,33.466c-1.933,4.558-12.327,6.468-17.516,3.045
		c-5.187-3.424-11.024-20.918-11.024-20.918s-3.245-7.602-3.245-9.891c0-2.28,4.211-3.802,7.13-7.225
		c2.929-3.425-5.187-12.938-5.187-12.938s1.953-7.224,5.187-9.513c3.255-2.269,4.221-5.691,5.198-9.114
		c0.976-3.424,4.86-5.335,6.813-6.847c1.944-1.522,5.838-3.434,8.759-4.567c2.918-1.145,6.478-2.657,8.105-3.424
		c1.617-0.768,7.139-4.568,12.327-3.812c5.187,0.767,13.619,3.045,16.864,1.9c3.234-1.134,6.489,4.19,7.141,9.524
		c0.64,5.312,5.188,9.491,5.188,9.491C260.822,734.105,255.951,737.906,252.706,741.709z"/>
</g>
</svg>
