<?xml version="1.0" encoding="utf-8"?>
<!-- Generator: Adobe Illustrator 16.0.0, SVG Export Plug-In . SVG Version: 6.00 Build 0)  -->
<!DOCTYPE svg PUBLIC "-//W3C//DTD SVG 1.1//EN" "http://www.w3.org/Graphics/SVG/1.1/DTD/svg11.dtd">
<svg version="1.1" id="Layer_1" xmlns="http://www.w3.org/2000/svg" xmlns:xlink="http://www.w3.org/1999/xlink" x="0px" y="0px"
	 width="1000px" height="1000px" viewBox="0 0 1000 1000" enable-background="new 0 0 1000 1000" xml:space="preserve">
<g>
	<path d="M606.315,516.826c-1.907,14.499,3.329,27.562,8.484,38.365c5.154,10.803,9.531,22.055,11.813,30.502
		c2.281,8.446,1.825,22.43,3.359,28.564c1.541,6.127,4.653,11.604,8.918,11.693c4.257,0.09,24.748-15.711,34.377-22.175
		c9.629-6.457,48.511-17.993,58.917-25.033c10.407-7.04,43.58-19.176,49.551-23.769c5.962-4.602,12.464-9.255,16.056-9.226
		c3.591,0.03,4.129-1.923,6.74,0.591c2.611,2.515,10.16,9.188,13.131,10.534c2.97,1.347,2.528-0.119,2.469-1.743
		c-0.053-1.631-0.876-4.414-0.15-5.042c0.727-0.636,2.992,1.398,4.438,2.865c1.443,1.459,7.631,4.249,10.93,4.496
		s7.183-0.224,9.023-1.631c-0.816-3.591-3.068-8.274-2.934-10.077c1.744,1.436,3.688,2.85,5.289,2.88
		c1.594,0.038,2.986-0.284,4.452-0.995c-0.726-3.793-3.015-9.412-4.286-11.836c-1.28-2.416-2.275-5.05-6.24-7.398
		c-3.973-2.342-16.894-9.479-21.359-11.776c-4.467-2.297-9.33-4.279-14.694-3.658c-5.372,0.613-16.998,5.132-22.64,6.434
		c-5.648,1.302-27.412,6.988-39.375,7.392c-11.963,0.412-22.13,0.644-28.438,3.135c-1.039-7.242-4.01-24.098-8.042-31.242
		c-4.032-7.146-9.39-11.903-15.308-15.854c-5.926-3.943-17.305-9.816-17.305-9.816"/>
	<g>
		<path fill="#FFFFFF" d="M484.696,363.058c14.147-3.995,65.515-31.625,80.299-37.692c14.783-6.068,30.764-15.906,43.153-13.108
			c12.382,2.798,12.307,12.404,11.672,26.223c-1.138,24.645-20.223,62.815-39.309,75.871"/>
		<path d="M581.08,415.182l-1.137-1.661c18.449-12.621,37.707-49.812,38.874-75.084c0.658-14.372,0.479-22.628-10.894-25.198
			c-9.232-2.08-20.979,3.311-32.327,8.525c-3.367,1.548-6.846,3.149-10.22,4.53c-5.807,2.386-17.582,8.259-30.046,14.477
			c-19.558,9.756-41.717,20.813-50.366,23.252l-0.539-1.93c8.461-2.391,30.533-13.403,50.006-23.118
			c12.502-6.236,24.308-12.128,30.181-14.537c3.33-1.369,6.793-2.962,10.146-4.5c11.655-5.353,23.671-10.915,33.614-8.659
			c13.564,3.067,13.048,14.271,12.449,27.247C619.633,364.304,599.949,402.272,581.08,415.182z"/>
	</g>
	<g>
		<path fill="#FFFFFF" d="M758.363,351.342c4.96-8.806,11.984-12.322,21.03-19.856c9.038-7.534,23.103-14.813,29.882-9.546
			c6.777,5.274-0.756,21.599-2.26,27.622c-1.512,6.03-3.838,18.831-8.574,22.856"/>
		<path d="M799.092,373.184l-1.301-1.533c3.793-3.225,6.045-12.898,7.525-19.303c0.262-1.122,0.502-2.147,0.727-3.03
			c0.299-1.219,0.83-2.806,1.443-4.642c2.268-6.786,6.061-18.139,1.175-21.943c-5.843-4.519-18.823,1.354-28.624,9.523
			c-2.424,2.017-4.654,3.715-6.816,5.361c-5.835,4.433-10.443,7.934-13.982,14.219l-1.751-0.988
			c3.741-6.647,8.739-10.44,14.515-14.832c2.146-1.631,4.361-3.314,6.748-5.301c10.093-8.424,24.166-15,31.139-9.569
			c6.015,4.676,2.094,16.403-0.494,24.166c-0.599,1.799-1.123,3.352-1.406,4.493c-0.217,0.875-0.457,1.889-0.711,3
			C805.729,359.463,803.395,369.529,799.092,373.184z"/>
	</g>
	<g>
		<path fill="#FFFFFF" d="M154.543,562.508c-10.115-0.209-21.218-4.84-25.542-11.005c-4.317-6.173-5.551-11.881-10.953-9.263
			c-5.401,2.626-5.087,8.948-4.938,13.729c0.157,4.789-1.384,22.834-4.474,27.308c-3.083,4.475-4.01,8.642-2.469,9.727
			c1.549,1.077,9.105-3.09,11.417-8.491c2.319-5.395,3.554-21.285,3.711-25.296c3.083,2.619,7.706,9.868,13.107,11.566
			c5.402,1.698,6.778,2.05,9.18,2.14"/>
		<path d="M106.855,594.185c-0.509,0-0.928-0.119-1.264-0.358c-2.162-1.52-1.25-6.091,2.214-11.118
			c2.896-4.189,4.459-21.98,4.302-26.709l-0.007-0.292c-0.157-4.855-0.367-11.514,5.506-14.372c4.998-2.416,7.13,1.25,9.621,5.47
			c0.749,1.264,1.602,2.7,2.597,4.122c4.085,5.82,14.724,10.369,24.741,10.579l-0.045,2.005
			c-10.602-0.218-21.921-5.133-26.343-11.433c-1.04-1.488-1.907-2.955-2.678-4.249c-2.641-4.466-3.823-6.231-7.01-4.684
			c-4.706,2.29-4.526,7.945-4.384,12.494l0.007,0.3c0.142,4.324-1.272,23.013-4.654,27.906c-3.12,4.533-3.426,7.84-2.716,8.334
			c1.093,0.419,7.811-3.143,9.921-8.064c2.214-5.163,3.471-20.934,3.628-24.944l0.083-2.058l1.571,1.34
			c1.01,0.853,2.11,2.109,3.382,3.554c2.633,3,5.911,6.726,9.375,7.818c5.528,1.735,6.696,2.005,8.918,2.095l-0.075,2.005
			c-2.566-0.09-4.085-0.494-9.441-2.185c-4.003-1.257-7.489-5.223-10.287-8.409c-0.568-0.644-1.122-1.279-1.646-1.841
			c-0.381,5.597-1.549,18.494-3.666,23.418c-1.938,4.533-7.212,8.17-10.272,9.053C107.716,594.109,107.26,594.185,106.855,594.185z"
			/>
	</g>
	<path d="M134.402,570.782c5.402,1.698,6.778,2.05,9.18,2.14l5.469-5.199l-0.584-0.344c-7.287-2.192-16.923-5.521-20.021-9.232
		c-3.082-3.711-5.185-8.529-6.172-9.517c-0.995-0.987-1.489-0.741-1.235,2.596c0.24,3.337,0.449,4.698,0.254,7.99
		C124.377,561.835,129.001,569.084,134.402,570.782z"/>
	<g>
		<path fill="#FFFFFF" d="M774.703,358.434c16.129,8.896,46.871,27.794,56.253,36.495c9.374,8.709,19.078,21.764,28.123,26.118
			c9.038,4.354,42.188,12.727,53.905,11.716c11.715-1.002,15.067-0.501,18.912-1.167c1.003-4.855,4.527-5.857,6.697-5.356
			c2.176,0.501,12.726,6.359,15.239,17.911c2.507,11.551,2.169,24.105,0,28.123c0,3.18-4.19,15.404-9.546,19.25
			c-5.357,3.853-16.243,10.818-26.62,13.025c-10.376,2.207-19.415,6.733-32.47,8.072c-13.062,1.332-29.971,0.329-36.667,1.002
			c-6.696,0.666-5.521,1.841-16.07,4.018c-10.549,2.178-20.589,3.846-23.268,4.684s-114.176,19.587-153.851,34.153
			c-39.674,14.567-103.454,56.748-138.61,69.811c-35.155,13.056-128.57,38.672-151.673,42.689
			c-23.103,4.018-44.193,9.539-58.76,15.061c-14.559,5.528-33.143,11.552-48.211,14.566s-31.639,12.554-37.168,18.584
			c-5.521,6.022-38.664,30.884-56.246,37.415c-17.574,6.531-46.7,11.799-54.735,12.308c-1.257,6.778-0.254,20.836-3.516,28.871
			c-3.27,8.035-4.526,8.417-5.656,12.18c-1.13,3.771-1.758,14.694-7.033,18.584c-5.267,3.891-15.816,11.552-20.708,11.425
			c-4.9-0.127-7.916,0.382-6.913-3.517c1.002-3.891,8.791-13.557,8.664-16.698c-0.12-3.135-3.89-7.407-2.259-11.17
			c1.631-3.771,8.663-10.422,10.047-15.322c1.384-4.894,5.275-16.946,5.275-25.362c0-8.409-1.385-20.335,0.748-25.362
			c2.14-5.021,11.806-6.779,14.813-11.298c3.022-4.519,8.918-25.107,8.289-35.784c-0.628-10.668-6.613-51.6-3.262-64.992
			c3.352-13.399,12.053-28.632,20.926-40.849c8.873-12.218,45.533-43.026,54.742-49.723c9.203-6.696,33.48-27.016,43.692-33.345
			c10.212-6.33,56.082-27.42,67.297-35.126c11.214-7.699,34.317-22.931,61.438-41.014c27.121-18.076,172.763-59.591,194.355-69.975
			c21.6-10.377,60.773-22.43,95.428-21.427c34.654,1.003,50.223-3.015,74.83,3.517C745.741,347.055,762.343,351.618,774.703,358.434
			z"/>
		<path d="M73.144,838.98l-0.142-0.007c-0.591-0.016-1.16-0.022-1.691-0.022c-2.798-0.03-4.818-0.061-5.843-1.392
			c-0.801-1.048-0.568-2.409-0.329-3.353c0.494-1.915,2.342-4.862,4.294-7.975c1.96-3.135,4.392-7.025,4.339-8.439
			c-0.038-1.003-0.576-2.274-1.145-3.621c-1.04-2.461-2.215-5.252-1.033-7.99c0.741-1.706,2.454-3.891,4.272-6.21
			c2.334-2.978,4.982-6.344,5.73-8.978l0.629-2.177c1.608-5.484,4.608-15.704,4.608-22.916c0-2.319-0.104-4.908-0.217-7.542
			c-0.284-7.062-0.584-14.372,1.04-18.21c1.287-3.022,4.795-4.878,8.192-6.681c2.678-1.43,5.454-2.896,6.711-4.781
			c2.947-4.406,8.746-24.629,8.125-35.17c-0.157-2.619-0.629-7.011-1.228-12.577c-1.818-16.908-4.571-42.473-2.005-52.715
			c4.033-16.146,14.94-32.739,21.083-41.2c8.993-12.375,45.398-42.982,54.967-49.939c3.382-2.469,8.963-6.898,14.866-11.582
			c10.504-8.342,22.399-17.791,28.886-21.809c4.481-2.775,15.816-8.397,27.824-14.346c15.539-7.706,33.15-16.437,39.435-20.754
			c7.519-5.162,20.17-13.571,36.196-24.218c7.788-5.181,16.302-10.837,25.257-16.803c17.013-11.346,79.858-31.684,130.351-48.024
			c30.075-9.733,56.052-18.139,64.124-22.022c23.32-11.204,62.531-22.52,95.891-21.524c3.966,0.112,7.894,0.168,11.986,0.168
			c6.493,0,12.142-0.139,17.611-0.273c4.601-0.112,8.873-0.217,12.995-0.217c9.292,0,19.653,0.468,32.462,3.868
			c25.288,6.711,41.41,11.174,53.801,18.004c15,8.275,46.699,27.596,56.447,36.638c3.15,2.925,6.375,6.378,9.494,9.718
			c6.158,6.591,12.524,13.411,18.383,16.231c8.978,4.324,41.709,12.659,53.381,11.619c6.142-0.524,10.002-0.64,12.822-0.722
			c2.237-0.067,3.809-0.112,5.357-0.329c1.302-4.837,5.058-6.071,7.743-5.45c2.663,0.613,13.422,6.838,15.995,18.677
			c2.365,10.897,2.357,23.852,0.016,28.595c-0.188,3.932-4.534,15.913-9.958,19.808c-4.422,3.18-15.905,10.833-26.993,13.189
			c-3.913,0.838-7.594,1.99-11.492,3.21c-6.344,1.982-12.905,4.047-21.082,4.885c-6.494,0.659-13.85,0.749-20.829,0.749
			l-6.277-0.008c-4.196,0-7.437,0.045-9.569,0.262c-3.313,0.329-4.586,0.771-6.501,1.437c-1.9,0.666-4.265,1.489-9.464,2.559
			c-4.437,0.92-8.791,1.751-12.539,2.454c-5.103,0.973-9.135,1.735-10.631,2.207c-0.517,0.165-3.562,0.726-10.998,2.08
			c-30.174,5.507-110.323,20.133-142.808,32.058c-20.485,7.52-47.485,22.468-73.604,36.93c-24.682,13.661-47.987,26.56-65,32.881
			c-36.375,13.504-129.58,38.867-151.853,42.742c-22.28,3.868-43.632,9.337-58.573,15.008c-8.259,3.127-29.499,10.834-48.375,14.604
			c-15.076,3.022-31.49,12.688-36.622,18.284c-5.499,6.001-38.59,30.974-56.636,37.678c-17.379,6.456-45.241,11.536-54.226,12.307
			c-0.352,2.342-0.494,5.462-0.643,8.746c-0.314,6.696-0.659,14.29-2.806,19.557c-1.736,4.279-2.933,6.449-3.809,8.035
			c-0.785,1.437-1.309,2.379-1.811,4.055c-0.254,0.838-0.486,2.096-0.755,3.562c-0.913,4.908-2.29,12.337-6.644,15.547
			C87.007,832.764,77.977,838.98,73.144,838.98z M642.205,337.953c-32.037,0-68.733,10.74-90.894,21.386
			c-8.192,3.943-34.229,12.367-64.371,22.123c-50.381,16.303-113.076,36.593-129.865,47.781c-8.948,5.97-17.462,11.63-25.258,16.807
			c-16.01,10.643-28.662,19.048-36.166,24.199c-6.404,4.399-24.083,13.164-39.682,20.9c-11.963,5.929-23.26,11.528-27.652,14.252
			c-6.389,3.958-18.24,13.37-28.699,21.674c-6.18,4.908-11.514,9.143-14.933,11.626c-9.217,6.704-45.817,37.513-54.518,49.506
			c-10.31,14.192-17.881,28.953-20.769,40.498c-2.477,9.905,0.254,35.252,2.058,52.019c0.599,5.589,1.077,10.003,1.234,12.674
			c0.644,10.87-5.395,31.819-8.454,36.397c-1.542,2.312-4.542,3.905-7.444,5.447c-3.09,1.638-6.277,3.329-7.279,5.686
			c-1.459,3.427-1.167,10.504-0.891,17.35c0.112,2.663,0.217,5.274,0.217,7.624c0,7.504-3.045,17.896-4.683,23.477l-0.628,2.155
			c-0.853,3.022-3.629,6.561-6.083,9.681c-1.736,2.215-3.367,4.294-4.01,5.775c-0.838,1.938,0.12,4.205,1.047,6.404
			c0.636,1.519,1.242,2.948,1.294,4.324c0.075,1.886-1.706,4.878-4.646,9.577c-1.788,2.85-3.636,5.798-4.047,7.406
			c-0.21,0.808-0.21,1.392-0.022,1.639c0.434,0.561,2.297,0.576,4.271,0.599c0.546,0.007,1.115,0.007,1.714,0.029l0.097,1.003
			v-1.003c4.789,0,15.839-8.162,19.991-11.229c3.718-2.738,5.013-9.696,5.865-14.305c0.277-1.511,0.523-2.82,0.801-3.756
			c0.568-1.893,1.159-2.963,1.982-4.451c0.846-1.541,2.013-3.658,3.711-7.818c2.005-4.953,2.349-12.367,2.648-18.898
			c0.172-3.726,0.337-7.25,0.808-9.786l0.143-0.763l0.785-0.053c7.691-0.486,36.981-5.753,54.443-12.247
			c17.432-6.472,50.598-31.407,55.857-37.153c6.022-6.568,22.998-15.943,37.714-18.883c18.719-3.756,39.84-11.41,48.047-14.529
			c15.061-5.701,36.547-11.208,58.947-15.113c22.212-3.86,115.2-29.163,151.493-42.637c16.871-6.263,40.116-19.131,64.73-32.762
			c26.186-14.484,53.261-29.478,73.888-37.049C687.64,543.55,767.909,528.9,798.135,523.38c5.971-1.085,10.287-1.871,10.758-2.013
			c1.609-0.502,5.484-1.242,10.856-2.26c3.741-0.711,8.08-1.533,12.509-2.446c5.072-1.048,7.361-1.848,9.203-2.491
			c1.982-0.696,3.418-1.189,6.973-1.549c2.214-0.225,5.506-0.27,9.763-0.27l6.277,0.016c6.928,0,14.215-0.09,20.619-0.748
			c7.982-0.816,14.446-2.844,20.694-4.804c3.942-1.228,7.668-2.397,11.67-3.251c10.722-2.277,21.922-9.752,26.246-12.856
			c5.02-3.606,9.127-15.524,9.127-18.435l0.12-0.479c1.976-3.655,2.417-15.824-0.097-27.431
			c-2.342-10.743-12.181-16.616-14.484-17.144c-0.262-0.06-0.539-0.093-0.824-0.093c-0.867,0-3.77,0.34-4.668,4.672l-0.135,0.67
			l-0.673,0.12c-1.908,0.329-3.659,0.381-6.3,0.46c-2.791,0.083-6.621,0.195-12.703,0.718c-11.836,0.954-45.264-7.403-54.421-11.813
			c-6.202-2.985-12.696-9.943-18.981-16.669c-3.097-3.314-6.291-6.74-9.389-9.617c-8.963-8.312-38.694-26.776-56.059-36.353
			c-12.181-6.719-28.206-11.147-53.336-17.817c-12.592-3.345-22.797-3.805-31.954-3.805c-4.107,0-8.364,0.105-12.95,0.217
			c-5.223,0.127-11.141,0.273-17.656,0.273c-4.115,0-8.059-0.056-12.046-0.172C644.92,337.972,643.566,337.953,642.205,337.953z"/>
	</g>
	<path d="M220.919,717.188c5.529-6.022,22.101-15.569,37.168-18.584c15.068-3.008,33.652-9.038,48.211-14.56
		c14.567-5.528,35.657-11.05,58.76-15.067c23.103-4.018,116.518-29.634,151.673-42.689c35.156-13.056,98.937-55.243,138.61-69.811
		c39.675-14.559,151.172-33.315,153.851-34.146c2.679-0.846,12.719-2.514,23.268-4.691c10.549-2.177,9.374-3.344,16.07-4.018
		c6.696-0.665,23.604,0.33,36.667-1.002c13.055-1.339,22.094-5.858,32.47-8.072c10.377-2.207,21.263-9.173,26.62-13.025
		c5.355-3.846,9.546-16.07,9.546-19.25c0.187-0.352,0.358-0.793,0.523-1.272l-5.491-1.347l-5.35,3.854
		c-1.159,1.975-10.107,8.477-16.137,8.477c-6.023,0.007-12.974,1.354-18.158,4.025c-5.192,2.664-7.855,2.962-17.934,4.736
		c-10.078,1.78-19.557,0.449-27.854,0.89c-8.297,0.449-25.908,0.583-34.67-3.404c-8.947-4.07-13.451-8.342-18.225-8.088
		c-4.781,0.247-7.541,3.262-13.316,7.534c-5.776,4.265-10.55,8.282-15.824,9.539s-10.796,3.516-18.33,0
		c-7.533-3.517-18.83-7.033-23.858-17.073c-5.021-10.048-8.536-23.559-9.539-30.614c-1.002-7.055,0.202-17.185-1.279-23.791
		c-1.481-6.614-0.479-11.806-6-14.731c1.003,6.86,7.729,23.215,6,36.757c-1.735,13.549-2.536,21.075,0,26.604
		c2.536,5.521,18.016,20.088,17.56,22.849c-0.464,2.761-8.799,9.292-17.56,10.549c-8.769,1.257-16.804,5.274-24.337,1.257
		c-4.751,2.94-10.564,4.698-15.749,4.698c-5.192,0-7.265,0.83-8.566-2.483c-3.165,1.758-7.317,4.249-10.631,3.628
		c-3.322-0.621-4.167-3.628-2.133-6.022c2.028-2.387,4.616-4.563,5.446-8.095c-3.217,2.491-3.65,3.321-6.546,4.361
		s-5.873-0.561-5.873-0.561c-8.26,12.809-98.472,77.561-120.609,87.249s-25.46,13.834-44.561,19.924
		c-19.085,6.09-42.338,19.093-62.814,20.2c-20.478,1.107-50.643,3.599-67.521,9.688c-16.878,6.09-37.355,19.646-51.196,25.736
		c-13.841,6.09-22.071,13.849-36.128,17.529c-14.058,3.688-42.518,11.724-54.907,21.435c-12.389,9.703-31.812,26.118-39.847,31.139
		c-8.035,5.02-9.217,11.716-27.876,17.072c-18.659,5.357-35.732,10.048-46.79,8.035c-11.042-2.005-11.88-4.938-14.649-10.459
		c0.509,7.025,6.876,16.107,16.833,14.813c8.035-0.501,37.161-5.776,54.735-12.308C182.255,748.08,215.397,723.219,220.919,717.188z
		"/>
	<g>
		<path fill="#FFFFFF" d="M526.771,487.678c-3.008,19.078,3.016,37.16,9.046,52.229c6.022,15.068,11.042,30.637,13.556,42.188
			c2.515,11.552,1.34,30.128,3.016,38.5s5.356,16.07,10.714,16.743c5.356,0.666,31.804-17.746,44.193-25.115
			c12.39-7.361,60.937-22.43,74.329-30.465c13.392-8.035,54.57-25.107,62.276-30.473c7.698-5.356,16.07-10.713,20.589-10.212
			c4.52,0.501,7.205,7.87,10.385,11.552c3.18,3.688,12.389,13.564,16.07,15.741c3.681,2.177,3.18,0.164,3.18-2.013
			c0-2.178-0.913-5.985,0.021-6.733c0.936-0.756,3.704,2.259,5.462,4.392c1.751,2.133,9.412,6.651,13.557,7.406
			c4.146,0.756,9.038,0.629,11.425-1.002c-0.876-4.9-3.517-11.424-3.262-13.811c2.131,2.132,4.518,4.264,6.523,4.519
			c2.012,0.254,3.771,0,5.656-0.756c-0.756-5.147-3.39-12.928-4.9-16.317c-1.504-3.389-2.634-7.032-7.534-10.676
			c-4.894-3.637-20.844-14.813-26.365-18.457c-5.521-3.636-11.552-6.905-18.329-6.778c-6.779,0.127-21.6,4.646-28.752,5.648
			c-7.16,1.003-34.781,5.776-49.85,4.773c-15.061-1.003-27.869-2.013-35.904,0.501c-1.01-9.793-4.018-32.642-8.79-42.689
			c-4.773-10.04-11.298-17.073-18.585-23.103c-7.279-6.023-21.345-15.315-21.345-15.315"/>
		<path d="M563.379,638.355c-0.143,0-0.276,0-0.404-0.022c-5.177-0.65-9.501-7.204-11.573-17.544
			c-0.764-3.83-0.95-9.741-1.138-15.995c-0.239-7.594-0.501-16.198-1.87-22.489c-2.499-11.484-7.422-26.8-13.512-42.024
			c-6.486-16.22-12.083-33.839-9.104-52.76l1.989,0.314c-2.91,18.442,2.597,35.739,8.985,51.697
			c6.12,15.322,11.08,30.757,13.602,42.353c1.406,6.465,1.676,15.173,1.916,22.849c0.187,6.165,0.373,12.001,1.106,15.667
			c1.459,7.287,4.811,15.307,9.854,15.943c0.075,0.007,0.157,0.007,0.239,0.007c3.988,0.008,19.527-9.936,30.937-17.223
			c4.646-2.978,9.037-5.775,12.374-7.766c6.12-3.636,20.515-8.97,35.762-14.619c15.621-5.79,31.781-11.775,38.567-15.846
			c6.793-4.077,20.454-10.354,33.667-16.43c12.756-5.865,24.801-11.401,28.55-14.005c8.214-5.716,16.392-10.968,21.277-10.385
			c3.583,0.389,5.933,4.152,8.207,7.789c0.966,1.548,1.878,3,2.828,4.1c3.194,3.711,12.284,13.444,15.815,15.539
			c0.943,0.554,1.43,0.718,1.662,0.771c0.037-0.292,0.029-0.815,0.014-1.189l-0.007-0.733c0-0.681-0.097-1.526-0.194-2.379
			c-0.262-2.395-0.472-4.295,0.591-5.141c1.317-1.077,3.314,0.232,6.868,4.542c1.57,1.915,8.992,6.329,12.958,7.055
			c3.987,0.726,8.005,0.501,10.122-0.531c-0.389-1.893-1.002-3.995-1.601-6.03c-0.913-3.127-1.706-5.82-1.534-7.369l0.217-2.087
			l1.489,1.481c1.855,1.855,4.204,4.01,5.94,4.234c1.557,0.18,2.933,0.06,4.406-0.419c-0.875-5.005-3.27-12.053-4.698-15.247
			l-0.509-1.183c-1.264-2.963-2.581-6.03-6.703-9.098c-4.982-3.711-20.971-14.903-26.32-18.427
			c-5.229-3.441-10.945-6.613-17.387-6.613c-0.127,0-0.247,0-0.367,0c-3.92,0.074-10.915,1.728-17.088,3.194
			c-4.421,1.048-8.596,2.035-11.543,2.446c-1.025,0.143-2.462,0.367-4.221,0.636c-10.646,1.624-32.806,5.028-45.839,4.146
			l-2.117-0.143c-13.916-0.936-25.938-1.743-33.42,0.599l-1.175,0.366l-0.127-1.219c-1.459-14.178-4.616-33.772-8.693-42.365
			c-4.123-8.667-9.771-15.685-18.322-22.759c-7.152-5.918-21.113-15.158-21.256-15.251l1.107-1.676
			c0.143,0.094,14.193,9.39,21.435,15.378c8.784,7.268,14.597,14.5,18.847,23.447c5.072,10.676,7.975,34.628,8.761,41.826
			c7.848-2.035,19.542-1.257,32.979-0.352l2.117,0.142c12.809,0.868,34.819-2.514,45.405-4.129c1.766-0.27,3.21-0.494,4.234-0.637
			c2.858-0.396,6.996-1.377,11.365-2.416c6.576-1.557,13.377-3.165,17.506-3.24c0.143-0.007,0.277-0.007,0.412-0.007
			c6.973,0,13.003,3.337,18.494,6.95c5.364,3.539,21.404,14.775,26.41,18.486c4.563,3.396,6.045,6.868,7.354,9.921l0.502,1.152
			c1.549,3.472,4.212,11.38,4.975,16.579l0.113,0.785l-0.734,0.292c-2.072,0.838-4.024,1.107-6.156,0.823
			c-1.639-0.21-3.359-1.361-5.043-2.844c0.284,1.205,0.703,2.634,1.115,4.033c0.688,2.342,1.391,4.751,1.78,6.936l0.112,0.636
			l-0.531,0.366c-2.889,1.976-8.35,1.855-12.173,1.16c-4.241-0.771-12.18-5.35-14.155-7.759c-2.207-2.679-3.531-3.756-4.1-4.055
			c-0.082,0.613,0.09,2.177,0.195,3.157c0.104,0.936,0.201,1.863,0.201,2.604l0.016,0.688c0.029,1.196,0.06,2.438-0.936,3.022
			c-1.033,0.621-2.432-0.045-3.771-0.838c-3.957-2.334-13.48-12.651-16.324-15.951c-1.047-1.212-1.998-2.73-3.008-4.339
			c-2.02-3.232-4.107-6.569-6.726-6.868c-4.055-0.419-12.39,4.818-19.901,10.04c-3.897,2.708-16.025,8.29-28.855,14.186
			c-13.168,6.045-26.776,12.3-33.48,16.324c-6.95,4.175-23.192,10.19-38.896,16.011c-15.157,5.611-29.477,10.923-35.433,14.454
			c-3.313,1.976-7.69,4.773-12.321,7.736C579.479,631.054,567.711,638.355,563.379,638.355z"/>
	</g>
	<g>
		<path fill="#FFFFFF" d="M777.097,367.382c-4.384-10.003-7.062-26.619-6.576-35.604c0.479-8.978-0.321-24.053,1.601-30.15
			c1.931-6.09,6.576-16.52,4.976-24.053c-1.601-7.542-8.499-12.509-11.866-15.397c-3.374-2.888-11.229-4.332-17.162,2.73
			c-5.933,7.055-24.645,36.555-27.263,45.862c-4.653,16.519,1.923,29.515,1.279,36.569c-0.644,7.055-3.045,8.499-5.29,16.033
			c-2.244,7.541-3.853,23.574,0,27.105c3.846,3.531,10.587,9.3,10.587,9.3"/>
		<path d="M726.73,400.54c-0.066-0.056-6.801-5.82-10.616-9.322c-4.399-4.033-2.491-20.702-0.284-28.134
			c0.928-3.112,1.886-5.207,2.724-7.055c1.212-2.652,2.162-4.75,2.528-8.78c0.202-2.233-0.389-5.259-1.084-8.765
			c-1.399-7.089-3.314-16.796-0.158-27.988c2.611-9.292,21.323-38.941,27.458-46.236c3.441-4.096,7.265-5.211,9.86-5.428
			c3.232-0.231,6.562,0.729,8.724,2.582c0.366,0.311,0.771,0.647,1.204,1.01c3.555,2.947,9.494,7.882,10.99,14.94
			c1.369,6.419-1.57,14.742-3.718,20.821c-0.479,1.365-0.928,2.629-1.279,3.744c-1.257,3.991-1.31,12.394-1.354,19.804
			c-0.021,3.696-0.045,7.186-0.201,10.097c-0.465,8.562,2.087,25.1,6.493,35.148l-1.841,0.808
			c-4.518-10.306-7.137-27.278-6.658-36.065c0.15-2.862,0.172-6.33,0.195-9.999c0.052-7.923,0.104-16.115,1.451-20.398
			c0.359-1.133,0.814-2.42,1.301-3.808c2.065-5.851,4.894-13.867,3.652-19.732c-1.355-6.378-6.749-10.855-10.311-13.814
			c-0.449-0.371-0.859-0.711-1.227-1.029c-1.392-1.193-4.003-2.364-7.257-2.102c-2.215,0.18-5.491,1.148-8.484,4.717
			c-6.06,7.201-24.502,36.383-27.068,45.487c-3.022,10.729-1.234,19.781,0.202,27.054c0.719,3.658,1.339,6.815,1.115,9.333
			c-0.404,4.373-1.467,6.719-2.701,9.431c-0.815,1.792-1.743,3.819-2.626,6.801c-2.432,8.17-3.531,23.106-0.284,26.077
			c3.785,3.479,10.488,9.221,10.557,9.277L726.73,400.54z"/>
	</g>
	<g>
		<path d="M831.869,408.8c-5.186-2.521-7.361-8.955-9.09-14.14c-1.34-4.018-7.362-8.843-15.121-7.781
			c-6.209,0.853-10.002,1.474-16.713,10.13l-3.396,4.018c6.015-7.743,12.658-17.611,20.491-16.123
			c8.694,1.653,14.589,5.319,16.168,10.047c1.728,5.185,4.99,12.232,9.314,14.342L831.869,408.8z"/>
	</g>
	<g>
		<path d="M800.671,414.411c-4.421,0-8.103-0.95-8.552-4.976c-0.875-7.885,7.684-14.693,9.404-15.98
			c2.664-1.975,7.145-2.903,10.887-2.252c2.199,0.374,3.808,1.242,4.646,2.499c0.808,1.22,0.411,3.472,1.175,5.671
			c1.166,3.389,3.673,7.242,6,9.18l-1.205-0.082c-2.76-2.297-4.332-4.983-5.641-8.798c-0.688-1.983-1.332-3.853-1.998-4.855
			c-0.516-0.763-1.107-2.357-2.701-2.633c-3.201-0.562-8.207,0.09-10.414,1.735c-4.339,3.232-8.746,10.025-8.154,15.3
			c0.404,3.651,4.302,4.145,11.544,3.472c1.451-0.135,2.334-0.188,3.636-0.247l1.886,1.234c-1.272,0.06-2.663,0.194-4.085,0.322
			C804.965,414.201,802.736,414.411,800.671,414.411z"/>
	</g>
	<path d="M819.704,407.386c-1.804-2.304-2.507-7.818-5.215-8.424c-2.708-0.599-5.214-0.502-7.616,1.302
		c-2.409,1.811-4.212,3.209-5.416,3.71c-1.205,0.501-1.303,1.407-1.1,2.005c0.193,0.605,1.1,1.204,4.406,1.406
		c3.314,0.202,4.414,1.1,5.82,0c1.398-1.107,0.771-6.322-0.09-7.22c1.549-1.107,2.103-0.539,3.299-0.067
		c1.189,0.472,2.162,0.913,2.29,2.072c0.127,1.16-0.345,2.574,0.03,3.232c0.381,0.658,1.227,1.788,2.229,1.975
		C819.345,407.573,819.704,407.386,819.704,407.386z"/>
	<path d="M771.328,274.199c-0.449,3.95-1.422,6.741-7.818,13.317c-6.389,6.569-13.496,7.279-17.559,12.247
		c-4.07,4.976-1.796,2.664-4.279,12.008c-2.484,9.337-12.255,17.298-14.918,23.866c-2.664,6.569-0.18,14.918-0.711,22.909
		c-0.531,7.99-3.547,13.145-4.789,19.534c-1.241,6.389,2.656,9.06,5.858,12.255c1.773,1.773,2.484-4.609,6.39-6.397
		c2.768-1.264-6.038-8.342-4.437-8.88c1.421,3.022,4.085,4.264,7.1,4.444c-1.421-2.312-2.132-7.107-2.132-11.903
		c0.89,1.96,3.554,8.17,6.928,10.833c-0.891-1.414-1.953-8.163-1.773-11.896c0.18,2.664,1.953,6.928,5.147,9.771
		c-1.421-1.953-0.531-4.616,0-7.459c0.359,1.593,1.773,2.663,4.616,3.568c-1.773-2.117-1.062-2.506-1.594-6.06
		c-0.531-3.546,1.242-6.92,4.788-9.583c-1.594,3.374,1.07,9.053,4.616,11.963c-1.422-1.706-0.531-5.574,1.602-8.417
		c0.007,1.953-0.173,2.312,1.421,6.038c1.594,3.733,5.903,2.866,6.218-1.062c0.568-7.167,2.887-14.297,2.057-27.742
		c-0.83-13.437-1.99-23.896-0.666-29.867c1.332-5.97,4.654-10.616,4.9-18.255C772.541,281.801,774.426,279.698,771.328,274.199z"/>
	<path d="M823.587,471.031c8.319,4.736,22.841,10.721,38.597,10.931c15.764,0.209,24.592-1.048,36.779-1.893
		c12.188-0.838,28.752-2.708,34.041-6.935c1.43-1.16,3.023-2.462,4.279-3.659c0.674,0.254,7.961,5.574,9.771,5.783
		c5.178,0.606,7.213-3.359,6.778-2.985c-4.369,3.785-8.821,0.374-9.876-0.314c-3.314-2.17-4.055-4.616-4.436-5.761
		c-0.42-1.257-1.894-1.257-3.787-4.616c-1.893-3.367-3.777-8.2-3.777-8.2s-0.427,5.042,1.257,8.409
		c1.683,3.359,6.09,7.564,1.683,8.402c-4.414,0.838-5.252,0-11.977,2.103c-6.727,2.102-7.983,3.359-14.709,4.833
		c-6.727,1.474-20.807,3.157-29.426,3.359c-8.611,0.217-20.992,0.786-27.719-0.471c-6.719-1.265-21.449-7.302-26.073-11.29
		C820.369,464.731,820.107,469.056,823.587,471.031z"/>
	<path d="M944.631,455.679c1.459-0.292,2.14-3.254,1.66-6.344c-0.471-3.098-0.867-6.352-3.015-5.956
		c-2.14,0.396-3.329,3.539-2.618,6.135C941.376,452.11,942.648,456.076,944.631,455.679z"/>
	<path d="M950.66,444.173c0.314,1.825,0.396,5.162,0.314,6.666c-0.074,1.511,1.982,2.543,2.305,0
		c0.314-2.537,0.284-3.03-0.479-5.395c-0.809-2.491-2.275-2.843-2.141-1.586"/>
	<path d="M516.455,493.162c0,0,1.1,2.237,2.581,5.652c0.644,1.75,1.646,3.677,2.663,5.731c0.995,2.076,2.043,4.291,3.098,6.505
		c2.05,4.512,4.122,9.008,5.252,12.584c1.197,3.539,1.885,5.918,1.885,5.918s-1.241-2.177-2.925-5.477
		c-1.646-3.314-3.831-7.743-6.022-12.173c-1.915-4.578-4.189-9.104-5.013-12.726C517.001,495.589,516.455,493.162,516.455,493.162z"
		/>
	<path d="M510.754,523.462c0,0,3.008,2.985,7.392,7.579c2.162,2.334,4.676,5.05,7.377,7.968c1.324,1.488,2.693,3.022,4.085,4.586
		c1.271,1.571,3.045,3.082,4.04,4.938c2.207,3.614,4.406,7.22,6.479,10.609c1.137,1.616,1.766,3.493,2.514,5.162
		c0.718,1.69,1.406,3.276,2.035,4.751c2.453,5.902,3.957,9.838,3.957,9.838s-2.064-3.733-4.968-9.322
		c-1.496-2.783-2.902-6.149-5.013-9.501c-2.132-3.337-4.414-6.891-6.695-10.452c-0.98-1.915-2.537-3.194-3.831-4.878
		c-1.339-1.579-2.663-3.12-3.942-4.624c-2.521-3.045-4.871-5.902-6.891-8.342C513.32,526.836,510.754,523.462,510.754,523.462z"/>
	<path d="M644.464,439.459c0,0,1.055,1.893,2.483,4.796c0.629,1.489,1.632,3.097,2.141,5.091c0.591,1.96,1.227,4.052,1.855,6.143
		c0.434,2.14,0.591,4.328,0.875,6.348c0.366,2.02,0.217,3.935,0.053,5.57c-0.314,3.266-0.637,5.376-0.637,5.376
		s-0.27-2.185-0.501-5.361c0.008-1.597-0.217-3.43-0.644-5.383c-0.366-1.949-0.605-4.059-1.1-6.104
		c-1.085-4.066-1.99-8.204-3.09-11.271C644.98,441.565,644.464,439.459,644.464,439.459z"/>
	<path d="M656.517,410.999c0,0,0.329,1.429,0.897,3.936c0.285,1.25,0.637,2.772,1.033,4.515c0.344,1.754,0.973,3.685,1.145,5.892
		c0.501,4.376,1.287,9.513,1.758,14.996c0.472,5.48,0.913,11.35,1.773,17.065c0.471,5.772,2.521,11.346,3.419,16.837
		c1.085,5.439,1.392,10.721,0.726,15.176c-0.599,4.485-2.671,7.878-4.541,9.64c-1.841,1.833-3.262,2.406-3.195,2.484
		c-0.074-0.075,1.303-0.771,2.94-2.712c1.721-1.871,3.27-5.268,3.674-9.558c0.479-4.298-0.188-9.367-1.31-14.69
		c-0.957-5.353-3.104-10.908-3.695-16.859c-0.793-5.907-1.13-11.75-1.52-17.241c-0.418-5.465-0.8-10.564-1.137-14.934
		c-0.098-2.195-0.554-4.182-0.748-5.959c-0.255-1.773-0.472-3.318-0.651-4.59C656.727,412.455,656.517,410.999,656.517,410.999z"/>
	<path d="M779.221,425.73c2.515-8.364,8.537-13.721,9.547-14.731c0.83,2.013,2.566,5.028,4.295,5.529
		c1.729,0.501,7.422,2.342,11.94,1.84s3.352,1.174,0,1.504c-3.345,0.336-11.215-3.007-15.067-2.506
		c-3.846,0.501-4.684,1.002-7.025,3.344C780.561,423.052,780.059,425.229,779.221,425.73z"/>
	<path d="M812.058,456.271c-8.716,4.952-9.479,9.808-11.783,14.581c-2.304,4.766-9.083,8.035-12.726,9.292
		c5.214-2.342,9.419-8.207,10.092-11.222c-4.354,1.676-6.367,2.678-8.371,4.855c3.516-5.686,9.352-6.494,10.533-8.604
		C800.985,463.063,808.062,456.173,812.058,456.271z"/>
	<path d="M822.727,548.33c-2.305-2.76-3.838,4.138-2.596,6.809c0.27,0.576,0.711,1.145,1.204,1.691c0-0.068-0.015-0.15-0.007-0.21
		c1.301,1.302,2.7,2.604,4.047,3.479c0.074,0.045,0.143,0.09,0.202,0.128c0.127,0.074,0.247,0.135,0.366,0.201
		C826.094,556.126,825.016,551.084,822.727,548.33z"/>
	<g>
		<path d="M798.188,556.972c-4.369-4.369-7.9-8.746-10.086-11.268c2.186,5.215,3.195,8.911,3.359,11.604
			c0.172,2.693-1.002,5.723-3.359,3.867c-2.356-1.848-2.857-7.735-6.897-10.93c-4.032-3.195-7.228-2.521-9.075-6.891
			s-1.855-11.769-6.727-11.432c-4.877,0.329-21.838,14.506-32.889,15.764c-11.042,1.256-21.756,2.596-37.826,8.963
			c-16.07,6.359-33.15,10.481-40.85,14.446c-7.705,3.966-18.419,9.995-35.155,14.679c-16.743,4.684-25.115,7.033-32.814,10.048
			c-7.698,3.008-14.73-1.886-8.7-6.808c6.022-4.916,37.16-27.757,44.193-35.418c5.222-5.693,12.897-19.152,25.467-27.353
			c-14.597,7.833-24.6,18.891-27.809,23.237c-4.22,5.709-25.452,19.55-30.136,21.898c-4.691,2.342-10.714,7.699-15.405,4.018
			c-4.683-3.688-9.037-8.177-8.363-14.971c0.665-6.793,4.01-16.653,2.342-22.773c-1.677-6.12-7.707-7.796-14.731-17.499
			c-7.033-9.712-23.993-21.577-23.664-28.273c0.119-2.349,3.427-12.824,2.872-15.741l-5.162,11.537
			c-3.008,19.078,3.016,37.16,9.046,52.229c6.022,15.068,11.042,30.637,13.556,42.188c2.515,11.552,1.34,30.128,3.016,38.5
			s5.356,16.07,10.714,16.743c5.356,0.666,31.804-17.746,44.193-25.115c12.39-7.361,60.937-22.43,74.329-30.465
			c13.392-8.035,54.57-25.107,62.276-30.473c7.698-5.356,16.07-10.713,20.589-10.212c4.52,0.501,7.205,7.87,10.385,11.552
			c3.18,3.688,12.389,13.564,16.07,15.741c3.681,2.177,3.18,0.164,3.18-2.013c0-2.178-0.913-5.985,0.021-6.733
			c0.936-0.756,3.704,2.259,5.462,4.392c1.751,2.133,9.412,6.651,13.557,7.406c1.317,0.24,2.7,0.375,4.062,0.42
			c1.586-0.479,2.462-0.741,2.462-0.741C812.648,566.893,802.564,561.349,798.188,556.972z"/>
		<path d="M646.828,526.245c4.549-2.439,9.531-4.579,14.918-6.09C656.112,521.188,651.175,523.409,646.828,526.245z"/>
	</g>
	<g>
		<path d="M307.496,683.597c-0.389,0.149-0.808,0.3-1.197,0.441c-14.559,5.528-33.143,11.552-48.211,14.566
			s-31.639,12.554-37.168,18.584c-3.785,4.13-20.544,17.103-36.375,26.964l0,0c3.172,3.112,1.347,3.674,1.347,8.192
			s-6.651,14.686-8.664,18.075c-2.005,3.396-8.664,7.287-9.038,10.676c-0.374,3.39,3.644,5.402,4.399,8.791
			c0.749,3.39-4.399,9.913-5.911,11.671c-1.496,1.759-3.89,3.644,0,4.146c3.898,0.501,12.562-2.133,19.587-5.147
			c7.033-3.016,13.062-13.938,14.821-17.327c1.758-3.39-0.247-6.022,2.012-8.282s4.766-16.07,4.264-25.116
			c-0.501-9.037,12.809-12.554,30.136-12.299c14.889,0.209,30.151-8.985,43.198-13.444c13.041-4.452,26.402-17.178,36.907-27.675
			c9.778-9.785,15.854-19.504,28.363-23.507L307.496,683.597z"/>
	</g>
	<g>
		<g>
			<path fill="#FFFFFF" d="M544.803,360.978c-16.303,5.798-46.655,3.651-61.222-5.888c-14.559-9.546-34.647-26.118-40.677-66.795
				c-6.03-40.685-9.539-91.911-31.138-106.474c-21.592-14.563-50.725-26.114-81.361-16.572
				c-30.63,9.542-87.385,37.666-106.463,52.734c-19.093,15.067-79.356,72.316-91.409,80.853
				c-12.053,8.544-40.176,22.729-52.729,30.951c-12.555,8.223-25.049,16.991-31.879,22.183c-1.616,1.549-4.385,3.404-4.564,4.392
				c-0.24,1.347,1.855,2.386,2.791,2.731c1.511,0.553,0.449,1.002,0.127,2.064c-0.321,1.085,0.382,1.557,1.212,2.237
				c-1.399,1.212-3.741,2.857-2.379,5.02c1.294,2.072,4.302,1.908,6.494,2.05c-0.531,0.606-1.1,1.668-0.86,2.461
				c0.539,1.788,3.606,1.205,5.042,1.294c-0.958,0.958-1.227,1.563-1.781,2.701c0.928,1.22,3.696,0.756,5.043,1.018
				c1.376,0.254,2.678,0.471,4.055,0.658c-0.673,0.457-0.748,1.504-0.18,1.878c0.479,0.307,1.96,0.112,2.574,0.194
				c0.748,0.098,1.601,0.39,2.364,0.225c0.718-0.157,1.287-0.726,2.095-0.621c-0.143,0.793,1.137,1.04,1.811,0.928
				c13.556-1.002,19.833-2.506,24.105-6.523c4.519,3.262,21.591,12.367,30.135,6.561c7.527,4.235,31.632,13.025,41.433,8.252
				c8.282,4.519,39.173,15.823,52.475,10.796c9.793,3.269,63.534,10.549,81.609-4.52c14.065-0.755,40.887,0.576,50.979,7.534
				c15.906,10.968-3.434,25.691-23.702,43.55"/>
			<path d="M329.469,447.603l-1.332-1.504c1.609-1.421,3.217-2.82,4.796-4.197c13.347-11.641,24.876-21.697,24.42-29.836
				c-0.172-2.944-1.945-5.54-5.417-7.938c-9.277-6.397-34.699-8.178-50.029-7.374c-18.464,14.926-70.775,8.122-81.968,4.594
				c-13.751,4.811-43.864-6.199-52.535-10.74c-10.265,4.392-33.345-3.901-41.358-8.203c-9.038,5.379-25.198-3.191-30.091-6.453
				c-4.302,3.685-10.399,5.237-24.113,6.251c-0.568,0.075-1.758-0.004-2.431-0.681c-0.038-0.042-0.075-0.083-0.112-0.127
				c-0.067,0.034-0.142,0.067-0.232,0.108c-0.284,0.135-0.606,0.288-0.987,0.371c-0.749,0.164-1.467,0.029-2.117-0.105
				c-0.202-0.038-0.404-0.079-0.591-0.105c-0.18-0.022-0.457-0.015-0.741-0.007c-1.025-0.003-1.721,0-2.244-0.336
				c-0.531-0.348-0.846-0.954-0.846-1.627c0-0.101,0.007-0.206,0.015-0.307c-0.89-0.138-1.773-0.292-2.686-0.46
				c-0.382-0.071-0.86-0.078-1.384-0.09c-1.489-0.033-3.344-0.074-4.279-1.305l-0.374-0.494l0.269-0.558
				c0.232-0.471,0.427-0.868,0.629-1.234c-1.579-0.008-3.419-0.27-3.95-2.031c-0.18-0.595-0.098-1.234,0.119-1.829
				c-2.064-0.116-4.392-0.438-5.641-2.439c-1.512-2.405,0.321-4.357,1.698-5.566c-0.584-0.617-0.973-1.38-0.644-2.506
				c0.104-0.352,0.262-0.64,0.396-0.872c-1.833-0.7-3.651-2.054-3.337-3.816c0.172-0.972,1.212-1.866,3.03-3.366
				c0.644-0.531,1.302-1.07,1.825-1.575c7.52-5.723,20.35-14.652,32.021-22.299c5.686-3.718,14.387-8.57,23.597-13.706
				c11.072-6.172,22.527-12.558,29.103-17.223c6.052-4.287,24.337-20.937,43.7-38.56c18.786-17.11,38.216-34.804,47.672-42.263
				c19.183-15.15,76.072-43.333,106.784-52.902c32.508-10.13,62.643,3.494,82.223,16.695c18.815,12.688,24.008,51.391,29.028,88.82
				c0.838,6.24,1.661,12.401,2.543,18.341c5.783,38.994,24.54,55.809,40.236,66.1c13.608,8.914,43.482,11.769,60.331,5.783
				l0.673,1.893c-15.547,5.533-46.707,4.081-62.111-5.993c-16.041-10.523-35.216-27.704-41.119-67.491
				c-0.883-5.944-1.706-12.116-2.543-18.367c-4.96-36.988-10.093-75.234-28.161-87.418c-19.205-12.954-48.757-26.316-80.501-16.448
				c-30.547,9.521-87.093,37.52-106.141,52.565c-9.396,7.414-28.796,25.082-47.567,42.17
				c-19.399,17.667-37.729,34.355-43.879,38.713c-6.673,4.729-18.172,11.14-29.29,17.339c-9.18,5.117-17.851,9.95-23.47,13.635
				c-11.641,7.62-24.427,16.52-31.827,22.142c-0.471,0.464-1.167,1.036-1.848,1.598c-0.868,0.718-2.185,1.799-2.342,2.214
				c-0.052,0.31,0.868,1.092,2.155,1.567c0.524,0.191,1.152,0.494,1.376,1.141c0.232,0.662-0.112,1.219-0.344,1.59
				c-0.12,0.194-0.232,0.377-0.292,0.568c-0.082,0.299-0.104,0.363,0.718,1.028l0.927,0.756l-1.145,1.269
				c-1.766,1.485-2.438,2.326-1.773,3.378c0.845,1.361,2.948,1.455,4.803,1.537l2.94,0.176l-1.347,1.534
				c-0.472,0.539-0.733,1.242-0.651,1.507c0.202,0.67,1.855,0.625,2.94,0.588c0.464-0.016,0.868-0.03,1.197-0.004l2.222,0.138
				l-1.571,1.575c-0.621,0.617-0.89,1.033-1.212,1.669c0.599,0.19,1.557,0.213,2.245,0.228c0.651,0.015,1.257,0.038,1.713,0.124
				c1.347,0.25,2.634,0.467,3.995,0.65l2.604,0.352l-2.177,1.474c-0.105,0.071-0.127,0.24-0.112,0.292
				c0.045-0.056,0.695-0.067,1.04-0.071c0.396-0.011,0.785-0.007,1.04,0.026c0.225,0.03,0.471,0.075,0.718,0.124
				c0.464,0.097,0.936,0.202,1.302,0.116c0.157-0.038,0.344-0.124,0.554-0.224c0.456-0.217,1.07-0.513,1.878-0.412l1.047,0.135
				l-0.135,0.752c0.172,0.049,0.426,0.098,0.606,0.045c13.931-1.032,19.639-2.555,23.582-6.266l0.606-0.565l0.673,0.483
				c4.998,3.605,21.128,11.858,28.983,6.546l0.509-0.352l0.546,0.307c7.968,4.478,31.355,12.674,40.498,8.226l0.464-0.228
				l0.456,0.247c7.631,4.167,38.642,15.651,51.645,10.739l0.33-0.127l0.344,0.112c9.083,3.034,62.853,10.485,80.644-4.336
				l0.254-0.213l0.336-0.019c14.462-0.771,41.328,0.625,51.601,7.709c4.025,2.772,6.075,5.873,6.284,9.475
				c0.517,9.124-11.357,19.479-25.101,31.468C332.679,444.793,331.077,446.188,329.469,447.603z"/>
		</g>
		<path fill-rule="evenodd" clip-rule="evenodd" d="M95.379,372.963c-4.429,2.088-15.688,6.023-19.729,2.866
			c0.808-0.703,1.638-2.229,2.274-2.805c-5.021,0.471-10.063,2.94-14.896,2.356c0.928-3.022,4.085-3.905,5.484-6.486
			c-1.803-1.31-4.915-0.965-6.778-0.314c-0.95-5.207,9.928-8.574,13.878-10.676c6.299-3.344,11.664-7.549,17.724-11.357
			c11.185-7.018,24.869-13.062,34.063-22.818c-3.471-0.322-6.27,1.571-9.554,2.207c1.332-4.736,8.851-5.799,12.741-7.452
			c4.773-2.027,9.592-5.222,14.282-8.065c7.16-4.347,19.691-9.861,23.245-17.806c-3.292,0.404-7.818,1.332-11.342,2.372
			c9.726-10.542,26.193-6.793,36.63-14.642c4.593-3.449,7.541-7.803,11.521-11.716c3.658-3.599,11.97-12.801,17.29-12.839
			c-1.728,2.305-4.055,4.616-6.217,6.696c8.985,0.554,14.649,0.082,22.116-5.103c6.03-4.189,14.394-9.367,18.479-15.457
			c-4.578,1.078-9.082,2.918-13.766,4.078c-1.751-4.317,14.229-12.711,18.404-14.843c0.846,2.477-0.434,4.982-2.708,6.322
			c2.289-8.095,20.626-16.601,27.592-20.215c9.075-4.706,21.008-12.875,25.579-21.95c0.172,11.484-21.599,18.831-25.894,29.088
			c5.207-3.644,10.579-11.237,17.851-12.666c-1.092,4.541-7.571,6.987-7.983,12.188c5.223-2.985,9.988-8.327,15.449-11.208
			c6.09-3.202,12.592-5.768,18.569-9.292c-3.89,5.409-9.277,10.407-14.858,14.275c5.537-4.1,10.863-6.801,17.731-8.963
			c7.945-2.499,12.188-7.265,18.704-11.529c-4.976,6.464-7.841,8.664-15.367,11.724c-6.928,2.813-10.22,7.025-15.898,11.446
			c7.452-1.915,15.479-7.84,22.497-10.563c-1.736,4.062-6.195,6.127-8.896,9.883c6.202,1.175,14.058-5.349,19.684-7.234
			c5.619-1.886,12.218-1.003,18.562-0.599c-6.142,5.125-21.3-0.987-24.816,8.634c4.706,3.92,11.896-0.232,16.864-1.092
			c3.838-0.659,7.466,0.307,11.267,0.412c5.507,0.149,8.387-0.86,12.966-3.905c3.412-2.268,6.045-6.404,10.542-5.395
			c-0.576,4.407-7.556,7.504-11.305,9.292c2.334,1.077,5.566,0.778,8.349-0.149c0.345,2.058-0.359,4.361-1.548,6.038
			c7.392,1.092,8.641-7.272,14.252-8.267c5.162-0.92,6.606,5.401,7.766,9.853c2.724,10.452,8.267,21,10.018,31.879
			c2.021,12.539,3.412,25.377,6.786,37.58c2.716,9.793,5.948,19.415,5.903,29.769c0.599-9.501-1.84-22.766-5.648-31.475
			c-1.699-3.875-5.23-6.314-7.564-9.786c-3.591-5.35-3.254-9.696-3.808-15.876c-0.763-8.597,0.045-17.47-5.888-24.435
			c-4.316-5.073-12.928-16.489-19.228-7.766c0.958-2.708,3.441-4.564,4.841-6.733c-8.058-3.599-16.085,12.03-25.019,8.118
			c1.691-2.409,4.152-5.94,3.584-8.559c-7.107,2.88-10.691,11.065-17.544,13.594c-4.062,1.503-13.774,0.605-15.958-3.022
			c-4.123,3.389-13.833,4.571-19.392,5.192c1.31-2.02,3.112-4.818,2.566-7.736c-7.908,6.239-15.397,8.222-24.832,10.145
			c-8.11,1.654-14.028,8.245-21.068,10.213c0.374-3.255,3.254-6.053,2.349-9.801c-2.888,2.82-8.447,4.945-12.584,5.252
			c2.521-8.005,16.639-11.357,17.447-18.121c-14.724,7.856-29.133,16.542-43.468,25.512c0.958-1.938,2.103-4.078,1.855-6.562
			c-3.636,5.462-10.175,9.733-15.965,12.674c-2.559,1.294-10.407,5.611-13.362,5.185c1.347-1.437,1.795-3.142,2.543-4.384
			c-5.761,4.75-11.499,10.107-17.791,13.998c-6.868,4.242-13.078,3.965-18.914,9.067c-10.743,9.389-19.796,23.604-32.813,30.614
			c-3.375,1.818-7.362,1.093-10.504,2.783c-2.858,1.526-5.716,4.437-7.84,6.846c-3.966,4.474-6.255,10.078-9.727,14.783
			C118.362,355.457,104.933,366.798,95.379,372.963z"/>
		<path fill-rule="evenodd" clip-rule="evenodd" d="M106.242,374.19c3.27-1.212,3.172-0.569,6.053-2.903
			c2.267-1.84,4.212-4.055,6.748-5.521c0.688,2.821-6.209,7.826-7.526,10.781c5.364,1.848,9.636-3.18,13.99-4.833
			c0.038,2.035-1.878,3.786-2.319,5.769c4.354,0.845,9.569-3.554,13.146-5.604c4.99-2.858,10.1-5.387,14.664-8.806
			c4.661-3.487,9.187-7.631,13.751-11.379c3.86-3.157,9.037-6.045,11.925-10.085c3.381,4.788-9.636,12.703-10.953,17.724
			c2.648-1.145,5.708-2.484,8.528-3.135c-0.374,2.73-7.189,5.364-8.978,8.17c3.157,0.538,10.609-5.088,12.636-7.736
			c0.052,1.751-1.287,4.279-2.304,5.851c2.693-2.289,5.634-4.324,8.372-6.688c1.818-1.563,3.695-3.711,5.843-4.751
			c3.307,5.208-12.629,9.569-11.26,15.121c4.863-1.795,9.786-4.953,13.961-8.118c1.915-1.437,4.339-2.716,6.052-4.519
			c1.564-1.653,1.878-3.674,2.978-5.626c2.222-3.943,4.84-6.891,8.446-9.734c3.486-2.753,6.277-7.421,10.804-8.641
			c-4.923,4.811-11.268,8.963-15.981,14.387c-4.1,4.721-6.419,10.767-10.002,15.921c-3.629,5.222-7.31,10.586-11.679,15.382
			c-3.053,3.345-8.552,11.38-13.796,11.155c-0.688-6.793,7.825-8.611,11.925-11.873c2.274-1.811,4.638-3.382,6.793-5.379
			c1.421-1.309,4.99-4.855,4.676-6.861c-2.656-0.194-5.955,2.888-8.447,3.928c-3.733,1.563-7.691,2.925-10.908,5.379
			c-0.539-1.519,1.01-4.317,1.93-5.559c-0.464,1.444-2.364,1.863-3.875,1.893c-0.599-2.432,2.514-3.636,2.244-5.948
			c-2.91,0.764-5.626,3.838-8.544,5.11c-2.327,1.018-4.736,1.608-7.018,2.768c-1.736,0.883-3.726,2.828-4.893,0.337
			c-1.362-2.94,3.905-4.601,5.97-5.693c1.624-0.86,6.15-2.918,5.985-4.9c-0.254-3.194-3.172-1.04-4.392-0.015
			c-3.808,3.217-22.198,10.998-26.433,13.841c-3.576,2.394-8.132,7.361-13.018,6.733c0.18-1.257,0.711-2.574,1.1-3.861
			c-1.563-0.352-5.858,2.566-8.087,2.978c-3.771,0.688-4.25-0.509-4.833-3.704c-2.14,0.157-3.95,0.928-6.209,0.614
			C103.07,374.168,105,374.773,106.242,374.19z"/>
		<path fill-rule="evenodd" clip-rule="evenodd" d="M186.033,380.976c7.354-8.394,32.291-18.801,38.074-22.602
			c6.936-4.563,12.359-11.746,16.459-18.936c4.976-8.724,10.744-17.2,15.592-26.051c4.205-7.653,10.691-18.098,19.534-21.173
			c-4.825,5.724-7.563,12.135-11.26,18.592c-3.509,6.112-9.337,10.945-13.444,16.526c-3.703,5.05-6.501,10.714-9.86,15.936
			c-2.806,4.354-6.435,8.02-8.364,12.718c2.753,0.554,6.942-1.392,9.389-2.491c3.808-1.728,6.704-4.474,9.861-7.025
			c3.726-3.023,7.406-5.851,10.945-9.045c3.194-2.873,7.115-7.182,10.976-8.925c-5.05,4.99-8.559,10.519-9.502,14.342
			c6.09-3.449,9.112-7.399,14.372-9.711c1.115,2.274-3.225,5.633-4.519,7.519c2.132,0.92,12.396-5.843,14.589-7.474
			c3.404-2.544,6.756-5.507,10.751-7.362c-0.165,4.571-9.973,8.155-13.392,10.504c-4.549,3.128-9.516,5.477-14.118,8.47
			c-4.855,3.149-8.738,7.324-12.576,11.551c-2.858,3.15-8.14,7.369-9.367,11.267c4.586-1.698,8.813-5.948,13.856-6.995
			c0.105,1.556-1.197,2.356-1.706,3.756c3.411-1.123,5.97-4.287,9.232-6.24c3.381-2.028,6.928-3.681,10.339-5.851
			c3.995-2.529,6.973-6.023,10.609-8.963c2.042-1.654,7.511-4.511,6.846-7.556c-8.731,0.957-12.636,13.145-20.971,14.027
			c-1.369-6.12,9.546-11.529,13.789-14.2c6.292-3.965,10.99-9.375,16.743-13.624c2.319-1.714,4.983-4.167,4.033,0.763
			c-0.614,3.18-3.217,5.716-5.507,7.773c-3.322,3-11.701,9.793-10.563,15.061c3.329,0.284,8.873-5.656,11.596-7.579
			c3.21-2.267,6.727-4.601,10.123-6.524c1.818-1.033,4.22-3.209,6.322-3.172c-1.474,1.841-5.394,3.494-7.616,4.549
			c-3.127,1.489-4.549,3.322-7.497,5.11c-5.125,3.104-11.178,9.037-14.716,13.796c-5.372,7.234-10.175,12.494-13.579,20.844
			c-3.022,7.437-7.332,14.544-12.532,20.821c-2.978,3.599-4.601,4.609-9.225,5.252c-4.242,0.591-8.528,0.688-12.688,1.376
			c3.531-3.344,12.113-6.621,12.262-12.666c-1.833,1.025-4.317,2.244-6.471,2.73c-0.225-2.506,5.192-6.104,6.628-8.529
			c1.234-2.087,2.028-4.75,1.571-7.219c-1.287,0.119-2.319,1.062-3.471,1.713c-0.479-0.846-0.673-1.885-0.591-2.896
			c-2.611,0.427-6.733,5.005-8.753,7.107c-2.596,2.693-4.916,5.626-7.602,8.028c-5.506,4.93-12.883,9.786-20.282,10.198
			c1.825-3.247,7.706-5.566,10.706-7.571c2.536-1.699,8.536-5.245,9.419-8.163c-3.262-0.195-5.97,3.614-9.157,3.038
			c-0.434-3.067,6.539-6.95,8.372-9.016c2.701-3.052,4.399-6.846,5.14-10.788c-2.798,0.688-4.579,3.18-6.441,5.125
			c-1.758,1.833-3.838,6.127-6.188,6.785c-0.718-3.815,3.92-6.276,6.188-8.483c-5.724-0.307-10.377,2.371-14.477,6.344
			c-1.639-4.683,11.372-8.199,14.35-10.092c4.803-3.052,6.344-7.923,9.022-12.629c-3.21,3.24-7.803,4.713-12.24,6.749
			c-4.818,2.214-7.347,8.215-13.032,8.91c-0.008-1.638,0.733-3.449,1.496-4.855c-2.724-0.965-8.993,5.911-10.998,7.908
			c-3.299,3.307-7.796,5.746-10.414,10.743c-2.499-2.978,4.78-7.594,6.12-9.307c-4.669-1.257-7.033,2.992-10.258,6.225
			c-0.718-3.21,3.838-5.245,5.634-7.115C197.487,373.606,191.143,377.467,186.033,380.976z"/>
		<path fill-rule="evenodd" clip-rule="evenodd" d="M301.967,395.49c1.766-1.175,10.624-8.761,11.903-10.519
			c2.469-3.389,6.389-5.626,8.843-8.985c2.641-3.614,5.125-7.601,8.866-10.242c2.798-1.975,6.352-4.744,9.666-5.304
			c-0.733,1.287-1.781,1.803-2.813,2.865c-0.987,1.018-1.586,2.064-2.222,3.419c-0.936,1.982-2.903,5.701-1.871,7.916
			c0.718-1.19,2.065-2.267,2.933-3.397c1.287-1.676,2.417-3.359,3.606-5.132c1.167-1.743,2.409-3.621,3.883-5.08
			c1.542-1.519,3.554-2.267,5.342-3.486c-2.222,2.888-5.274,4.459-7.197,7.646c-1.556,2.581-3.045,5.169-4.653,7.699
			c-1.384,2.169-3.284,4.803-6.209,4.938c-1.594,0.067-1.466-0.404-1.145-2.162c0.27-1.481,0.883-2.461,1.766-3.629
			c1.512-1.96,3.838-5.985-0.381-3.583c-2.499,1.421-4.309,3.973-6.135,6.194C321.733,380.019,307.84,391.285,301.967,395.49z"/>
		<path d="M415.282,378.193c-1.189,0.628-8.679,5.716-9.547,6.756c-2.604,3.135-5.589,5.97-9.217,7.885
			c-2.963,1.571-5.687,3.681-8.806,4.99c-0.95,0.396-2.028,0.531-3.008,0.92c-0.823,0.329-1.624,0.659-2.484,0.875
			c-2.005,0.494-4.018,0.913-6.038,1.212c-2.02,0.299-3.988,0.868-5.993,1.047c-1.885,0.165-3.92,0.052-5.79-0.083
			c-2.993-0.225-7.961-1.309-10.894-2.02c16.572,3.022,31.64-0.696,43.692-9.135C409.252,382.21,403.73,385.727,415.282,378.193z"/>
		<path d="M440.562,353.751c-2.895-3.576-7.002-7.332-8.678-11.455c-1.339-3.299-1.706-6.973-2.724-10.302
			c-0.554-1.803-1.249-3.703-2.469-5.282c-1.414-1.833-4.459-3.524-4.212-6.038c0.509-5.192,7.324,0.606,10.377-0.225
			c-1.279-1.114-3.449-1.571-5.028-2.873c-1.998-1.638-3.27-3.838-5.02-5.686c-3.367-3.554-5.724-5.484-7.048-10.28
			c-2.491-9.053-2.648-17.155-8.327-24.517c-2.82-3.651-3.104-6.27-4.002-10.557c-0.755-3.621,0.741-6.778,0.314-10.279
			c-0.613-5.14-5.835-4.474-8.746-7.983c-1.773-2.147-3.659-9.03-6.531-9.254c4.795,4.212,5.596,7.018,7.294,12.965
			c1.339,4.713,2.491,9.247,4.287,13.789c3.09,7.825,2.387,16.586,4.025,24.801c0.187-2.94-1.683-14.702,2.417-7.197
			c2.686,4.916,5.274,9.749,7.713,14.858c2.364,4.953,4.309,10.056,6.891,14.956c0.419,0.8,1.429,2.237,1.481,3.075
			c0.112,1.736-0.897,1.579-1.279,2.978c-0.591,2.14-0.8,4.593,0.292,6.733c-4.594,1.608-8.791-4.938-10.684-8.305
			c-0.456,4.982,5.469,7.437,8.761,9.606c3.396,2.252,5.873,4.952,7.497,8.641c1.549,3.502,1.893,8.185,4.347,11.147
			c2.05,2.469,8.581,4.43,9.568,7.579L440.562,353.751z"/>
		<path fill-rule="evenodd" clip-rule="evenodd" d="M486.985,398.722c-3.681-5.185-7.011-9.554-11.237-14.372
			c-2.103-2.386-8.642-9.965-4.886-12.472c3.883-2.588,10.931,1.257,14.776-2.626c-1.16-1.302-3.016-1.167-4.676-1.631
			c-2.417-0.673-3.412-1.414-5.454-3.164c-2.042-1.759-7.384-4.646-6.486-7.886c5.551-0.194,9.172,2.154,14.11,3.546
			c4.976,1.399,10.399,3.531,15.966,3.292c-5.162-2.013-10.377-3.037-15.352-5.484c-5.678-2.791-10.624-6.845-16.063-9.973
			c-5.379-3.09-10.713-4.354-14.769-9.352c-4.16-5.132-5.401-10.646-7.833-16.646c0.352,6.86,2.573,15.898,5.491,21.996
			c2.274,4.75,8.462,10.729,8.746,16.13c-2.551-1.234-6.3-3.629-8.305-6.247c8.305,14.813,14.694,29.38-7.437,7.279
			c-3.187-3.516,4.848,8.372,3.344,15.741c-1.503,7.362-5.978,9.143-10.549,12.651c-11.694,8.985-22.093,4.758-35.657,11.312
			c-13.556,6.554-21.18,8.29-36.66,3.487c-2.356-0.726-4.653,0.037-0.673,1.264c3.987,1.227,23.133,4.593,31.557,0.763
			c8.425-3.831,10.871-4.444,17.462-5.514c6.584-1.07,8.709-1.998,10.751-1.04c2.035,0.965-11.05,10.556-15.067,12.232
			c-4.018,1.668,7.698,3.344,14.058,4.684c6.367,1.339-4.684,5.357-12.053,5.693c-7.362,0.336-32.478,3.681-37.498,0
			s-11.32-5.11-3.15-0.718c8.17,4.399,28.932,6.412,37.64,4.736c8.701-1.676,13.392-0.838,15.397,0.583
			c2.012,1.422,1.339,4.437-2.005,6.112c-2.664,1.332-5.514,4.557-3.561,6.666c-1.467,0.3-2.978,0.27-4.422-0.321
			c-7.01-2.851,0.86-5.439-0.666-8.529c-1.361-2.746-9.86,1.294-12.187,2.021c-4.37,1.354-7.818,2.125-12.875,1.893
			c-1.863-0.082-14.807,0.606-15.659-0.464c-2.289-2.88,5.484-5.17,2.514-7.998c-3.741-3.561-9.299,5.439-10.062-3.045
			c-0.322-3.501,4.459-8.26,3.015-11.484c-1.609-3.576-7.586-6.599-11.215-7.818c4.653,3,7.616,3.135,8.147,7.182
			c0.472,3.576-2.177,6.599-2.947,9.936c-0.868,3.733-0.756,7.631-1.698,11.432c-1.04,4.212-2.926,6.285-5.477,9.756
			c-2.731,3.726-3.988,8.035-7.01,11.552c-3.845,4.474-7.691,8.409-12.434,11.926c-1.467,1.092-5.424,3.052-3,5.147
			c1.601,1.384,4.325-0.943,5.918,1.114c-6.217,3.501-9.808,11.163-15.719,15.345c-3.838,2.716-7.564,5.327-11.566,7.803
			c-3.457,2.14-8.454,4.354-11.394,7.085c-2.29,2.117-3.502,5.618-5.133,8.267c-1.092,1.773-2.454,3.427-3.726,5.103
			c-2.753,1.137-5.35,2.521-7.242,4.698c-4.541,5.215-8.641,12.046-12.337,17.784c-2.162,3.352-3.674,7.811-6.636,10.406
			c-2.783,2.439-6.15,4.003-8.903,6.569c-3.016,2.82-5.552,6.389-7.033,10.324c-0.621,1.631-0.995,4.414-2.005,5.851
			c-0.942,1.347-3.142,2.356-4.519,3.217c-1.841,1.145-4.115,1.998-5.769,3.523c-1.713,1.579-2.417,3.606-4.369,5.028
			c-3.284,2.394-7.22,4.384-11.252,4.459c-3.636,0.067-7.175,0.771-10.526,2.027c-1.863,0.696-11.582,4.908-9.173,7.833
			c1.781-0.539,3.517-0.95,5.342-1.316c8.17-1.668,15.113,2.319,23.312,1.833c4.467-0.27,7.295-2.552,10.863-4.773
			c4.908-3.053,9.486-6.531,14.38-9.584c9.756-6.098,19.422-12.569,27.733-20.619c3.883-3.763,7.205-8.117,10.916-12.06
			c2.559-2.717,7.841-7.773,11.491-8.125l-0.074-0.486c2.753-0.831,5.095-3.202,7.571-4.452c1.78-0.89,3.628-1.616,5.401-2.521
			c3.434-1.766,6.936-3.517,10.474-5.08c8.746-3.846,16.041-10.228,24.128-15.248c8.484-5.26,18.509-9.104,27.989-12.547
			c7.998-2.91,16.512-2.408,24.554-5.229c10.945-3.838,20.492-9.718,32.275-11.424c11.821-1.706,24.061-2.896,33.846-9.771
			c4.369-3.067,8.178-7.564,10.968-12.225c2.888-4.848,5.918-12.704,5.799-18.367c-0.18-8.686-1.542-16.938-4.594-24.981
			c-1.826-4.811-2.229-11.342-5.604-15.277c3.979-1.608,17.791-0.98,19.766,4.272C494.833,404.924,489.634,402.456,486.985,398.722z
			"/>
		<path fill-rule="evenodd" clip-rule="evenodd" d="M279.507,286.798c8.462-5.88,12.854-19.916,22.886-23.724
			c0.554,3.831-5.222,5.806-4.309,9.27c5.506,0.92,11.656-5.169,16.452-7.474c0.067,1.159-0.464,2.708-0.524,4.1
			c2.267-3.591,8.956-6.801,12.472-9.299c4.526-3.209,9.12-6.127,13.063-10.025c0.755,4.115-9.831,13.931-12.412,17.185
			c-3.741,4.713-10.706,10.684-16.362,12.532c1.743-4.795,6.988-6.771,9.382-10.953c-3.419,0.905-5.357,3.397-8.94,3.442
			c-0.037-0.479-0.165-1.025-0.187-1.452c-4.968,1.1-8.559,7.99-13.048,10.115c-0.195-1.811,0.726-3.202,0.606-4.908
			c-2.506,1.511-4.631,0.374-4.018-2.753c-2.424,2.155-5.446,3.846-7.766,5.926C284.108,281.202,282.792,285.115,279.507,286.798z"
			/>
		<path fill-rule="evenodd" clip-rule="evenodd" d="M408.085,324.617c1.062,7.115,8.207,11.081,10.048,17.417
			c0.411,1.399-0.172,3.052,0.231,4.519c0.636,2.319,2.417,3.987,3.771,5.865c1.197,1.661,2.229,2.656,2.357,4.96
			c0.127,2.514-0.688,3.061-1.698,5.454c-0.254-5.73-6.861-8.072-10.28-3.995c-3.06,3.651-5.678,8.155-8.439,11.985
			c-6.591,9.15-11.147,20.724-23.896,21.659c1.496-3.366,8.641-3.681,10.953-7.676c1.548-2.671,0.928-6.307,1.443-9.292
			c-2.604,0.98-5.469,3.052-7.563,4.855c-0.239-1.152,0.127-2.648,0.494-3.479c-2.873-0.285-5.619,2.267-8.132,3.389
			c-3.045,1.369-6.098,1.706-9.396,1.96c6.239-2.851,12.209-6.165,18.083-9.569c5.925-3.434,8.686-6.935,11.963-12.726
			c-3.329,2.716-8.14,3.808-11.342,6.098c1.017-4.467,7.25-5.35,6.89-11.125c-3.479,1.713-8.297,4.728-12.359,4.055
			c0.936-1.893,3.86-1.953,4.931-3.838c-3.105,0.149-6.322,2.401-9.494,1.84c-0.09-3.606,10.055-6.673,12.905-8.753
			c3.157-2.297,4.744-8.746,7.504-10.145c1.414,4.234-2.835,8.499-5.117,11.641c2.05,3.651,10.235-6.299,11.372-8.334
			c1.04,3.172,0.763,5.244-0.644,8.035c5.14,2.648,8.215-4.384,8.432-8.327C411.354,336.267,407.277,330.857,408.085,324.617z"/>
		<path fill-rule="evenodd" clip-rule="evenodd" d="M306.493,303.362c6.18,0.21,14.319-7.227,16.953-11.858
			c-0.038,1.938-1.152,5.395,0.703,5.889c1.825,0.486,6.172-2.611,7.668-3.614c5.387-3.613,7.691-7.661,10.789-13.01
			c3.142-5.439,6.898-10.594,10.212-15.839c3.262-5.177,6.532-9.838,12.375-12.277c-1.609,2.439-6.592,8.993-6.09,12.105
			c2.319-3.337,6.232-4.684,9.681-6.733c2.73-1.624,5.207-3.703,7.848-5.477c-2.102,1.212-7.018,5.648-6.569,8.177
			c1.467-0.875,3.284-1.967,4.803-2.978c1.339-0.883,4.025-3.352,5.611-3.494c6.038-0.562-1.234,7.474-2.506,8.73
			c-3.412,3.39-8.013,6.659-11.073,10.475c-1.407,1.758-2.484,3.225-4.055,4.728c-1.369,1.309-3.539,3.165-4.249,4.706
			c2.491-0.022,4.533-3.254,6.441-3.202c0.695,4.609-8.065,7.975-7.699,12.21c2.843-1.826,4.938-4.265,7.96-5.933
			c3.03-1.676,7.489-2.185,9.838-4.998c-1.458-0.209-2.828,0.285-4.279,0.322c-0.942-3.27,4.265-3.741,5.462-5.851
			c-7.078-3.165,2.828-8.282,5.528-10.31c3.337-2.514,7.849-7.886,6.793-12.569c-2.446,0.016-3.232,1.228-4.668-0.695
			c-0.987-1.332,0.853-2.207-1.489-2.08c-0.815,0.053-2.11,1.13-2.708,1.631c-0.06-0.942,0-1.952-0.119-2.843
			c-2.851-0.583-5.537,2.933-7.489,4.451c-5.619,4.362-0.472-2.566-0.763-4.406c-10.123,0.98-17.896,12.008-24.487,19.183
			c-3.442,3.763-5.035,8.229-7.332,12.883c-3.958,8.013-8.843,11.851-12.419,13.706c-0.838-1.182-1.676-6.898-1.833-8.2
			c-3.524,1.316-4.938,5.828-7.407,8.648c-1.766,2.021-3.112,3.913-5.334,5.245C310.443,301.372,309.545,302.128,306.493,303.362z"
			/>
		<path fill-rule="evenodd" clip-rule="evenodd" d="M279.507,271.05c3.674-3.778,9.688-8.798,12.502-13.272
			c-4.414,0.613-7.302,5.933-11.716,7.287c-2.514,0.771-5.147,0.815-7.677,1.414c-2.326,0.554-4.519,1.96-6.808,2.334
			c0.015-3.18,3.262-5.416,3.366-8.641c-2.319,1.833-5.432,4.96-8.117,6.022c-0.157-1.563-0.008-3.27-0.194-4.803
			c-2.507,1.07-6.277,5.551-8.566,7.526c-2.97,2.574-6.472,4.699-9.314,7.444c-2.798,2.693-7.699,11.948-11.934,11.918
			c-0.793-4.025,2.664-8.163,5.791-10.16c-1.032,2.753-6.875,6.052-9.374,7.982c-2.806,2.17-5.873,3.891-9.375,4.758
			c0.075-1.938,1.138-3.995,2.005-5.708c-5.537,0.786-8.619,8.791-11.746,12.562c-4.145,4.982-10.968,8.305-14.874,13.489
			c8.163-5.35,17.088-9.232,24.832-14.985c0.86,3.875-4.392,8.356-7.025,10.422c2.656-0.277,5.327-4.01,7.376-5.769
			c2.738-2.349,5.417-4.878,7.871-7.437c2.394,3.913-6.591,10.698-9.202,13.228c2.604-0.524,6.382-4.878,8.521-6.637
			c2.027-1.668,4.878-3.531,6.449-5.671c1.638-2.237,1.75-5.282,4.025-7.31c3.105-2.768,4.152-1.683,6.24,0.764
			c2.611-2.245,4.055-4.826,5.648-7.751c2.05-3.756,3.546-4.841,7.107-7.055c2.349,2.768-0.763,5.604-2.664,7.526
			c2.334-3.187,3.906-3.24,5.686-6.965c1.115-2.334,3.053-8.896,6.359-7.032c-1.287,1.092,0.12,4.631-0.374,6.225
			c2.91,1.421,9.846-3.33,12.659-4.407c0,3.547-6.614,6.809-9.532,7.639C270.013,276.676,276.672,273.309,279.507,271.05z"/>
	</g>
	<g>
		<path d="M221.989,719.366l0.127,0.104l-2.297-1.557l-0.157-0.119l0.217,0.172l-0.104-0.067l0.928,0.688l-0.322-0.239l0.03,0.045
			l-0.329-0.239l0.801,0.643l-1.032-0.777l-0.202-0.135l0.254,0.231l-0.448-0.396l0.179,0.165l0.075,0.06l-0.254-0.225l0.867,0.786
			l-0.307-0.277l1.653,1.526l-0.029,0.03l-1.721-1.586l-0.374-0.352l-0.165-0.165l0.053,0.052l-0.756-0.748l-1.407-1.346
			l-0.067,0.074l-0.21,0.284L221.989,719.366z M222.004,719.336l-0.299,0.382l-0.098,0.104l-1.406-1.354l-0.771-0.733l0.052,0.053
			l-0.164-0.172l-0.359-0.352l-1.713-1.602l-0.022,0.023l1.653,1.518l-0.307-0.276l0.883,0.793l-0.262-0.231l0.075,0.067l0.18,0.157
			l-0.441-0.396l0.254,0.224l-0.18-0.157l-1.017-0.793l0.808,0.637l-0.329-0.24l0.037,0.03l-0.321-0.239l0.935,0.688l-0.105-0.075
			l0.232,0.165l-0.165-0.112l-2.289-1.564l0.142,0.09L222.004,719.336z"/>
		<path d="M218.562,722.448l0.104,0.127l-1.952-1.968l-0.135-0.142l0.18,0.202l-0.09-0.082l0.793,0.845l-0.277-0.284l0.022,0.045
			l-0.284-0.299l0.688,0.77l-0.891-0.935l-0.172-0.165l0.21,0.262l-0.375-0.456l0.15,0.18l0.06,0.075l-0.217-0.262l0.741,0.92
			l-0.262-0.322l1.407,1.759l-0.03,0.022l-1.459-1.833l-0.329-0.404l-0.135-0.18l0.045,0.06l-0.644-0.853l-1.189-1.541l-0.045,0.037
			l-0.165,0.143L218.562,722.448z M218.577,722.434l-0.284,0.254l-0.09,0.075l-1.197-1.542l-0.651-0.838l0.052,0.061l0.022,0.037
			l-0.165-0.217l-0.307-0.419l-1.451-1.841l-0.016,0.016l1.407,1.75l-0.262-0.321l0.741,0.913l-0.217-0.262l0.067,0.074l0.149,0.18
			l-0.374-0.464l0.209,0.27l-0.142-0.194l-0.86-0.966l0.695,0.771l-0.284-0.307l0.038,0.037l-0.277-0.291l0.793,0.846l-0.082-0.09
			l0.194,0.194l-0.135-0.135l-1.953-1.982l0.127,0.112L218.577,722.434z"/>
		<path d="M218.57,714.428l-0.09-0.149l1.795,2.117l0.127,0.143l-0.172-0.21l0.089,0.09l-0.771-0.867l0.262,0.299l-0.029-0.045
			l0.284,0.299l-0.696-0.763l0.898,0.935l0.187,0.143l0.569,0.568l0.045,0.045l-0.426-0.419l0.172,0.165l0.067,0.074l-0.239-0.239
			l0.823,0.831l-0.292-0.292l1.578,1.601l-0.015,0.016l-1.653-1.661l-0.396-0.39l-0.083-0.082l0.733,0.778l1.332,1.422l-0.053,0.045
			l-0.172,0.157L218.57,714.428z M218.585,714.413l-0.037,0.03l-0.016,0.007l1.34,1.414l0.733,0.771l-0.067-0.082l-0.381-0.404
			l-1.639-1.683v0.007l1.579,1.594l-0.285-0.292l0.831,0.838l-0.247-0.247l0.075,0.068l0.165,0.164l-0.419-0.419l0.045,0.045
			l0.568,0.568l0,0l0.127,0.21l0.838,0.973l-0.71-0.748l0.269,0.313l-0.045-0.022l0.262,0.3l-0.771-0.86l0.074,0.104l-0.194-0.21
			l0.127,0.158l1.781,2.132l-0.127-0.12L218.585,714.413z"/>
	</g>
	<g>
		<path d="M958.082,467.994c0.016-0.097,0.03-0.195,0.045-0.292c0.255-1.399,0.27-2.716,0.39-4.078
			c0.067-1.339,0.06-2.671,0.089-4.002l-0.148-3.973l-0.345-3.943l-0.523-3.928l-0.726-3.913l-0.045-0.239l-0.09-0.381l-0.12-0.457
			l-0.247-0.928c-0.127-0.568-0.434-1.347-0.681-2.05c-0.247-0.74-0.554-1.392-0.868-2.035c-0.291-0.659-0.628-1.287-0.994-1.9
			c-0.345-0.628-0.719-1.234-1.138-1.811c-0.39-0.599-0.808-1.167-1.257-1.713c-0.867-1.122-1.833-2.154-2.851-3.127
			c-1.003-0.98-2.095-1.878-3.224-2.716c-1.138-0.838-2.328-1.594-3.652-2.282c-0.344-0.172-0.665-0.336-1.069-0.501
			c-0.217-0.083-0.345-0.157-0.621-0.247l-0.403-0.127l-0.195-0.053l-0.097-0.03l-0.03-0.007l-0.299-0.053l-0.03-0.007
			c-0.366-0.038-0.524-0.089-1.055-0.112c-0.584,0-1.265,0.007-1.773,0.112c-2.005,0.307-3.853,1.511-5.021,3
			c-0.673,0.733-1.018,1.541-1.436,2.349c-0.03,0.083-0.045,0.157-0.082,0.24c-2.268,0.209-4.797,0.254-7.325,0.404
			c-1.608,0.06-3.217,0.18-4.817,0.314l-4.684,0.366l-2.372,0.098l-2.125-0.075c-1.474-0.097-3.03-0.202-4.556-0.396
			c-3.068-0.329-6.165-0.845-9.248-1.392c-6.172-1.107-12.322-2.506-18.404-4.092c-3.045-0.786-6.053-1.669-9.037-2.597
			c-2.934-1.002-5.955-1.878-8.342-3.389c-0.666-0.404-1.414-0.778-2.021-1.205l-1.706-1.316c-1.145-0.801-2.297-1.878-3.449-2.903
			c-2.297-2.05-4.496-4.294-6.688-6.569l-6.607-6.883c-1.129-1.145-2.221-2.305-3.41-3.412l-1.759-1.683
			c-0.329-0.3-0.486-0.509-0.966-0.891l-0.928-0.748c-2.469-1.998-4.914-4.01-7.639-5.821c-2.655-1.871-5.304-3.749-7.99-5.447
			c-2.686-1.721-5.326-3.523-8.049-5.177l-6.428-3.988c0.928-1.287,1.594-2.648,2.186-3.995c0.83-1.983,1.451-3.988,2.004-6
			c1.086-4.01,1.855-8.065,2.701-12.038c0.449-1.953,1.085-3.838,1.676-5.828c0.6-1.96,1.205-3.928,1.706-5.933
			c0.479-2.012,0.95-4.032,1.145-6.12c0.202-2.073,0.255-4.205-0.269-6.292l-0.555-1.526c-0.262-0.472-0.568-0.928-0.845-1.392
			c-0.359-0.412-0.778-0.778-1.159-1.16c-0.486-0.366-0.891-0.554-1.34-0.845c-1.968-1.002-4.137-1.152-6.202-0.973
			c-2.08,0.187-4.101,0.718-6.022,1.437c-1.945,0.681-3.809,1.571-5.627,2.521c-3.621,1.923-7.055,4.205-10.242,6.786
			c-3.097,2.454-6.238,4.848-9.359,7.272l-0.059-5.327c-0.016-1.923,0.164-3.838,0.164-5.761l0.188-11.529
			c0.104-3.831,0.231-7.684,0.867-11.417c0.344-1.848,0.98-3.658,1.631-5.469c0.637-1.803,1.279-3.621,1.871-5.454
			c1.189-3.666,2.177-7.459,2.297-11.372c0.18-3.95-1.152-7.841-3.457-11.043c-2.252-3.217-5.252-5.783-8.192-8.222
			c-2.933-2.761-7.377-3.591-11.2-2.529c-3.89,1.018-6.95,4.093-9.015,7.22c-2.274,3.098-4.444,6.322-6.509,9.547
			c-2.117,3.217-4.115,6.501-6.15,9.763c-1.945,3.314-3.957,6.591-5.82,9.958c-1.931,3.33-3.688,6.756-5.364,10.235
			c-1.519,3.599-2.656,7.279-3.075,11.17c-0.591,3.853-0.613,7.758-0.336,11.648c0.193,3.262,0.643,6.517,1.039,9.719
			c-0.381-0.067-0.756-0.149-1.145-0.239l-3.112-0.696l-3.112-0.681l-3.209-0.456c-2.141-0.255-4.272-0.696-6.412-0.801
			l-6.419-0.434c-2.14-0.075-4.272-0.067-6.412-0.105c-2.14-0.052-4.265,0-6.396,0.038l-12.756,0.276
			c-4.242,0.083-8.484,0.12-12.727,0.157l-6.359-0.082c-2.14-0.015-4.189-0.09-6.403-0.06l-6.375,0.075
			c-2.132,0.045-4.249,0-6.382,0.12l-11.477,1.032c0.067-2.835,0.135-5.693-0.007-8.574c-0.225-3.314-0.592-6.778-2.237-9.898
			c-1.549-3.202-4.653-5.432-7.863-6.517c-0.801-0.292-1.631-0.464-2.446-0.703c-0.913-0.172-1.646-0.262-2.477-0.396l-2.589-0.112
			l-2.521,0.149c-3.345,0.359-6.576,1.22-9.719,2.245c-3.143,1.04-6.202,2.274-9.218,3.591c-3.007,1.316-5.985,2.693-8.955,4.055
			c-2.985,1.384-5.948,2.648-8.985,3.958l-8.94,4.077c-2.993,1.332-5.948,2.753-8.888,4.205c-5.903,2.858-11.791,5.783-17.709,8.574
			l-17.739,8.439l-17.274,7.534l-3.838-1.512c-1.474-0.591-2.776-1.451-4.183-2.162c-0.695-0.344-1.347-0.771-2.05-1.249
			c-0.673-0.457-1.392-0.898-2.042-1.369c-1.317-0.928-2.641-1.841-3.92-2.843c-5.17-3.89-9.891-8.349-13.945-13.384
			c-4.07-5.013-7.497-10.549-10.302-16.393c-2.798-5.857-4.871-12.053-6.509-18.352l-1.137-4.75
			c-0.329-1.602-0.584-3.21-0.883-4.818c-0.621-3.187-1.04-6.479-1.526-9.726l-2.723-19.564
			c-1.848-13.048-3.778-26.126-6.793-39.017c-1.504-6.441-3.322-12.831-5.716-19.033c-2.417-6.18-5.446-12.248-9.875-17.357
			c-2.185-2.54-4.945-4.732-7.758-6.416c-1.377-0.901-2.776-1.78-4.212-2.618c-1.422-0.864-2.851-1.702-4.31-2.48
			c-5.798-3.198-11.844-5.974-18.098-8.181c-12.465-4.455-25.954-6.438-39.144-4.822c-6.562,0.782-13.115,2.398-19.243,4.759
			c-3.097,1.126-6.247,2.095-9.299,3.348l-9.18,3.711c-3.083,1.197-6.075,2.566-9.083,3.905l-9.038,4.021
			c-5.948,2.843-11.918,5.641-17.814,8.589l-8.791,4.519l-4.399,2.267l-4.324,2.402l-8.642,4.795
			c-2.843,1.676-5.633,3.426-8.461,5.132c-1.392,0.875-2.828,1.684-4.197,2.618l-4.047,2.858l-4.048,2.858
			c-1.302,1.04-2.536,2.11-3.808,3.165c-5.095,4.167-9.98,8.597-14.934,12.951c-9.831,8.783-19.557,17.664-29.29,26.544
			c-9.733,8.873-19.452,17.761-29.312,26.5l-7.429,6.509l-3.831,3.097l-1.915,1.542l-0.965,0.778l-1.033,0.658
			c-5.573,3.509-11.095,7.115-16.871,10.265c-11.402,6.577-23.058,12.749-34.265,19.699c-5.507,3.621-10.938,7.354-16.4,11.021
			c-5.447,3.718-10.729,7.676-16.093,11.499h-0.007l-0.015,0.015c-0.958,0.898-2.02,1.698-3.022,2.581
			c-0.509,0.441-1.018,0.89-1.429,1.497c-0.067,0.202-0.209,0.344-0.187,0.605c0.015,0.172-0.038,0.307,0.052,0.517
			c0.127,0.434,0.367,0.711,0.606,0.973c0.509,0.509,1.122,0.845,1.735,1.137l0.913,0.397c0.254,0.179,0.314,0.187,0.18,0.449
			c-0.12,0.254-0.345,0.546-0.479,0.891c-0.165,0.404-0.195,0.643-0.15,1.122c0.067,0.411,0.329,0.718,0.576,0.973
			c0.172,0.18,0.352,0.314,0.531,0.464c-0.359,0.284-0.726,0.576-1.077,0.897c-0.419,0.374-0.838,0.778-1.152,1.294
			c-0.165,0.254-0.329,0.509-0.389,0.831c-0.127,0.299-0.15,0.613-0.105,0.942c-0.015,0.344,0.127,0.621,0.247,0.92
			c0.083,0.157,0.083,0.262,0.232,0.464l0.254,0.322c0.143,0.217,0.359,0.426,0.644,0.628c0.262,0.217,0.539,0.381,0.808,0.486
			c0.546,0.284,1.122,0.419,1.691,0.531c0.808,0.165,1.608,0.225,2.394,0.277c-0.022,0.052-0.06,0.09-0.075,0.135
			c-0.18,0.336-0.239,0.771-0.3,1.159c0.016,0.225,0.045,0.441,0.075,0.658c0.09,0.3,0.12,0.322,0.27,0.554
			c0.269,0.412,0.636,0.591,1.002,0.726c0.733,0.254,1.444,0.209,2.133,0.179c0.688-0.045,1.354-0.149,2.042-0.172l-0.015,0.022
			l-1.115,1.182l-0.86,1.384l-0.075,0.135l0.104,0.112l0.03,0.037c0.164,0.149,0.329,0.321,0.508,0.441l0.583,0.262
			c0.404,0.112,0.801,0.202,1.197,0.232c0.793,0.083,1.586,0.075,2.334,0.127c0.726,0.075,1.526,0.254,2.282,0.374l1.728,0.299
			c-0.134,0.24-0.224,0.501-0.224,0.778c0,0.239,0.03,0.486,0.179,0.703c0.052,0.12,0.135,0.217,0.247,0.292l0.075,0.067
			l0.022,0.015c0.022,0.015-0.052-0.022,0.06,0.03l0.008,0.007l0.037,0.007l0.143,0.03c0.344,0.135,0.845,0.097,1.234,0.104
			c0.396-0.022,0.778-0.037,1.152-0.037c0.748,0.052,1.526,0.307,2.334,0.157c0.225-0.015,0.374-0.127,0.568-0.188
			c0.18-0.067,0.352-0.172,0.531-0.254l0.531-0.217l0.576-0.06l0.008,0.03v-0.03l0,0l-0.591,0.015l-0.561,0.18
			c-0.18,0.075-0.344,0.157-0.539,0.217c-0.179,0.038-0.374,0.142-0.546,0.135c-0.748,0.09-1.489-0.209-2.274-0.322
			c-0.411-0.037-0.801-0.052-1.189-0.06c-0.374-0.045-0.673,0.015-1.062-0.15l-0.135-0.045l0,0l0,0l-0.037-0.038
			c-0.053-0.045-0.083-0.09-0.112-0.157c-0.06-0.112-0.075-0.27-0.06-0.412c0.022-0.299,0.187-0.583,0.419-0.733l0.022-0.022
			l0.531-0.516l-0.666-0.105l-2.312-0.352c-0.778-0.112-1.504-0.262-2.334-0.336c-0.793-0.038-1.571-0.007-2.319-0.075
			c-0.389-0.022-0.748-0.097-1.1-0.18l-0.479-0.209c-0.12-0.075-0.21-0.172-0.314-0.254l0.554-1.287l0.905-1.309l0.03-0.03
			l0.015-0.015h-0.015c-0.688-0.083-1.376-0.075-2.057-0.127c-0.666-0.06-1.354-0.142-1.893-0.426
			c-0.269-0.127-0.501-0.344-0.583-0.531c-0.03-0.053-0.149-0.359-0.112-0.382c0.008-0.135,0.015-0.254,0.008-0.374
			c0.104-0.254,0.157-0.523,0.344-0.778c0.143-0.262,0.344-0.486,0.539-0.703l0.029-0.03l0.644-0.958l-1.062-0.037
			c-1.122-0.045-2.207-0.022-3.239-0.172c-0.516-0.075-1.025-0.165-1.474-0.374c-0.247-0.083-0.449-0.195-0.614-0.322
			c-0.194-0.098-0.389-0.247-0.569-0.486l-0.269-0.307c-0.03-0.015-0.089-0.188-0.134-0.277c-0.098-0.209-0.232-0.419-0.21-0.644
			c-0.045-0.224-0.052-0.449,0.03-0.673c0.03-0.232,0.149-0.449,0.269-0.666c0.24-0.441,0.606-0.838,0.98-1.212
			c0.382-0.381,0.801-0.74,1.205-1.107l0.044-0.029l0.232-0.202l-0.239-0.202c-0.509-0.419-1.07-0.815-1.175-1.339
			c-0.045-0.179,0.008-0.621,0.127-0.815c0.105-0.284,0.292-0.524,0.464-0.868c0.067-0.143,0.202-0.434,0.052-0.688
			c-0.097-0.254-0.344-0.359-0.479-0.449l-0.928-0.397c-0.569-0.276-1.152-0.598-1.586-1.032c-0.209-0.225-0.389-0.471-0.464-0.688
			c-0.075-0.09-0.03-0.307-0.045-0.456c-0.03-0.075,0.09-0.217,0.12-0.329c0.329-0.494,0.823-0.95,1.317-1.377
			c0.988-0.86,2.042-1.661,3.022-2.581c5.357-3.83,10.609-7.78,16.048-11.506c5.454-3.673,10.885-7.415,16.377-11.042
			c11.177-6.951,22.804-13.146,34.235-19.729c5.791-3.149,11.319-6.733,16.901-10.234l1.055-0.666l0.958-0.771l1.938-1.549
			l3.853-3.104l7.451-6.502c9.884-8.708,19.625-17.581,29.38-26.439c9.749-8.851,19.504-17.709,29.342-26.462
			c4.953-4.34,9.838-8.739,14.948-12.906c1.265-1.04,2.521-2.132,3.801-3.142l4.032-2.828l4.025-2.836
			c1.361-0.92,2.798-1.728,4.189-2.596c2.821-1.691,5.611-3.434,8.447-5.095l8.641-4.773l4.324-2.387l4.392-2.252l8.791-4.496
			c5.896-2.926,11.866-5.709,17.806-8.533l9.023-3.991c3.015-1.328,6.015-2.693,9.082-3.875l9.143-3.673
			c3.045-1.242,6.202-2.207,9.3-3.322c6.172-2.379,12.531-3.849,19.041-4.594c13.018-1.497,26.283,0.55,38.56,5.039
			c6.149,2.222,12.098,5.009,17.813,8.211c1.437,0.782,2.843,1.616,4.227,2.477c1.407,0.831,2.791,1.713,4.16,2.63
			c2.82,1.729,5.259,3.707,7.369,6.168c4.189,4.908,7.107,10.833,9.435,16.909c2.312,6.104,4.055,12.427,5.499,18.823
			c2.896,12.793,4.721,25.834,6.472,38.874l2.581,19.594c0.464,3.277,0.86,6.524,1.466,9.808c0.292,1.639,0.539,3.277,0.868,4.908
			l1.114,4.863c1.646,6.449,3.651,12.838,6.464,18.914c2.813,6.067,6.285,11.858,10.452,17.125
			c4.145,5.289,9.008,10.003,14.305,14.103c1.31,1.048,2.679,2.027,4.04,3.008c0.681,0.501,1.361,0.935,2.042,1.414
			c0.659,0.456,1.376,0.942,2.155,1.347c1.511,0.8,2.978,1.773,4.541,2.432l4.729,1.93h0.007l0.673,0.247l0.606-0.292l17.731-8.663
			l17.514-8.94l17.499-8.881c2.918-1.489,5.844-2.948,8.813-4.324l8.881-4.205c2.963-1.302,6.03-2.604,8.992-3.98
			c2.979-1.369,5.941-2.746,8.934-4.062c2.984-1.31,6.008-2.529,9.075-3.547c3.075-1.024,6.217-1.833,9.404-2.125l2.379-0.112
			l2.319,0.119c0.785,0.143,1.676,0.27,2.364,0.412c0.755,0.232,1.533,0.397,2.267,0.681c2.933,1.055,5.514,2.962,6.816,5.753
			c1.376,2.738,1.676,5.985,1.803,9.173c0.09,3.209-0.12,6.464-0.33,9.726l-0.082,1.317l1.407-0.105l0,0l12.568-1.242
			c2.11-0.142,4.242-0.112,6.367-0.18l6.374-0.12c2.035-0.037,4.234,0.045,6.337,0.06l6.396,0.098
			c4.257-0.03,8.521-0.06,12.771-0.143l12.741-0.254c2.117-0.03,4.242-0.083,6.352-0.03c2.109,0.045,4.227,0.038,6.337,0.12
			l6.307,0.434c2.103,0.104,4.152,0.539,6.232,0.793l3.104,0.434l3.112,0.688l3.112,0.696c1.01,0.225,2.133,0.449,2.963,1.077
			l1.347,1.025l0.523-2.768l0.008-0.015c-1.025-3.756-2.021-7.407-2.589-11.17c-0.336-1.871-0.419-3.764-0.576-5.656
			c0.037-1.893-0.067-3.808,0.188-5.679c0.119-0.942,0.164-1.885,0.344-2.828l0.592-2.82c0.104-0.456,0.187-0.958,0.307-1.384
			l0.508-1.332l1.011-2.663c1.623-3.457,3.337-6.891,5.237-10.228c1.795-3.389,3.867-6.629,5.828-9.928
			c2.057-3.24,4.062-6.517,6.217-9.689c2.117-3.209,4.287-6.344,6.606-9.404l1.766-2.282c0.605-0.673,1.249-1.384,1.968-1.968
			c1.421-1.205,3.074-2.117,4.862-2.604c3.562-0.958,7.616-0.187,10.332,2.379c2.97,2.439,5.881,4.916,8.065,8.013
			c2.207,3.016,3.509,6.733,3.352,10.489c-0.09,3.771-1.04,7.519-2.199,11.155c-0.576,1.818-1.205,3.628-1.841,5.446
			c-0.636,1.811-1.272,3.629-1.624,5.574c-0.635,3.846-0.732,7.699-0.822,11.544l-0.061,11.529c0.016,1.916-0.142,3.838-0.104,5.753
			l0.127,5.791l0.007,0.412l0.329-0.262l0.016-0.008l9.629-7.608c3.187-2.544,6.621-4.789,10.227-6.674
			c1.818-0.913,3.682-1.751,5.611-2.379c1.915-0.666,3.905-1.145,5.902-1.272c1.983-0.142,4.048,0.083,5.731,0.98
			c1.817,0.92,2.933,2.574,3.345,4.489c0.411,1.915,0.299,3.928,0.037,5.91s-0.785,3.942-1.332,5.888
			c-0.554,1.945-1.219,3.86-1.893,5.791c-0.674,1.9-1.443,3.86-2.013,5.873c-1.069,3.98-1.997,7.938-3.292,11.753
			c-0.65,1.893-1.369,3.763-2.244,5.499c-0.854,1.721-1.916,3.367-3.157,4.362l1.907-0.21l-1.713,2.985h0.008l7.99,5.147
			c2.686,1.698,5.26,3.523,7.893,5.274c2.664,1.75,5.162,3.599,7.676,5.432c1.25,0.942,2.545,1.766,3.756,2.806l3.658,3.052
			l0.921,0.763c0.157,0.104,0.517,0.501,0.763,0.74l1.661,1.646c1.122,1.077,2.185,2.244,3.27,3.389l6.472,6.98
			c2.178,2.342,4.398,4.684,6.793,6.905c1.213,1.115,2.35,2.237,3.793,3.3l2.065,1.594c0.681,0.493,1.361,0.845,2.042,1.271
			l1.025,0.613l0.509,0.307l0.224,0.127l0.075,0.03l0.149,0.067l0.292,0.127c0.771,0.344,1.557,0.718,2.319,0.995
			c1.541,0.621,3.075,1.152,4.609,1.691c3.066,1.01,6.142,1.967,9.239,2.82c6.18,1.735,12.411,3.27,18.726,4.519
			c3.173,0.614,6.338,1.197,9.584,1.609c1.616,0.232,3.24,0.374,4.931,0.516l2.642,0.12l2.387-0.052l4.832-0.292
			c1.564-0.104,3.128-0.194,4.699-0.225c3.127-0.149,6.277-0.044,9.905-0.538l1.714-0.232l0.762-2.162v-0.007
			c0.158-0.404,0.232-0.868,0.39-1.227c0.194-0.307,0.307-0.711,0.546-0.897c0.382-0.501,0.823-0.786,1.354-0.868
			c0.104-0.022,0.075,0.015,0.127-0.045c0.075-0.022,0.382,0.03,0.636,0.06l0,0l0.061,0.022c0.029,0,0.18,0.075,0.27,0.105
			c0.187,0.067,0.426,0.194,0.65,0.314c0.936,0.479,1.908,1.084,2.82,1.75c0.906,0.681,1.796,1.407,2.611,2.2
			c0.822,0.793,1.608,1.616,2.297,2.514c0.359,0.434,0.695,0.89,1.002,1.362c0.33,0.449,0.621,0.928,0.891,1.414
			c0.292,0.479,0.554,0.965,0.778,1.481c0.239,0.501,0.479,1.002,0.636,1.474c0.172,0.494,0.374,0.883,0.531,1.563l0.247,0.92
			l0.12,0.464l0.007,0.022v0.007l0.015,0.06l0.038,0.224l0.681,3.599l0.494,3.636l0.314,3.666l0.148,3.659
			c-0.029,1.212-0.015,2.431-0.074,3.628c-0.105,1.182-0.119,2.409-0.329,3.524c-0.097,0.554-0.142,1.167-0.276,1.676l-0.383,1.519
			l0,0l-0.097,0.254l-0.052,0.157l-0.03,0.075c0.022-0.06-0.008,0.008-0.008,0c-0.045,0.104-0.09,0.209-0.135,0.322l0.098,0.075
			l-0.404,1.601c0-0.007,0-0.007,0-0.015c-0.015-0.164-0.007-0.307,0-0.441l-0.06,0.262c-0.022,0.322-0.105,0.764-0.209,1.242
			l-0.113,0.449h0.023c-0.158,0.643-0.345,1.339-0.547,1.975c-0.419,1.354-0.92,2.708-1.48,4.025
			c-1.115,2.618-2.477,5.2-4.101,7.205c-0.448,0.576-0.711,0.823-1.13,1.25l-0.441,0.359l-0.217,0.187l-0.112,0.09l-0.022,0.015
			l-0.854,0.599c-1.203,0.868-2.461,1.661-3.703,2.484c-2.514,1.571-5.064,3.097-7.698,4.414c-1.316,0.673-2.626,1.332-3.979,1.878
			l-2.006,0.868l-1.967,0.71c-1.234,0.509-2.762,0.876-4.242,1.265l-1.107,0.3l-1.018,0.246l-2.312,0.554
			c-3.06,0.801-6.029,1.729-8.933,2.634c-2.91,0.897-5.783,1.803-8.655,2.506c-1.444,0.382-2.873,0.719-4.28,0.973l-2.109,0.427
			l-2.267,0.307l-2.275,0.314l-2.146,0.202c-1.444,0.104-2.985,0.142-4.475,0.225c-3,0.142-5.984,0.307-9.037,0.284l-9.188,0.052
			c-3.119-0.007-6.247-0.015-9.277,0.15l-2.289,0.09c-1.055,0.082-1.729,0.246-2.611,0.366c-0.83,0.157-1.684,0.21-2.491,0.456
			l-2.424,0.748c-1.429,0.427-2.618,0.921-4.122,1.279l-4.459,1.07c-2.754,0.613-5.903,1.189-8.836,1.788l-8.013,1.623l7.093,3.958
			l9.008,5.013l4.496,2.507l2.252,1.256l0.561,0.314l0.404,0.262c0.284,0.202,0.605,0.375,0.86,0.592
			c0.531,0.403,1.011,0.853,1.437,1.324c0.412,0.501,0.801,1.018,1.16,1.646c0.352,0.599,0.74,1.384,1.137,2.14l1.032,2.17
			c0.329,0.726,0.621,1.504,0.936,2.26c0.321,0.748,0.576,1.519,0.845,2.289c0.195,0.636,0.449,1.287,0.629,1.915
			c-0.119,0.008-0.239,0.008-0.336,0.015l-0.338,0.008l-0.082,0.008l0,0c-0.029-0.037,0,0.015-0.09-0.022
			c-0.262-0.06-0.859-0.337-1.451-0.748c-0.605-0.397-1.242-0.891-1.893-1.422l-4.908-4.018l-0.008,6.12
			c0,0.411,0.023,0.83,0.061,1.242c0.029,0.456,0.112,0.605,0.164,0.92c0.127,0.591,0.27,1.055,0.412,1.519
			c0.284,0.936,0.598,1.78,0.883,2.604l0.793,2.305c-0.703,0.157-1.459,0.284-2.244,0.329c-0.435,0.037-0.861,0.06-1.242,0.053
			c-0.367,0.021-0.861,0-1.369-0.03l-0.375-0.015c0.053-0.008-0.142-0.045-0.201-0.061l-0.561-0.119l-1.115-0.217l-4.646-0.906
			l0.898,4.489l0.104,0.531c-0.083,0.008-0.173,0.008-0.263,0.015c-0.111,0.008-0.142,0.045-0.32,0.03l-0.486-0.03l-0.486-0.037
			l-0.218-0.008l0,0l-0.007-0.007c-0.045-0.03-0.083-0.045-0.12-0.053c-0.052-0.022-0.06,0.022-0.157-0.037
			c-0.172-0.09-0.344-0.173-0.523-0.247l-0.098-0.045l-0.156-0.09c0.089,0.061-0.068-0.037-0.09-0.053c0.007,0,0,0-0.016-0.007
			l-0.045-0.038l-0.516-0.366l-0.225-0.172l-0.3-0.239l-0.239-0.195l-0.247-0.217l-2.027-1.877l-5.005-4.646l-0.12,6.472
			c-0.007,0.479,0,0.958,0.022,1.437c0.016,0.516,0.105,0.748,0.164,1.137c0.113,0.733,0.27,1.347,0.428,1.961
			c0.307,1.241,0.658,2.394,0.979,3.531l0.95,3.352c0.074,0.284,0.119,0.546,0.194,0.822c-0.21,0.053-0.419,0.098-0.651,0.105
			c-0.545,0.045-0.912,0.172-1.66,0.149l-1.002,0.007l-0.457,0.008h-0.053l-0.246-0.015c-0.658-0.06-1.414-0.075-1.766-0.143
			l-0.996-0.135l-0.493-0.074l-0.06-0.008c-0.016,0-0.068-0.015-0.061-0.015l-0.187-0.053c-0.942-0.217-2.08-0.636-3.188-1.13
			c-1.122-0.486-2.229-1.077-3.329-1.676c-1.085-0.628-2.146-1.271-3.143-1.968l-1.174-0.875l-0.719-0.703l-0.053-0.053
			l-0.119-0.142l-0.337-0.404c-0.942-1.093-1.87-2.147-3.127-3.239c-0.321-0.27-0.688-0.554-1.122-0.838
			c-0.539-0.285-0.928-0.666-2.32-0.854c-0.32-0.022-0.673,0-1.01,0.067c-0.164,0.038-0.328,0.083-0.486,0.135
			c-0.142,0.045-0.381,0.149-0.336,0.135l-0.112,0.053l-0.053,0.029l-0.562,0.359l-0.059,0.053l-0.12,0.112
			c-0.688,0.666-0.897,1.241-1.07,1.69c-0.269,0.897-0.247,1.347-0.284,1.87c0,1.467,0.15,2.589,0.27,3.629l-0.367-0.277
			c-0.456-0.352-0.942-0.845-1.414-1.256c-0.941-0.868-1.9-1.706-2.82-2.664c-1.87-1.825-3.688-3.74-5.506-5.656l-1.534-1.623
			l-2.087,1.018c-1.676,0.815-3.307,1.66-5.006,2.453l-5.177,2.342l-10.497,4.579l-10.541,4.669l-5.26,2.438l-5.349,2.708
			c-1.788,0.966-3.202,1.878-5.095,2.979l-4.662,2.559c-3.434,1.488-6.793,3.067-10.361,4.414
			c-7.025,2.828-14.237,5.416-21.397,8.146c-3.599,1.377-7.152,2.754-10.788,4.235l-5.529,2.409
			c-1.848,0.808-3.411,1.795-5.125,2.678l-0.628,0.345l-0.345,0.217l-0.149,0.104l-0.307,0.202l-1.204,0.823l-2.379,1.66
			l-4.691,3.337l-9.329,6.614c-3.112,2.162-6.247,4.309-9.404,6.232c-0.786,0.493-1.571,0.92-2.35,1.361
			c-0.396,0.231-0.763,0.381-1.145,0.576l-0.562,0.276c-0.097,0.03-0.18,0.067-0.262,0.112c-0.09,0.045-0.142,0.104-0.262,0.164
			l-0.658,0.105h-0.022c-0.098,0.008-0.194-0.022-0.284-0.053c-0.389-0.098-0.83-0.336-1.302-0.732
			c-0.936-0.816-1.833-2.17-2.544-3.651c-0.352-0.756-0.688-1.534-0.965-2.35c-0.292-0.83-0.494-1.549-0.764-2.536
			c-0.239-1.661-0.561-3.374-0.756-5.177l-0.434-5.634l-0.314-4.055l-3.763,1.443c-4.152,1.594-8.297,3.217-12.427,4.938
			c-2.08,0.921-4.287,1.863-6.285,2.858l-2.939,1.541l-1.571,0.928l-1.429,0.883c-7.579,4.698-14.934,9.569-22.423,14.163
			c-3.733,2.289-7.504,4.541-11.289,6.501c-1.841,0.936-3.891,1.908-5.401,2.274l-0.135,0.037l-0.008-0.007v0.037
			c-0.008,0.015-0.225,0-0.337,0l-0.03-0.008c-0.135-0.029-0.269-0.06-0.411-0.082c-0.142-0.06-0.276-0.112-0.419-0.165
			c-0.568-0.269-1.167-0.688-1.743-1.271c-1.152-1.204-2.154-2.881-2.97-4.676c-0.801-1.818-1.452-3.801-1.945-5.769
			c-0.584-2.034-0.741-4.077-1.018-6.112c-0.217-2.08-0.27-4.294-0.412-6.434l-0.313-4.661l-4.107,2.117
			c-4.706,2.424-9.39,4.931-14.141,7.212c-2.371,1.175-4.743,2.356-7.114,3.404c-2.402,1.055-4.677,2.229-7.183,3.188
			c-2.438,0.957-4.99,2.102-7.34,2.895l-7.496,2.589c-2.499,0.853-4.982,1.751-7.504,2.566l-7.586,2.401
			c-5.073,1.571-10.1,3.255-15.203,4.729l-15.277,4.549c-5.095,1.519-10.22,2.925-15.329,4.398
			c-5.11,1.444-10.213,2.934-15.345,4.303l-15.382,4.204l-15.419,4.032c-5.147,1.377-10.279,2.634-15.404,3.861l-7.691,1.87
			l-7.811,1.653l-3.905,0.815l-3.86,0.756l-7.893,1.519c-5.275,0.936-10.474,2.274-15.704,3.464
			c-5.245,1.122-10.385,2.716-15.569,4.122c-2.604,0.674-5.162,1.526-7.713,2.402l-25.923,12.209c0,0,14.679-4.631,19.452-5.895
			c4.773-1.265,20.335-3.486,20.335-3.486c-0.172,0.164-0.359,0.321-0.531,0.493c-4.788,4.855-8.918,9.764-13.586,14.305
			c-4.653,4.608-9.345,9.12-14.327,13.197c-4.953,4.062-10.242,7.841-15.622,10.452l-4.399,1.825l-4.758,1.78l-9.165,3.831
			c-6.022,2.528-12.038,4.931-18.098,6.39l-4.384,0.845c-1.586,0.157-3.277,0.21-4.908,0.322l-0.613,0.037l-0.225,0.015h-0.03
			h-0.149h-1.272c-0.846,0-1.691-0.015-2.536,0.022c-1.698,0.03-3.389,0.12-5.095,0.232c-3.404,0.276-6.831,0.718-10.272,1.594
			c-3.404,0.935-6.98,2.058-10.123,4.968c-1.548,1.488-2.873,3.254-3.359,5.933c-0.06,0.299-0.15,0.695-0.157,0.905l-0.03,0.621
			l-0.022,0.613l-0.007,0.157v0.448l0.007,0.285c0.03,0.763,0.053,1.525,0.038,2.304c-0.007,3.112-0.299,6.3-0.733,9.435
			c-0.449,3.112-1.062,6.314-1.983,9.067c-0.195,0.674-0.591,1.369-0.524,1.399c-0.067,0.112-0.231,0.314-0.344,0.464l-0.045,0.06
			c-0.225,0.254,0.247-0.276,0.165-0.18l-0.172,0.21l-0.344,0.419c-0.217,0.291-0.434,0.583-0.629,0.883
			c-0.157,0.344-0.299,0.688-0.434,1.032c-0.314,0.733-0.307,1.294-0.419,1.952c-0.045,0.524-0.045,1.062-0.053,1.481
			c-0.007,0.359,0.008,0.823-0.022,1.085c-0.015,0.292-0.037,0.629-0.074,0.703c0.172-0.06-0.501,1.52-0.569,1.587l-1.137,2.072
			c-0.778,1.369-1.601,2.716-2.477,4.01c-1.743,2.589-3.673,5.058-5.828,6.995c-0.539,0.501-1.092,0.905-1.646,1.339
			c-0.494,0.3-0.883,0.621-1.729,1.011l-0.277,0.135l-0.105,0.052l-0.015,0.008l-0.554,0.231l-1.107,0.449
			c-0.733,0.314-1.481,0.584-2.229,0.868c-2.978,1.107-6.022,2.102-9.022,2.783l-2.207,0.411l-0.135,0.015
			c0.277-0.344,0.546-0.695,0.815-1.055c1.062-1.392,2.05-2.851,2.963-4.437c0.449-0.808,0.883-1.639,1.257-2.573
			c0.381-0.973,0.711-1.833,0.853-3.374c0.165-2.963-1.429-5.051-2.454-6.427l-0.778-0.98l-0.621-0.838
			c-0.172-0.27-0.262-0.456-0.412-0.681c-0.045-0.149,0.022-0.022-0.112-0.03c-0.03-0.202-0.038-0.516-0.052-0.815
			c0.015-0.045,0.052-0.097,0.06-0.142c0.157-0.314,0.479-0.801,0.928-1.302c0.898-1.018,2.095-2.08,3.314-3.202
			c0.621-0.569,1.25-1.146,1.893-1.804c0.314-0.307,0.644-0.658,0.973-1.024c0.284-0.314,0.778-0.943,1.018-1.287l0.427-0.644
			l0.307-0.509l0.628-1.04l1.294-2.124c0.86-1.43,1.713-2.881,2.536-4.37c0.823-1.488,1.624-3,2.349-4.615
			c0.359-0.809,0.718-1.624,1.025-2.514c0.307-0.876,0.606-1.751,0.823-3.083c0.067-0.352,0.045-0.448,0.075-0.688l0.052-0.808
			l0.045-1.003c0.067-0.666,0.18-1.324,0.329-2.252c0.202-0.92,0.209-2.79-0.523-4.212c-0.322-0.538-0.703-1.189-1.055-1.579
			l-1.055-1.151l-1.556-1.706l-2.147,1.295l-4.152,2.506c-1.376,0.853-2.798,1.594-4.189,2.387l-2.11,1.174l-2.087,1.048
			c-1.384,0.703-2.753,1.407-4.316,2.021l-2.26,0.957c-0.539,0.217-1.459,0.502-2.17,0.748l-4.548,1.534
			c-1.542,0.479-3.105,0.897-4.654,1.347c-1.556,0.434-3.097,0.928-4.684,1.302c-3.149,0.763-6.27,1.623-9.456,2.289
			c-3.172,0.719-6.345,1.407-9.539,2.013c-3.188,0.666-6.382,1.182-9.584,1.743l-4.698,0.703c-0.771,0.127-1.594,0.202-2.409,0.284
			l-1.227,0.128l-0.614,0.067l-0.299,0.029l-0.149,0.015l-0.083,0.008h-0.037l-0.015,0.008c-0.045,0-0.135,0.007,0.262-0.016
			l-2.963,2.47v0.007c-0.681,4.444-0.606,8.364-0.815,12.367c-0.06,1.998-0.209,3.928-0.329,5.881
			c-0.209,1.893-0.359,3.897-0.718,5.551l-0.224,1.31c-0.075,0.434-0.27,0.942-0.404,1.414l-0.434,1.437l-0.105,0.359l-0.06,0.164
			l-0.284,0.666c-0.793,1.758-1.451,3.606-2.364,5.289l-1.421,2.791c-0.599,1.055-0.868,1.96-1.219,2.902
			c-0.502,1.295-0.636,2.335-0.831,3.345l-0.531,2.955c-0.695,3.801-1.586,7.631-3.449,10.31c-0.479,0.987-2.417,2.267-3.958,3.419
			c-1.594,1.175-3.202,2.319-4.826,3.419c-3.232,2.155-6.644,4.324-9.951,5.47c-0.449,0.164-0.748,0.217-1.032,0.299
			c-0.232,0.075-1.115,0.112-1.227,0.104l-2.978-0.022c-0.718,0.008-1.481-0.097-1.803-0.172c-0.007-0.03-0.007-0.053,0.008-0.12
			l0.067-0.366c0.127-0.591,0.471-1.406,0.913-2.237c0.426-0.822,0.905-1.668,1.407-2.514l3.119-5.125
			c0.524-0.875,1.04-1.758,1.534-2.7c0.501-0.973,0.95-1.804,1.369-3.195c0.104-0.358,0.217-0.845,0.209-1.032l0.038-0.374
			c0,0.18,0.007-0.344,0.007-0.337l-0.015-0.134l-0.03-0.255c-0.074-0.703-0.254-1.279-0.426-1.841
			c-0.367-1.1-0.801-2.027-1.183-2.925c-0.381-0.891-0.71-1.743-0.905-2.536c-0.209-0.748-0.209-1.639-0.135-2.013
			c0.449-1.459,1.579-3,2.769-4.579l3.644-4.817c0.599-0.846,1.175-1.698,1.758-2.597c0.524-0.979,1.228-2.042,1.504-2.94
			l0.277-0.703l0.135-0.352l0.075-0.231l0.03-0.09l0.052-0.18l0.397-1.437l0.823-2.896c0.531-1.945,1.055-3.891,1.526-5.857
			c0.942-3.951,1.766-7.894,2.155-12.105l0.12-3l-0.06-3.105l-0.27-6.022c-0.165-3.973-0.374-7.99-0.06-11.806
			c0.172-0.905,0.112-1.751,0.434-2.738l0.419-1.443c-0.022-0.016,0.149-0.3,0.225-0.441c0.075-0.18,0.18-0.359,0.314-0.517
			c0.973-1.369,2.588-2.446,4.264-3.419c1.676-0.988,3.479-1.878,5.252-2.94c0.883-0.554,1.766-1.1,2.588-1.818
			c0.419-0.307,0.853-0.793,1.257-1.196l0.449-0.592l0.12-0.149l0.105-0.142l0.045-0.083l0.179-0.358
			c2.065-3.786,3.112-7.617,4.265-11.5c1.07-3.897,2.027-7.818,2.686-11.806l0.509-2.985l0.321-3.06
			c0.299-2.058,0.225-4.04,0.247-6.045c-0.202-4.145-0.748-8.035-1.167-12.046c-0.891-7.96-1.729-15.912-2.379-23.881
			c-0.621-7.953-1.129-15.973-0.651-23.873l0.284-2.918c0.188-0.965,0.337-2.013,0.562-2.902c0.591-1.894,1.055-3.824,1.75-5.679
			c1.332-3.741,2.888-7.407,4.646-10.976c3.517-7.152,7.661-13.976,12.21-20.521c4.399-6.645,10.234-12.105,16.011-17.619
			l0.015-0.008l1.376-1.324l-1.945-0.217l-1.571-0.18l-1.563-0.322c-1.048-0.307-2.088-0.568-3.15-0.92l-1.601-0.501
			c-0.554-0.149-1.003-0.352-1.459-0.569c-0.456-0.238-0.942-0.352-1.361-0.695l-1.295-0.883c-0.419-0.314-0.808-0.688-1.219-1.032
			c-0.412-0.345-0.8-0.703-1.174-1.1c-0.771-0.764-1.519-1.557-2.245-2.387l-2.2-2.507l-1.145-1.264l-1.279-1.242V558.4
			l-1.706-1.541l-0.052,2.312c-0.127,5.738-0.591,11.552-1.376,17.261c-0.194,1.436-0.427,2.85-0.726,4.227
			c-0.225,1.354-0.726,2.857-1.212,4.077c-1.212,2.507-3.314,4.579-5.649,6.18c-1.174,0.786-2.446,1.489-3.778,1.826l-0.486,0.082
			c-0.135-0.015-0.232,0.022-0.39-0.008l-0.254-0.097c0.022,0.037-0.083-0.075-0.112-0.098c-0.12-0.074-0.18-0.225-0.262-0.344
			c-0.262-0.554-0.27-1.272-0.188-1.961c0.404-2.828,1.99-5.297,3.494-7.811c1.197-2.701,1.758-5.573,2.282-8.432
			c0.493-2.865,0.845-5.753,1.122-8.648c0.27-2.896,0.479-5.798,0.494-8.709c-0.052-2.888-0.299-5.828,0.412-8.663
			c0.352-1.399,0.95-2.761,1.9-3.86c0.942-1.1,2.207-1.923,3.591-2.364c1.384-0.479,2.993-0.165,4.018,0.897
			c1.077,0.988,1.826,2.252,2.574,3.486c1.511,2.477,2.858,5.088,4.9,7.189c2.073,2.035,4.481,3.741,7.115,4.983l1.96,0.95
			l2.05,0.763c1.347,0.569,2.768,0.891,4.167,1.279c1.392,0.441,2.851,0.554,4.279,0.846c1.437,0.225,2.896,0.255,4.347,0.39h0.037
			l0.038,0.007l0.037-0.037l9.958-8.536c3.352-2.807,6.568-5.783,10.04-8.439l10.28-8.155l10.407-8.005l10.317-8.103l10.392-7.99
			c3.434-2.693,7.13-5.058,10.676-7.608c3.621-2.395,7.557-4.325,11.439-6.322c3.883-2.013,7.826-3.905,11.738-5.851l11.776-5.791
			l11.761-5.835c3.898-1.998,7.826-3.905,11.687-6.023c3.928-2.027,7.661-4.227,11.394-6.613l10.96-7.212l21.929-14.402l0.052-0.037
			l0.06-0.045c6.905-5.978,14.02-11.731,20.597-18.263c3.231-3.314,6.456-6.778,8.588-11.282c1.033-2.229,1.676-4.93,1.167-7.631
			c-0.225-1.362-0.809-2.611-1.467-3.764c-0.74-1.114-1.533-2.109-2.506-2.992c-0.486-0.449-0.98-0.898-1.422-1.212l-0.673-0.531
			c-0.336-0.262-0.553-0.352-0.831-0.539l-1.601-0.987l-1.653-0.793c-2.2-1.048-4.467-1.766-6.733-2.446l-3.412-0.883l-3.434-0.749
			c-2.29-0.434-4.586-0.831-6.891-1.152c-4.602-0.644-9.225-1.07-13.856-1.332c-4.631-0.247-9.262-0.411-13.96-0.299h-0.022
			l-0.928,0.038l-0.846,0.658c-1.182,0.92-2.438,1.788-3.845,2.514c-1.392,0.733-2.873,1.377-4.399,1.923
			c-3.067,1.1-6.314,1.886-9.622,2.477c-6.628,1.145-13.474,1.541-20.32,1.556c-6.853-0.007-13.736-0.389-20.574-1.1
			c-3.427-0.359-6.838-0.793-10.22-1.332c-1.684-0.269-3.367-0.561-5.02-0.898c-1.646-0.329-3.314-0.718-4.721-1.167l-0.748-0.231
			l-1.271,0.269c-0.928,0.209-1.751,0.576-2.753,0.696c-1.002,0.09-1.953,0.337-3.022,0.307c-1.047,0.008-2.065,0.112-3.142,0.015
			c-1.07-0.082-2.125-0.06-3.21-0.224c-2.147-0.209-4.316-0.561-6.472-0.943c-2.162-0.449-4.324-0.897-6.471-1.459
			c-2.147-0.538-4.287-1.145-6.412-1.803c-2.14-0.644-4.25-1.361-6.345-2.095c-2.095-0.756-4.182-1.541-6.225-2.387
			c-2.035-0.846-4.07-1.743-5.896-2.716l-0.029-0.008l-1.287-0.568l-1.474,0.501c-0.644,0.217-1.152,0.613-1.908,0.763
			c-0.718,0.18-1.421,0.426-2.237,0.479c-0.786,0.112-1.586,0.232-2.432,0.225c-0.823,0.037-1.661,0.082-2.514,0.022
			c-0.853-0.045-1.706-0.037-2.566-0.142c-0.86-0.097-1.729-0.142-2.597-0.277c-1.721-0.225-3.456-0.517-5.192-0.86
			c-3.457-0.703-6.906-1.594-10.31-2.648c-1.698-0.524-3.381-1.093-5.057-1.713c-1.676-0.606-3.307-1.294-4.901-2.05l-0.022-0.015
			l-0.359-0.187l-0.449,0.224c-0.561,0.277-1.092,0.584-1.653,0.846c-0.606,0.172-1.189,0.389-1.803,0.531
			c-0.629,0.075-1.242,0.194-1.878,0.247l-1.923,0.022l-1.93-0.18l-1.923-0.337c-0.643-0.104-1.272-0.307-1.908-0.456
			c-0.644-0.143-1.257-0.359-1.886-0.562c-1.257-0.374-2.483-0.86-3.71-1.361c-1.219-0.494-2.417-1.055-3.606-1.631
			c-2.357-1.175-4.684-2.499-6.771-3.988l-0.022-0.015l-0.823-0.501l-0.674,0.599l-1.1,0.987c-0.352,0.352-0.771,0.613-1.189,0.883
			c-0.419,0.262-0.808,0.583-1.257,0.801l-1.362,0.673c-0.905,0.464-1.916,0.726-2.873,1.107c-0.995,0.299-2.013,0.546-3.022,0.831
			c-1.018,0.224-2.05,0.419-3.083,0.636c-1.032,0.217-2.08,0.344-3.127,0.523c-2.08,0.359-4.189,0.561-6.3,0.845v0.007
			c-0.359,0.067-0.748,0.045-1.107-0.06c-0.336-0.09-0.733-0.337-0.688-0.748c0,0.097-0.03,0.202,0.015,0.284
			s0.075,0.194,0.149,0.247c0.135,0.149,0.314,0.239,0.494,0.307c0.374,0.142,0.763,0.202,1.167,0.157h-0.015
			c2.125-0.105,4.249-0.127,6.366-0.314c1.055-0.09,2.125-0.127,3.18-0.254c1.062-0.127,2.125-0.239,3.188-0.381
			c1.062-0.202,2.125-0.367,3.187-0.591c1.04-0.307,2.125-0.501,3.142-0.92l1.556-0.605c0.516-0.195,0.988-0.517,1.489-0.771
			c0.494-0.27,0.995-0.531,1.437-0.898l0.606-0.456c2.109,1.361,4.279,2.506,6.509,3.554c1.242,0.568,2.499,1.115,3.778,1.594
			c1.279,0.486,2.566,0.958,3.897,1.324c0.658,0.187,1.31,0.396,1.99,0.531c0.673,0.142,1.332,0.336,2.02,0.434
			c0.688,0.098,1.376,0.225,2.065,0.307l2.08,0.135l2.109-0.075c0.703-0.075,1.407-0.217,2.11-0.329
			c0.688-0.18,1.369-0.441,2.05-0.666c0.493-0.239,0.979-0.524,1.466-0.8c1.467,0.883,2.963,1.698,4.481,2.439
			c1.639,0.815,3.3,1.571,4.976,2.282c3.352,1.437,6.778,2.716,10.287,3.815c1.758,0.546,3.539,1.04,5.349,1.474
			c0.898,0.232,1.826,0.381,2.738,0.576c0.913,0.21,1.855,0.314,2.798,0.457c0.935,0.157,1.9,0.217,2.873,0.276
			c0.957,0.098,1.96,0.067,2.962,0.038c0.988,0.022,2.042-0.18,3.083-0.336c0.539-0.061,1.092-0.225,1.653-0.412
			c1.773,0.891,3.539,1.676,5.304,2.417c2.155,0.89,4.325,1.713,6.501,2.499c2.185,0.763,4.377,1.503,6.599,2.177
			c2.207,0.688,4.444,1.316,6.696,1.885c2.252,0.591,4.541,1.062,6.831,1.542c2.312,0.404,4.631,0.785,7.01,1.018
			c1.167,0.164,2.394,0.157,3.591,0.247c1.183,0.105,2.439,0,3.659-0.015c1.212,0.022,2.506-0.254,3.755-0.396
			c0.905-0.112,1.849-0.404,2.776-0.681c1.542,0.441,3.008,0.786,4.474,1.085c1.766,0.359,3.517,0.666,5.282,0.95
			c3.501,0.554,7.018,1.002,10.534,1.369c7.033,0.733,14.11,1.129,21.203,1.129c7.1-0.015,14.237-0.419,21.367-1.646
			c3.562-0.636,7.115-1.481,10.624-2.746c1.75-0.621,3.479-1.369,5.177-2.259c1.377-0.718,2.701-1.608,3.996-2.566
			c4.16-0.299,8.387-0.449,12.599-0.396c4.511,0.053,9.015,0.254,13.496,0.673c2.237,0.209,4.467,0.479,6.682,0.8l3.307,0.562
			l3.247,0.718c2.132,0.561,4.257,1.167,6.217,2.02l1.467,0.644l1.339,0.771c0.202,0.12,0.509,0.27,0.621,0.366l0.696,0.501
			c0.508,0.336,0.853,0.659,1.219,0.973c1.519,1.302,2.679,2.94,3.067,4.736c0.396,1.795,0.06,3.801-0.748,5.724
			c-1.661,3.868-4.608,7.369-7.646,10.661c-3.067,3.299-6.419,6.382-9.793,9.456l-10.167,9.113l-21.622,14.753l-10.848,7.385
			c-3.606,2.371-7.407,4.639-11.237,6.651c-3.786,2.125-7.721,4.078-11.582,6.105l-11.701,5.925l-11.731,5.888
			c-3.905,1.99-7.826,3.913-11.701,5.955c-3.868,2.035-7.804,4.003-11.455,6.464c-3.539,2.581-7.197,4.976-10.624,7.714
			l-10.347,8.088l-10.25,8.191c-3.419,2.738-6.891,5.387-10.354,8.065l-10.272,8.17c-3.464,2.663-6.681,5.656-10.032,8.462
			l-9.913,8.528c-1.444-0.127-2.896-0.149-4.332-0.366c-1.414-0.284-2.873-0.389-4.265-0.815c-1.392-0.382-2.813-0.703-4.16-1.257
			l-2.035-0.748l-1.96-0.943c-2.626-1.227-5.042-2.91-7.107-4.923c-2.05-2.079-3.412-4.683-4.923-7.152
			c-0.763-1.227-1.519-2.499-2.604-3.486c-0.509-0.509-1.182-0.868-1.885-1.032c-0.711-0.194-1.452-0.022-2.147,0.157
			c-1.376,0.456-2.656,1.242-3.613,2.349c-0.958,1.101-1.579,2.454-1.938,3.861c-0.733,2.843-0.516,5.798-0.486,8.686
			c-0.03,2.896-0.269,5.791-0.561,8.679c-0.299,2.888-0.681,5.769-1.197,8.618c-0.546,2.836-1.107,5.731-2.342,8.32
			c-1.511,2.394-3.247,4.915-3.733,7.9c-0.105,0.74-0.15,1.533,0.187,2.319c0.112,0.18,0.202,0.389,0.382,0.531
			c0.112,0.082,0.104,0.142,0.307,0.231l0.254,0.105c0.195,0.06,0.464,0.066,0.688,0.074l0.591-0.074
			c1.504-0.352,2.821-1.056,4.078-1.841c2.469-1.616,4.713-3.696,6.12-6.404c0.412-0.748,0.524-1.392,0.801-2.095
			c0.262-0.666,0.441-1.385,0.613-2.109c0.382-1.452,0.681-2.896,0.936-4.332c0.539-2.873,0.928-5.769,1.287-8.664
			c0.239-2.147,0.479-4.287,0.688-6.441l0.703,0.763l2.237,2.484c0.756,0.838,1.534,1.653,2.364,2.446
			c0.389,0.411,0.823,0.793,1.272,1.167c0.449,0.366,0.868,0.763,1.339,1.107l1.481,0.973c0.464,0.366,1.077,0.538,1.616,0.8
			c0.554,0.255,1.13,0.486,1.646,0.621l1.601,0.479c1.047,0.329,2.177,0.605,3.27,0.905l1.534,0.299
			c-5.282,5.155-10.557,10.489-14.679,16.707c-4.564,6.613-8.738,13.526-12.255,20.761c-1.773,3.621-3.337,7.347-4.684,11.147
			c-0.688,1.9-1.167,3.875-1.766,5.806c-0.254,1.055-0.381,1.982-0.583,2.985c-0.127,1.01-0.209,2.042-0.314,3.06
			c-0.509,8.095-0.015,16.115,0.583,24.105c0.614,8.005,1.467,15.974,2.29,23.934c0.374,3.966,0.883,8.021,1.032,11.873
			c-0.045,1.998,0,4.025-0.307,5.94l-0.337,2.91l-0.539,2.926c-0.681,3.905-1.668,7.766-2.768,11.581
			c-1.138,3.756-2.334,7.698-4.145,10.938l-0.165,0.314l-0.03,0.066c-0.015,0.008-0.022,0.023-0.022,0.023l-0.112,0.148
			l-0.471,0.584c-0.322,0.284-0.546,0.562-0.943,0.854c-0.696,0.583-1.526,1.084-2.349,1.578c-1.676,0.973-3.486,1.825-5.274,2.836
			c-1.781,1.01-3.644,2.109-5.065,4.002c-0.187,0.225-0.344,0.479-0.479,0.748c-0.149,0.307-0.284,0.435-0.434,0.898l-0.441,1.437
			c-0.322,0.92-0.382,2.117-0.569,3.172c-0.786,8.26,0.419,16.25-0.165,24.075c-0.905,7.549-3.217,15.502-5.656,22.797
			c-1.392,3.187-4.167,6.225-6.606,9.419c-1.204,1.586-2.61,3.27-3.426,5.618c-0.696,3.001,0.344,5.141,1.055,7.07
			c0.748,1.878,1.623,3.681,1.122,4.557c-0.18,0.516-0.621,1.488-1.077,2.274c-0.441,0.823-0.958,1.661-1.467,2.499l-3.209,5.072
			c-0.539,0.875-1.07,1.758-1.579,2.7c-0.494,0.943-1.018,1.953-1.347,3.308l-0.075,0.374c-0.03,0.149-0.06,0.396-0.075,0.591
			c-0.06,0.404-0.015,0.868,0.03,1.31c0.105,0.987,0.988,2.207,1.871,2.626c1.706,0.845,2.79,0.711,3.883,0.822l3.03,0.075
			c0.883-0.008,1.002-0.008,1.75-0.104c0.704-0.112,1.392-0.27,1.886-0.441c4.294-1.429,7.706-3.644,11.17-5.828
			c1.713-1.115,3.382-2.268,5.035-3.441l2.454-1.759l0.292-0.225l0.142-0.119l0.284-0.247c0.202-0.172,0.367-0.292,0.599-0.517
			c0.441-0.485,0.995-1.039,1.302-1.519c2.761-3.942,3.636-8.17,4.512-12.157l0.591-2.94c0.194-0.95,0.382-1.907,0.644-2.469
			c0.374-0.928,0.718-1.938,1.167-2.604l1.361-2.521c1.04-1.817,1.781-3.748,2.671-5.618l0.322-0.711l0.037-0.082l0.097-0.277
			l0.06-0.18l0.12-0.352l0.464-1.429c0.15-0.486,0.329-0.92,0.449-1.459l0.359-1.639c0.942-4.406,1.182-8.356,1.444-12.434
			c0.224-3.18,0.336-6.427,0.681-9.375l0.075-0.007c0.815-0.083,1.631-0.157,2.477-0.292l5.035-0.748
			c3.262-0.576,6.531-1.107,9.771-1.773c3.247-0.621,6.479-1.324,9.711-2.058c3.232-0.673,6.434-1.549,9.651-2.334
			c1.616-0.382,3.202-0.891,4.804-1.324c1.601-0.472,3.202-0.905,4.803-1.399l4.758-1.608c0.838-0.292,1.497-0.472,2.484-0.868
			l2.26-0.949c1.503-0.592,3.052-1.369,4.593-2.147l2.319-1.16l2.185-1.22c1.452-0.822,2.948-1.601,4.354-2.483l1.407-0.846
			c-0.112,0.651-0.239,1.422-0.314,2.229l-0.075,1.467v0.18c0.015-0.419,0-0.067,0-0.143l-0.007,0.075l-0.022,0.307
			c-0.022,0.172-0.022,0.486-0.06,0.538c-0.09,0.285-0.254,1.003-0.509,1.661c-0.231,0.674-0.531,1.362-0.838,2.058
			c-0.628,1.392-1.361,2.791-2.132,4.183c-1.519,2.745-3.307,5.655-4.938,8.267c-0.239,0.322-0.262,0.345-0.524,0.636
			c-0.217,0.255-0.456,0.509-0.726,0.771c-0.509,0.517-1.092,1.056-1.69,1.602c-1.197,1.107-2.477,2.215-3.771,3.673
			c-0.636,0.727-1.302,1.579-1.863,2.746c-0.135,0.329-0.277,0.606-0.382,0.98l-0.135,0.576l-0.052,0.291l-0.022,0.15
			c-0.015-0.045-0.045,0.957-0.03,0.568c0.022,0.434,0.015,0.763,0.067,1.287c0.149,0.771,0.411,1.698,0.711,2.297
			c0.269,0.479,0.568,1.024,0.853,1.443l0.838,1.145l0.756,0.958c0.936,1.167,1.354,2.095,1.212,2.491
			c-0.022,0.09-0.157,0.83-0.411,1.369c-0.24,0.599-0.569,1.234-0.92,1.863c-0.726,1.264-1.586,2.543-2.521,3.763
			c-0.449,0.606-0.966,1.25-1.407,1.759c-0.493,0.591-1.04,1.084-1.803,2.109c-0.202,0.284-0.396,0.576-0.613,1.055
			c-0.202,0.449-0.457,1.183-0.359,2.192c0.127,1.085,0.815,2.035,1.384,2.461c0.239,0.195,0.561,0.412,0.786,0.524l0.621,0.269
			c0.396,0.15,0.673,0.202,1.017,0.292l0.831,0.143c-0.202-0.016,0.396,0.045,0.366,0.037h0.075l0.149,0.008l0.314,0.007
			l0.613,0.016c0.367,0.029,0.905-0.008,1.437-0.061l1.571-0.164l2.648-0.494c3.427-0.777,6.644-1.84,9.831-3.022
			c0.8-0.292,1.601-0.591,2.379-0.92l1.182-0.486l0.584-0.239l0.299-0.135l0.143-0.075l0.276-0.135
			c0.659-0.291,1.639-0.897,2.529-1.488c0.748-0.568,1.511-1.145,2.185-1.773c2.738-2.469,4.87-5.26,6.808-8.117
			c0.958-1.437,1.863-2.896,2.708-4.385l1.242-2.252l0.15-0.291l0.029-0.067l0.157-0.337l0.06-0.143l0.232-0.576
			c0.075-0.217,0.149-0.307,0.239-0.636l0.239-0.995c0.165-0.726,0.18-1.212,0.21-1.728c0.045-0.569,0.03-0.928,0.03-1.392
			l0.03-0.988c0.06-0.142,0.03-0.434,0.104-0.448c0.016-0.03,0.022-0.075,0.016-0.12c0.045-0.029,0.09-0.06,0.119-0.097l0.03-0.067
			l0.015-0.038c-0.052,0.061,0.449-0.509,0.262-0.299l0.045-0.06c0.135-0.18,0.232-0.292,0.397-0.531
			c0.883-1.399,1.129-2.223,1.452-3.105c1.167-3.501,1.75-6.808,2.259-10.204c0.464-3.382,0.778-6.771,0.793-10.242
			c0.016-0.868-0.015-1.751-0.044-2.634c0.015-0.135-0.03-1.811,0.149-1.87c0.09-0.165,0.045-0.292,0.165-0.51
			c0.12-0.217,0.225-0.441,0.314-0.673c0.329-0.411,0.583-0.868,1.062-1.242c1.698-1.661,4.586-2.761,7.481-3.509
			c2.94-0.748,6.067-1.167,9.217-1.421c1.586-0.104,3.173-0.188,4.773-0.218c0.801-0.029,1.601-0.015,2.401-0.021h1.205h0.509
			l0.314-0.023l0.614-0.029c1.653-0.12,3.262-0.165,4.952-0.329l5.32-0.98c6.755-1.623,13.003-4.159,19.115-6.718l9.053-3.786
			l4.489-1.676l4.729-1.952c6.494-3.12,11.94-7.131,17.17-11.38c5.215-4.265,10.018-8.903,14.731-13.557
			c4.766-4.639,9.149-9.815,13.602-14.327c4.466-4.519,9.359-8.207,15.135-10.003l-0.037-0.112c2.483-0.568,4.975-1.107,7.489-1.549
			l7.781-1.504l3.98-0.77l3.905-0.823l7.811-1.646l7.826-1.9c5.229-1.249,10.429-2.528,15.577-3.897l15.472-4.055l15.427-4.213
			c5.147-1.376,10.265-2.865,15.397-4.316c5.117-1.481,10.257-2.888,15.367-4.414l15.329-4.564c5.118-1.48,10.19-3.172,15.285-4.758
			l7.639-2.409c2.536-0.83,5.064-1.735,7.602-2.604l7.601-2.626c2.687-0.92,4.99-1.975,7.512-2.955
			c4.907-2.095,9.95-4.392,14.701-6.778c3.435-1.653,6.801-3.396,10.16-5.147c0.045,0.696,0.09,1.392,0.157,2.103
			c0.307,2.349,0.538,4.729,1.167,6.958c0.583,2.319,1.31,4.549,2.297,6.785c1.01,2.207,2.252,4.422,4.159,6.427
			c0.973,0.987,2.17,1.915,3.606,2.574l1.13,0.427c0.396,0.097,0.801,0.179,1.204,0.262l0.157,0.029l0.075,0.016l0.037,0.007
			l0.329,0.022l0.209,0.008c0.165-0.008,0.218,0.008,0.479-0.008c0.276-0.015,0.546-0.045,0.823-0.082l0.403-0.067l0.263-0.06
			c1.443-0.345,2.559-0.801,3.658-1.279c1.107-0.479,2.14-0.995,3.164-1.512c4.07-2.103,7.894-4.399,11.701-6.733
			c7.587-4.653,14.986-9.546,22.43-14.17l2.679-1.624l2.933-1.541c1.96-0.965,3.83-1.743,5.791-2.618
			c2.79-1.167,5.633-2.26,8.469-3.359l0.135,1.698c0.217,1.998,0.576,4.055,0.936,6.165c0.225,0.86,0.538,1.982,0.89,2.955
			c0.345,0.995,0.756,1.982,1.212,2.955c0.951,1.945,2.117,3.913,4.062,5.626c0.98,0.846,2.223,1.609,3.696,1.99
			c0.366,0.105,0.733,0.18,1.122,0.21l0.568,0.052l0.143,0.016c-0.075,0.007,0.912-0.045,0.516-0.03l0.038-0.008l0.18-0.029
			l0.71-0.12c0.337-0.082,0.719-0.202,1.078-0.329c0.366-0.12,0.732-0.255,1.084-0.396l0.727-0.352
			c0.471-0.239,0.987-0.464,1.414-0.718c0.883-0.494,1.78-0.988,2.611-1.512c3.381-2.058,6.561-4.242,9.726-6.441l9.39-6.659
			l4.66-3.307l2.327-1.631l1.159-0.793l0.292-0.194l0.143-0.098l0.599-0.321c1.676-0.868,3.366-1.923,5.035-2.634l4.997-2.154
			c3.449-1.399,7.018-2.791,10.571-4.138c7.138-2.724,14.327-5.312,21.494-8.2c3.592-1.346,7.168-3.015,10.744-4.578l5.387-2.978
			c1.429-0.801,3.239-1.96,4.825-2.798l4.886-2.462l5.147-2.387l10.452-4.631l10.525-4.594l5.283-2.387
			c1.076-0.501,2.154-1.032,3.231-1.571c1.354,1.422,2.724,2.836,4.138,4.22c0.942,0.98,1.99,1.915,3.021,2.858
			c0.539,0.471,0.996,0.935,1.594,1.414l1.879,1.398c0.336,0.232,0.575,0.464,0.994,0.688l0.441,0.247l0.644,0.321
			c0.456,0.202,0.913,0.404,1.646,0.562c0.165,0.037,0.465,0.067,0.696,0.074c0.202,0.023,0.546,0.016,0.935-0.06
			c0.18-0.037,0.352-0.074,0.539-0.135c0.217-0.082,0.434-0.179,0.637-0.292c0.426-0.231,0.748-0.538,1.039-0.897
			c0.988-1.421,0.816-2.117,0.913-2.655c0.03-0.547,0.015-0.906,0.007-1.25l-0.014-1.002c-0.008-0.083-0.016-0.18-0.016-0.277
			l0.119,0.143l0.255,0.291l0.09,0.083l0.718,0.703c0.606,0.523,1.369,1.13,2.006,1.578c1.197,0.839,2.424,1.587,3.658,2.297
			c1.25,0.681,2.514,1.347,3.846,1.931c1.346,0.591,2.715,1.137,4.384,1.519l0.3,0.075c0.09,0.015,0,0.007,0.246,0.052l0.127,0.015
			l0.494,0.075l0.995,0.143c0.973,0.135,1.563,0.119,2.237,0.18l0.254,0.015l0.494,0.022l0.501-0.008l1.003-0.015
			c0.598,0.029,1.557-0.112,2.342-0.194c0.83-0.053,1.66-0.329,2.483-0.539c0.801-0.172,1.78-0.763,2.618-1.196l1.699-0.868
			l-0.427-2.147c-0.255-1.271-0.538-2.521-0.86-3.703c-0.202-0.756-0.419-1.481-0.629-2.215l2.881,1.639v-1.392l0.082,0.007
			c0.143,0.016,0.441-0.007,0.65-0.015l1.385-0.09c0.419-0.067,0.823-0.157,1.234-0.239c0.838-0.135,1.549-0.471,2.319-0.711
			l2.356-0.732l-0.381-1.923c0.201,0.007,0.396,0.007,0.621,0.007c0.598,0,1.166-0.029,1.728-0.067
			c1.122-0.074,2.267-0.254,3.449-0.53c0.606-0.188,1.183-0.314,1.833-0.614c0.329-0.157,0.613-0.231,0.973-0.456
			c0.336-0.202,0.674-0.412,0.995-0.629l1.608-1.084l-0.494-1.983c-0.246-0.973-0.508-1.915-0.801-2.79l-0.262-0.764
			c0.09,0.008,0.18,0.016,0.262,0.022l0.075,0.008h0.038l0.217,0.007l0.082-0.007l0.172-0.008l0.329-0.007
			c0.247-0.016,0.404-0.008,0.718-0.038l0.996-0.142c0.695-0.09,1.182-0.292,1.773-0.457c0.545-0.18,1.055-0.418,1.578-0.643
			l2.244-0.936l-0.591-2.342l-0.704-2.753c-0.209-0.942-0.561-1.736-0.838-2.611c-0.291-0.86-0.583-1.714-0.935-2.544
			c-0.345-0.83-0.658-1.66-1.04-2.498l-1.189-2.484c-0.396-0.764-0.764-1.526-1.279-2.409c-0.494-0.86-1.122-1.735-1.811-2.559
			c-0.719-0.801-1.504-1.526-2.334-2.162c-0.404-0.329-0.838-0.576-1.265-0.868c-0.231-0.149-0.39-0.262-0.681-0.434l-0.561-0.314
			l-2.252-1.257l-4.504-2.507l-1.879-1.047c0.367-0.082,0.727-0.149,1.107-0.239l4.459-1.07c1.475-0.352,3.135-0.972,4.631-1.429
			l1.961-0.605c0.65-0.21,1.346-0.232,2.012-0.359c0.637-0.09,1.459-0.255,1.931-0.284l2.29-0.098
			c3.074-0.165,6.066-0.149,9.06-0.142l9.157-0.045c3.067,0.021,6.18-0.15,9.285-0.3c1.562-0.082,3.082-0.12,4.684-0.239
			l1.145-0.104l0.568-0.053l0.291-0.022l0.42-0.053l2.267-0.307l2.282-0.314l2.379-0.471c1.615-0.292,3.156-0.658,4.668-1.055
			c3.061-0.756,6.03-1.691,8.963-2.597c2.926-0.912,5.799-1.803,8.656-2.551l2.14-0.517l1.212-0.291l1.107-0.3
			c1.481-0.389,2.926-0.726,4.541-1.354l2.35-0.838l2.207-0.949c1.475-0.614,2.896-1.317,4.302-2.043
			c2.835-1.422,5.536-3.03,8.208-4.698c1.309-0.868,2.633-1.714,3.912-2.634l0.973-0.673l1.033-0.838
			c0.688-0.628,1.503-1.466,1.989-2.11c2.215-2.761,3.688-5.679,4.976-8.664c0.636-1.497,1.197-3.015,1.684-4.586
			c0.426-1.459,0.838-2.79,1.039-4.653c0.008-0.022,0.016-0.045,0.016-0.06l0.119-0.262l0.15-0.382l0.111-0.314l0.008-0.007
			l0.016-0.045l0.015-0.038l1.474-4.025H958.082z"/>
	</g>
</g>
</svg>
