<?xml version="1.0" encoding="utf-8"?>
<!-- Generator: Adobe Illustrator 16.0.0, SVG Export Plug-In . SVG Version: 6.00 Build 0)  -->
<!DOCTYPE svg PUBLIC "-//W3C//DTD SVG 1.1//EN" "http://www.w3.org/Graphics/SVG/1.1/DTD/svg11.dtd">
<svg version="1.1" id="Layer_1" xmlns="http://www.w3.org/2000/svg" xmlns:xlink="http://www.w3.org/1999/xlink" x="0px" y="0px"
	 width="1000px" height="1000px" viewBox="0 0 1000 1000" enable-background="new 0 0 1000 1000" xml:space="preserve">
<g>
	<g>
		<defs>
			<rect id="SVGID_1_" x="42.891" y="38.886" width="914.603" height="914.618"/>
		</defs>
		<clipPath id="SVGID_2_">
			<use xlink:href="#SVGID_1_"  overflow="visible"/>
		</clipPath>
		<g clip-path="url(#SVGID_2_)">
			<defs>
				<rect id="SVGID_3_" x="42.891" y="38.886" width="914.603" height="914.618"/>
			</defs>
			<clipPath id="SVGID_4_">
				<use xlink:href="#SVGID_3_"  overflow="visible"/>
			</clipPath>
			<path clip-path="url(#SVGID_4_)" d="M356.384,497.141c-0.021-0.351-0.09-0.666-0.1-1.027
				C356.284,496.114,356.3,496.496,356.384,497.141"/>
			<path clip-path="url(#SVGID_4_)" d="M487.748,448.104c0,0,15.368-5.406,24.881,0
				C512.629,448.104,500.665,438.616,487.748,448.104"/>
			<path clip-path="url(#SVGID_4_)" d="M379.417,669.016c-1.17,0.43-2.208,1.111-3.303,1.716c-1.014,0.712-2.051,1.432-2.948,2.297
				c-1.89,1.657-3.462,3.645-4.784,5.762c-0.65,1.076-1.222,2.195-1.731,3.343c-0.515,1.165-0.932,2.292-1.296,3.618l-0.036,0.141
				v0.185l-0.021,19.217c0.005,6.4-0.015,12.846,0.141,19.254c0.046,3.216,0.161,6.415,0.305,9.613l0.195,4.799
				c0.015,1.547,0.187,3.363,0.748,4.936c1.14,3.231,3.526,5.823,6.285,7.547c2.758,1.762,5.859,2.876,9.019,3.394
				c-3.083-0.843-6.021-2.208-8.553-4.064c-2.527-1.852-4.515-4.41-5.301-7.332c-0.441-1.478-0.525-2.894-0.479-4.54l0.015-4.81
				c-0.01-3.207,0.013-6.405,0.105-9.599c0.2-6.399,0.128-12.767,0.269-19.177l0.287-18.986c0.249-0.958,0.61-2.044,1.035-3.029
				c0.425-1.056,0.96-2.057,1.478-3.068c0.559-0.991,1.15-1.962,1.816-2.886c0.691-0.896,1.365-1.824,2.151-2.644
				c0.74-0.876,1.631-1.577,2.468-2.376c0.919-0.676,1.795-1.442,2.817-1.998c0.955-0.671,2.01-1.175,3.073-1.683
				c1.07-0.515,2.215-0.835,3.332-1.315c-1.181,0.161-2.417,0.22-3.588,0.561C381.734,668.195,380.543,668.506,379.417,669.016"/>
			<path clip-path="url(#SVGID_4_)" d="M446.205,429.502c0,0-14.062-5.03-66.378-1.012c-15.901,1.222-22.331,10.39-25.43,19.012
				c-3.102,8.628,3.508,45.708,3.508,45.708c6.612,38.586,56.365,35.691,76.258,32.89c32.27-4.537,38.316-41.543,40.541-63.257
				C477.517,435.443,447.111,430.011,446.205,429.502"/>
			<path clip-path="url(#SVGID_4_)" d="M520.905,686.412l-1.011,2.842c0.171,0.085,16.226,10.721,5.56,44.617l2.889,0.909
				C539.006,700.894,524.094,687.472,520.905,686.412"/>
			<path clip-path="url(#SVGID_4_)" d="M616.755,681.598c-1.138-3.228-3.529-5.816-6.282-7.543
				c-2.766-1.762-5.859-2.873-9.021-3.393c3.083,0.845,6.021,2.207,8.553,4.059c2.527,1.852,4.513,4.415,5.309,7.332
				c0.431,1.485,0.515,2.901,0.467,4.549l-0.006,4.804c0.006,3.204-0.015,6.407-0.115,9.604c-0.199,6.393-0.12,12.759-0.261,19.169
				l-0.29,19.002c-0.25,0.96-0.614,2.036-1.039,3.021c-0.418,1.053-0.947,2.055-1.478,3.063c-0.546,0.996-1.145,1.962-1.811,2.884
				c-0.687,0.896-1.357,1.831-2.148,2.643c-0.735,0.881-1.632,1.585-2.472,2.377c-0.917,0.676-1.798,1.441-2.817,1.997
				c-0.952,0.676-2.002,1.176-3.078,1.69c-1.065,0.512-2.202,0.832-3.318,1.311c1.175-0.158,2.412-0.22,3.577-0.556
				c1.178-0.31,2.369-0.619,3.504-1.129c1.167-0.431,2.202-1.116,3.303-1.714c1.012-0.719,2.052-1.434,2.953-2.297
				c1.882-1.659,3.455-3.646,4.784-5.77c0.643-1.076,1.216-2.188,1.718-3.342c0.515-1.163,0.94-2.287,1.301-3.619l0.044-0.136
				v-0.189l0.021-19.217c-0.011-6.397,0.01-12.838-0.159-19.253c-0.035-3.209-0.15-6.416-0.292-9.609l-0.194-4.799
				C617.489,684.985,617.305,683.175,616.755,681.598"/>
			<path clip-path="url(#SVGID_4_)" d="M470.436,436.852c0,0-6.271-11.911-21.634-10.6
				C448.151,426.306,465.458,428.413,470.436,436.852"/>
			<path clip-path="url(#SVGID_4_)" d="M356.384,497.141c1.431,23.437,25.058,27.205,25.058,27.205
				C360.208,517.039,356.894,501.264,356.384,497.141"/>
			<path clip-path="url(#SVGID_4_)" d="M523.636,462.845c2.228,21.709,8.267,58.714,40.536,63.257
				c19.903,2.794,69.661,5.69,76.269-32.89c0,0,6.602-37.087,3.508-45.715c-3.099-8.62-9.534-17.789-25.427-19.005
				c-52.318-4.023-66.386,1.012-66.386,1.012C551.229,430.006,520.824,435.446,523.636,462.845"/>
			<path clip-path="url(#SVGID_4_)" d="M500.183,38.888c-252.544,0-457.29,204.751-457.29,457.311
				c0,252.551,204.746,457.308,457.29,457.308c252.557,0,457.305-204.757,457.305-457.308
				C957.488,243.64,752.74,38.888,500.183,38.888 M387.819,764.185c-17.117,0-27.199-12.093-27.199-24.183v-53.135
				c0-16.395,9.068-24.186,21.164-24.186l69.005,20.913c-4.653,6.65-7.752,14.423-8.891,22.831l-21.996,0.351l21.599,4.164
				c-0.044,0.835-0.125,1.651-0.125,2.491c0,2.192,0.177,4.344,0.44,6.462l-21.914,4.228l22.674,0.366
				c1.532,7.061,4.505,13.578,8.574,19.269L387.819,764.185z M493.627,762.669c-27.148,0-49.233-22.086-49.233-49.237
				c0-27.153,22.085-49.238,49.233-49.238c27.156,0,49.241,22.085,49.241,49.238C542.868,740.583,520.783,762.669,493.627,762.669
				 M623.615,740.002c0,12.09-10.08,24.183-27.204,24.183L535.92,744.02c4.17-5.754,7.222-12.361,8.769-19.537l22.536-0.361
				l-21.78-4.202c0.267-2.128,0.445-4.284,0.445-6.487c0-0.063-0.01-0.125-0.01-0.189l21.345-4.123l-21.57-0.346
				c-0.835-9.408-4.18-18.093-9.353-25.414l66.153-20.678c12.092,0,21.16,7.791,21.16,24.186V740.002z M666.938,454.046
				c0,0-13.747,3.247-18.09,38.286c-4.005,32.309-33.556,38.614-33.556,38.614s-25.975,9.813-61.279,1.353
				c-41.022-9.834-24.361-63.573-44.557-75.525c-2.996-1.772-5.834-2.732-8.456-3.204c-3.199,0.066-6.707,0.927-10.069,3.37
				c-18.981,13.806-5.58,65.524-46.603,75.358c-35.305,8.461-61.274-1.353-61.274-1.353s-29.555-6.305-33.55-38.614
				c-4.343-35.039-18.095-38.286-18.095-38.286l-2.453-36.012l103.854,0.023c0,0,27.865-1.134,46.506,13.442l-0.026-0.1
				c0,0,22.341,18.267,34.232,5.119c18.005-19.916,52.011-18.462,52.011-18.462l103.859-0.023L666.938,454.046z M689.018,296.602
				c-1.631,33.815-18.216,65.926-19.422,94.496c-52.992-52.848-42.854-100.901-36.413-118.512l-1.457-1.473
				c-11.539,12.756-45.966,42.389-114.157,38.465c-71.874-4.139-193.462,11.47-206.033,73.286c0,0-8.843-92.854,72.824-129.611
				c0,0-18,3.352-32.805,12.856c0,0,109.465-138.441,231.694-86.795c0,0,43.238,19.168,55.62,62.343
				c0.45-2.822,0.691-5.69,0.565-8.518c0,0,4.868,9.614,5.193,20.838c5.081,3.698,13.578,4.08,21.801,6.095
				c4.144-0.515,8.213-0.405,11.645,0.837c0,0-1.721,0.525-4.374,1.564C682.866,266.585,690.05,275.162,689.018,296.602"/>
			<path clip-path="url(#SVGID_4_)" d="M556.563,424.3c0,0-12.991-3.677-23.376,9.519
				C533.188,433.819,546.395,422.564,556.563,424.3"/>
			<path clip-path="url(#SVGID_4_)" d="M612.094,528.983c0,0,31.394-5.009,33.299-36.147
				C644.717,498.316,640.314,519.28,612.094,528.983"/>
			<path clip-path="url(#SVGID_4_)" d="M645.391,492.836c0.11-0.855,0.125-1.357,0.125-1.357
				C645.506,491.955,645.421,492.375,645.391,492.836"/>
		</g>
	</g>
</g>
</svg>
