<?xml version="1.0" encoding="utf-8"?>
<!-- Generator: Adobe Illustrator 16.0.0, SVG Export Plug-In . SVG Version: 6.00 Build 0)  -->
<!DOCTYPE svg PUBLIC "-//W3C//DTD SVG 1.1//EN" "http://www.w3.org/Graphics/SVG/1.1/DTD/svg11.dtd">
<svg version="1.1" id="Layer_1" xmlns="http://www.w3.org/2000/svg" xmlns:xlink="http://www.w3.org/1999/xlink" x="0px" y="0px"
	 width="1000px" height="1000px" viewBox="0 0 1000 1000" enable-background="new 0 0 1000 1000" xml:space="preserve">
<g>
	<g>
		<path fill="#FFFFFF" d="M965.574,508.446c0-37.512-49.896-71.518-130.834-96.508c0.055,0.264,0.041,0.528,0.098,0.779
			c-49.59-16.641-112.454-29.581-183.485-37.401c-33.269-48.922-93.476-81.648-162.308-81.648
			c-69.487,0-130.222,33.296-163.31,82.956C177.035,394.42,66.53,435.008,41.874,484.111c-4.689,7.903-7.138,16.029-7.138,24.335
			c0,56.478,112.997,105.038,275.123,126.757c30.764,42.341,97.649,71.77,175.443,71.77c75.345,0,140.49-27.605,172.479-67.804
			C837.23,619.885,965.574,568.652,965.574,508.446z"/>
		<path d="M485.302,710.535c-75.303,0-144.692-28.219-177.418-72.006C137.158,615.445,31.174,565.661,31.174,508.446
			c0-8.814,2.574-17.615,7.639-26.151c24.544-48.908,133.672-90.713,284.876-109.01c34.938-51.35,98.136-83.179,165.355-83.179
			c67.456,0,128.747,30.569,164.325,81.85c67.039,7.465,127.969,19.695,176.793,35.467l-0.181-0.814l5.815,1.927
			c85.989,26.548,133.339,62.029,133.339,99.91c0,61.11-121.428,113.692-309.505,134.104
			C625.402,684.516,558.796,710.535,485.302,710.535z M489.044,297.23c-65.466,0-126.91,31.182-160.346,81.37l-0.904,1.364
			l-1.642,0.195C176.465,398.073,68.756,438.521,45.06,485.711c-4.522,7.646-6.762,15.222-6.762,22.735
			c0,52.721,106.777,101.086,272.034,123.224l1.517,0.208l0.891,1.239c31.028,42.701,98.762,70.293,172.562,70.293
			c72.047,0,137.067-25.463,169.696-66.453l0.918-1.169l1.488-0.167c182.191-19.577,304.607-70.684,304.607-127.175
			c0-33.679-43.453-66.001-122.555-91.29l0.25,1.12l-5.996-2.185c-49.674-16.662-112.871-29.54-182.748-37.234l-1.628-0.181
			l-0.933-1.356C614.299,327.174,554.732,297.23,489.044,297.23z"/>
	</g>
	<path fill="#FFFFFF" d="M834.74,411.938C834.795,412.203,834.684,411.688,834.74,411.938
		c-83.791-28.106-205.164-45.012-340.353-45.012c-229.276,0-419.204,50.842-452.514,117.185c-4.689,7.903-7.138,16.029-7.138,24.335
		c0,76.722,208.391,138.904,465.412,138.904c257.049,0,465.426-62.183,465.426-138.904
		C965.574,470.934,915.678,436.928,834.74,411.938z"/>
	<path fill="#FFFFFF" d="M680.836,583.123c0,68.402-86.685,123.85-193.6,123.85c-106.888,0-193.573-55.447-193.573-123.85
		c0-68.401,86.685-12.605,193.573-12.605C594.151,570.518,680.836,514.722,680.836,583.123z"/>
	<path d="M674.77,415.709c0.209,21.344-88.117,42.382-199.806,43.426c-111.688,1.043-202.38-15.417-202.575-36.775
		c-0.209-21.344,90.163-39.488,201.852-40.545C585.928,380.771,674.574,394.365,674.77,415.709z"/>
	<g>
		<path fill="#FFFFFF" d="M487.097,293.668c-85.21,0-157.285,50.049-181.3,118.979c21.01,16.613,111.563,30.861,172.395,30.861
			c65.312,0,137.137-1.781,190.512-29.818C645.049,344.232,572.724,293.668,487.097,293.668z"/>
		<path d="M478.191,447.071c-60.971,0-152.442-14.109-174.607-31.626l-1.99-1.572l0.834-2.394
			c25.296-72.597,99.514-121.373,184.668-121.373c85.696,0,160.04,49.2,184.974,122.437l0.988,2.887l-2.699,1.413
			C617.263,444.741,546.314,447.071,478.191,447.071z M310.054,411.319c23.877,15.57,110.464,28.628,168.138,28.628
			c66.051,0,134.744-2.191,186.115-28.002C639.4,343.203,568.605,297.23,487.097,297.23
			C405.95,297.23,335.169,342.966,310.054,411.319z"/>
	</g>
	<path d="M483.66,320.502c-38.347,0-73.021,13.886-98.164,36.295c25.449-28.406,64.561-46.647,108.502-46.647
		c62.669,0,115.598,37.019,132.921,87.86c-4.216,0.64-7.986,2.894-11.757,4.028C594.234,357.27,541.459,320.502,483.66,320.502z"/>
	<path d="M276.326,466.036c-6.192,6.79-16.279,7.639-22.569,1.92c-6.247-5.719-6.303-15.848-0.097-22.638
		c6.206-6.804,16.293-7.653,22.583-1.92C282.49,449.117,282.532,459.246,276.326,466.036z"/>
	<path d="M409.943,504.662c-3.492,10.602-14.234,16.571-24.057,13.357c-9.782-3.229-14.875-14.415-11.396-25.032
		c3.493-10.603,14.262-16.572,24.072-13.372C408.343,482.844,413.436,494.045,409.943,504.662z"/>
	<path fill="#FFFFFF" d="M273.85,464.395c-5.83,6.386-15.319,7.193-21.233,1.809c-5.886-5.385-5.928-14.916-0.098-21.302
		c5.844-6.4,15.333-7.194,21.247-1.809C279.651,448.477,279.693,458.008,273.85,464.395z"/>
	<path d="M257.458,450.438c3.521-3.868,8.947-4.508,12.913-2.018c-0.417-0.668-0.766-1.377-1.364-1.934
		c-3.979-3.618-10.366-3.089-14.29,1.21c-3.924,4.3-3.896,10.714,0.056,14.332c0.417,0.376,0.932,0.515,1.377,0.793
		C253.827,459.121,254.133,454.07,257.458,450.438z"/>
	<path fill="#FFFFFF" d="M409.053,501.879c-3.312,10.074-13.525,15.751-22.847,12.689c-9.294-3.061-14.137-13.691-10.825-23.779
		c3.312-10.074,13.539-15.751,22.861-12.704C407.536,481.147,412.378,491.791,409.053,501.879z"/>
	<path d="M380.111,495.479c2.324-7.096,9.531-11.09,16.112-8.961c0.362,0.125,0.626,0.417,0.96,0.584
		c-1.196-1.224-2.629-2.24-4.341-2.811c-6.248-2.031-13.107,1.767-15.319,8.516c-1.739,5.301-0.042,10.714,3.729,13.844
		C379.43,503.438,378.803,499.444,380.111,495.479z"/>
	<path d="M673.184,466.036c6.191,6.79,16.279,7.639,22.568,1.92c6.248-5.719,6.303-15.848,0.098-22.638
		c-6.205-6.804-16.293-7.653-22.582-1.92C667.02,449.117,666.979,459.246,673.184,466.036z"/>
	<path d="M539.566,504.662c3.492,10.602,14.234,16.571,24.058,13.357c9.782-3.229,14.874-14.415,11.396-25.032
		c-3.492-10.603-14.262-16.572-24.071-13.372C541.166,482.844,536.074,494.045,539.566,504.662z"/>
	<path fill="#FFFFFF" d="M675.66,464.395c5.83,6.386,15.319,7.193,21.232,1.809c5.887-5.385,5.928-14.916,0.098-21.302
		c-5.844-6.4-15.333-7.194-21.246-1.809C669.857,448.477,669.816,458.008,675.66,464.395z"/>
	<path d="M692.051,450.438c-3.52-3.868-8.947-4.508-12.912-2.018c0.418-0.668,0.766-1.377,1.363-1.934
		c3.98-3.618,10.366-3.089,14.29,1.21c3.924,4.3,3.896,10.714-0.056,14.332c-0.418,0.376-0.932,0.515-1.377,0.793
		C695.683,459.121,695.377,454.07,692.051,450.438z"/>
	<path fill="#FFFFFF" d="M540.457,501.879c3.312,10.074,13.524,15.751,22.848,12.689c9.294-3.061,14.137-13.691,10.824-23.779
		c-3.312-10.074-13.538-15.751-22.86-12.704C541.974,481.147,537.132,491.791,540.457,501.879z"/>
	<path d="M569.398,495.479c-2.324-7.096-9.531-11.09-16.113-8.961c-0.361,0.125-0.625,0.417-0.959,0.584
		c1.196-1.224,2.629-2.24,4.341-2.811c6.247-2.031,13.106,1.767,15.319,8.516c1.739,5.301,0.042,10.714-3.729,13.844
		C570.08,503.438,570.707,499.444,569.398,495.479z"/>
	<path d="M502.514,633.659c-209.087,0-387.549-39.028-458.302-94.018c38.208,65.243,228.803,114.833,458.302,114.833
		c229.526,0,416.727-49.172,454.935-114.416C886.695,595.047,711.614,633.659,502.514,633.659z"/>
	<path d="M500.148,647.351c-69.821,0-135.996-4.62-195.423-12.843c31.279,36.288,91.61,60.889,160.958,60.889
		c63.949,0,120.204-20.914,153.124-52.609C580.92,645.75,541.166,647.351,500.148,647.351z"/>
	<path fill-rule="evenodd" clip-rule="evenodd" d="M96.584,487.283c0.042-6.442,1.948-12.731,5.635-18.826
		c5.705-11.201,17.212-21.79,33.561-31.516c-35.718,12.676-60.29,28.315-69.083,45.61c-3.228,5.357-4.926,10.895-4.954,16.53
		c-0.306,52.248,141.367,95.409,316.378,96.41c7.611,0.028,15.125-0.027,22.596-0.139
		C228.142,586.365,96.264,541.061,96.584,487.283z"/>
	<path fill-rule="evenodd" clip-rule="evenodd" d="M895.962,487.283c-0.042-6.442-1.948-12.731-5.636-18.826
		c-5.705-11.201-17.211-21.79-33.561-31.516c35.718,12.676,60.29,28.315,69.084,45.61c3.228,5.357,4.926,10.895,4.953,16.53
		c0.307,52.248-141.367,95.409-316.379,96.41c-7.61,0.028-15.124-0.027-22.596-0.139
		C764.404,586.365,896.281,541.061,895.962,487.283z"/>
</g>
</svg>
