<?xml version="1.0" encoding="utf-8"?>
<!-- Generator: Adobe Illustrator 16.0.0, SVG Export Plug-In . SVG Version: 6.00 Build 0)  -->
<!DOCTYPE svg PUBLIC "-//W3C//DTD SVG 1.1//EN" "http://www.w3.org/Graphics/SVG/1.1/DTD/svg11.dtd">
<svg version="1.1" id="Layer_1" xmlns="http://www.w3.org/2000/svg" xmlns:xlink="http://www.w3.org/1999/xlink" x="0px" y="0px"
	 width="1000px" height="1000px" viewBox="0 0 1000 1000" enable-background="new 0 0 1000 1000" xml:space="preserve">
<g>
	<g>
		<g>
			<path fill="#010101" d="M101.479,925.582c-6.83,0-12.213-0.361-16-1.071c-0.753-0.142-1.548-0.287-2.378-0.438
				c-10.581-1.928-26.57-4.842-33.877-14.592l-0.235-0.314l0.041-0.391c0.007-0.062,0.772-6.256,10.042-6.256
				c4.651,0,10.711,1.55,18.012,4.606c8.313,2.156,28.058,7.122,33.559,7.122c7.409,0,15.882-2.319,15.966-2.343l292.12-102.983
				c-2.596-33.986,28.798-49.651,30.487-50.465c4.382-3.566,8.67-7.396,12.75-11.385c1.747-1.712,3.49-3.474,5.259-5.313
				l7.424-12.371c-1.321-2.541-4.212-8.752-2.112-10.857c2.005-2.004,7.055-4.537,7.269-4.644l1.002-0.501l0.384,1.054
				c0.821,2.251,2.351,4.76,3.234,4.76c0.035,0,0.139,0,0.312-0.131c2.216-1.655,8.597-8.485,9.841-9.824l1.241-8.677l0.019-0.064
				c0.51-1.792,2.564-5.182,6.693-5.182c1.676,0,2.572,0.487,3.081,1.076c0.177-0.211,0.379-0.454,0.597-0.716
				c1.014-1.212,2.258-3.256,3.603-5.922c0.125-1.201,0.212-2.287,0.262-2.965l-10.081-3.939c-0.711,0.058-2.926,0.215-5.749,0.215
				c-5.33,0-12.386-0.576-15.737-3.32c-5.539-4.534-69.29-98.119-76.574-109.041c-7.466-11.221-24.896-37.414-24.509-54.362
				c-3.314-6.297-2.916-13.54,1.178-21.57c-6.833,3.091-20.122,9.039-25.297,10.916c-0.966,0.352-2.173,0.842-3.571,1.409
				c-5.899,2.395-14.814,6.015-22.305,6.015c-4.03,0-7.229-1.066-9.507-3.171c-1.635-1.511-3.42-3.124-5.306-4.795
				c-6.839-3.837-11.464-7.834-14.539-12.567l-0.503-0.439l0.125-0.147c-0.007-0.011-0.014-0.022-0.021-0.033
				c-4.606-4.537-7.108-8.333-7.438-11.284c-0.54-4.862,0.651-7.228,1.253-8.083c-0.03-2.61,0.284-17.226,10.912-20.353
				c3.973-1.169,6.553-1.571,8.83-1.926c3.9-0.608,6.477-1.009,13.22-4.975c1.699-1,3.326-1.974,4.857-2.905
				c-9.147-8.659-34.295-23.964-69-23.964c-4.438,0-8.988,0.244-13.522,0.724l-0.119-0.69c-2.816,0.34-5.623,0.777-8.397,1.309
				l-0.288,0.055l-0.272-0.108c-0.056-0.022-5.57-2.329-3.454-10.252c1.152-4.326,2.851-12.599,4.09-18.64
				c0.952-4.635,1.458-7.082,1.653-7.671c0.018-0.061,0.066-0.302,0.046-1.078l-0.125,0.247c0,0-0.9-4.306-1.381-6.635
				c-1.457,1.11-3.701,2.115-7.12,2.307c-0.85,0.185-1.682,0.278-2.474,0.278c-2.836,0-5.009-1.167-6.285-3.375
				c-0.724-1.252-1.358-2.511-1.918-3.622c-0.915-1.815-1.72-3.414-2.546-4.282c-0.407,0.085-0.873,0.127-1.408,0.127
				c-1.218,0-2.449-0.224-2.873-0.309c-0.464-0.002-0.864-0.294-0.996-0.729c-0.165-0.542,0.093-0.927,0.482-1.256
				c-0.712-0.679-1.171-1.475-1.51-2.153c-0.156-0.311-0.271-0.591-0.363-0.838c-0.802-0.037-1.497-0.382-1.888-0.623
				c-0.327,0.019-0.678,0.031-1.04,0.031c-2.727,0-4.436-0.738-5.081-2.193c-0.161-0.361-0.336-0.772-0.522-1.208
				c-0.587-1.375-1.789-4.19-2.461-4.673c-0.407,0.042-1.388,0.408-2.184,0.706c-1.601,0.599-3.414,1.277-4.903,1.277
				c-1.468,0-2.18-0.677-2.52-1.245c-0.958-1.595-1.156-3.423-1.315-4.892c-0.093-0.858-0.181-1.669-0.394-2.093
				c-0.577-1.16-4.382-7.028-7.043-10.21l-1.242,0.493l-0.457-0.385c-0.348-0.293-8.523-7.201-13.175-13.255
				c-1.325-1.029-2.375-1.832-2.376-1.833l-0.37-0.283l-0.021-0.466c-0.002-0.051-0.244-5.175-1.156-8.365
				c-0.465-1.625-2.27-1.85-4.237-1.951c-0.829-0.042-1.377-0.071-1.796-0.351c-1.155-0.772-13.465-18.789-3.411-35.711l0.593-1
				c8.962-15.114,29.949-50.508,74.395-50.508c5.079,0,10.387,0.467,15.776,1.387l0.092,0.016l0.087,0.032
				c0.882,0.327,21.686,8.175,29.41,22.665c0.823,1.544,1.588,2.939,2.288,4.21c3.727,0.437,6.523,0.923,6.552,0.929l0.556,0.097
				l8.518,21.998l-4.11-0.916c0.937,3.961,2.277,9.031,4.234,11.478c3.805,4.757,8.362,11.698,8.408,11.767l0.296,0.452
				l-1.279,2.945c1.664-0.967,3.712-1.947,5.174-1.947c0.111,0,0.219,0.005,0.323,0.016c1.857,0.186,3.108,1.011,4.022,1.614
				c0.312,0.206,0.59,0.39,0.839,0.516c0.256-0.086,0.875-0.343,1.476-0.591c3.676-1.521,12.284-5.083,25.019-5.083
				c7.859,0,16.058,1.361,24.394,4.047l0.717-0.387c0.542-0.292,54.934-29.231,123.209-29.231c20.269,0,39.963,2.545,58.547,7.566
				l240.29-181.756c-1.348-2.276-4.841-9.083-4.44-17.94l0.083-1.826l17.194,12.133l18.787-11.455l2.847-2.149l1.296,1.518
				l-17.826,17.212l1.374,1.837c1.972,2.614,6.919,14.35,7.129,14.848l0.584,1.388h-1.506c-4.214,0-14.907-6.326-17.764-8.062
				l-27.222,20.396c3.606,2.941,5.951,4.906,7.111,5.959l25.935-14.436l1.095,1.667l-22.531,17.272
				c2.109,2.539,6.405,11.617,6.91,12.69l0.581,1.235l-1.354,0.181c-0.757,0.101-1.514,0.152-2.249,0.152
				c-6.747,0-10.671-4.171-12.112-6.079L633.902,242.243l-59.42,45.562c28.573,12.867,54.555,32.473,77.243,58.294l0.21,0.239
				c0,0,0.08,0.757,0.168,1.557c0.014,0,0.028,0,0.042,0c0.76,0,1.104,0.444,1.216,0.635c0.177,0.301,0.197,0.608,0.16,0.865
				c4.141,8.016,30.262,64.497-33.925,101.431c-2.312,2.297-44.966,44.416-74.65,58.023c-25.562,11.717-37.753,23.536-40.843,26.829
				c4.848,2.798,24.068,14.962,32.445,36.177c9.445,23.942,37.569,50.741,39.766,52.387c0.356,0.268,0.566,0.658,0.593,1.101
				c0.046,0.773-0.466,1.64-1.655,2.797c0.783,2.227,3.32,6.554,10.609,14.858c7.993,9.098,16.159,24.493,21.313,39.696l0.058-0.026
				l8.037,17.531c0.935-0.617,2.541-1.351,5.319-2.274c7.305-2.432,19.187-15.506,19.306-15.638l1.742-1.926v14.095l-0.628,0.251
				c-0.003,0.002-0.472,0.218-0.589,0.745c-0.101,0.454-0.025,1.498,1.615,3.4c1.325,1.552,3.009,1.824,6.059,1.824
				c0.676,0,1.401-0.014,2.186-0.028c0.934-0.018,1.947-0.037,3.052-0.037c3.752,0,8.979,0.197,16.147,1.732
				c6.208,1.328,10.522,4.012,12.824,7.977c3.082,5.307,1.359,10.896,1.285,11.132l-0.054,0.17l13.441-4.84l0.446,0.56
				c0.113,0.141,2.762,3.49,2.762,6.351c0,1.174-0.511,2.586-1.159,3.905c47.118-13.508,156.287-44.49,157.402-44.807l88.168-25.264
				l11.13-6.924l-6.539,6.523l4.336-1.396l-3.554,3.156c-0.252,0.223-6.188,5.48-11.448,8.906l-0.614,0.614l-0.725,0.221
				c-1.724,1.03-3.093,1.663-4.184,1.935c-1.831,0.463-99.505,30.972-223.165,69.597
				c-246.544,77.008-584.199,182.474-594.658,184.98l-0.082,0.02l-0.084,0.006C114.945,925.169,108.667,925.582,101.479,925.582z
				 M545.996,759.672c-0.709,0.144-1.84,0.314-3.403,0.552c-11.892,1.806-48.054,7.295-45.452,24.994l60.241-18.187
				c-0.355-0.137-0.713-0.265-1.071-0.382c-3.427-1.148-4.616-5.865-4.987-8.041L545.996,759.672z M595.925,751.325
				c-0.433,0.387-0.839,0.966-0.753,1.213c0.019,0.055,0.538,1.329,7.272,1.329c12.054,0,74.045-29.276,77.687-31.002
				c-6.522,1.807-22.744,6.501-28.145,9.939C645.097,737.185,599.839,750.204,595.925,751.325z M554.574,280.05
				c3.101,1.025,6.155,2.114,9.111,3.249l198.091-147.744c-0.962-1.464-2.89-4.68-3.681-8.04L554.574,280.05z"/>
			<path fill="#010101" d="M818.838,74.528l-18.461,17.825c0,0,0,0,1.902,2.543c1.922,2.548,7.008,14.637,7.008,14.637
				c-4.455,0-17.82-8.27-17.82-8.27l-28.789,21.571c3.01,2.447,7.456,6.092,8.582,7.222l26.574-14.792l-23.419,17.953
				c0.155,0.156,0.312,0.311,0.503,0.503c1.912,1.908,6.998,12.725,6.998,12.725c-0.735,0.098-1.44,0.144-2.116,0.144
				c-8.085,0-11.88-6.506-11.88-6.506L633.301,241.444l-60.761,46.59c26.868,11.833,53.625,30.49,78.435,58.725
				c0,0,0.091,0.855,0.256,2.347c0.425-0.153,0.717-0.211,0.915-0.211c0.637,0,0.302,0.604,0.302,0.604l0,0l0,0
				c3.576,6.756,31.102,63.463-33.463,100.526c0,0-43.9,43.91-74.455,57.915c-30.554,14.006-42.007,28.002-42.007,28.002
				s23.546,12.094,33.097,36.28c9.541,24.187,37.543,50.907,40.096,52.819c0.512,0.385-0.01,1.281-1.254,2.471
				c-0.109,0.127-0.219,0.246-0.338,0.365c0-0.018-0.01-0.036-0.01-0.045c-0.201,0.174-0.402,0.348-0.621,0.539
				c0.229-0.146,0.438-0.311,0.631-0.494c0.668,2.479,3.375,7.107,10.986,15.78c8.947,10.182,19.192,30.087,23.912,48.767
				c-0.822-5.031-2.387-8.653-2.698-9.34l8.645,18.854c0.119-0.513,1.171-1.481,5.937-3.065
				c7.639-2.543,19.732-15.916,19.732-15.916v10.821c0,0-3.192,1.28,0.641,5.727c1.6,1.873,3.65,2.171,6.816,2.171
				c1.48,0,3.203-0.065,5.237-0.065c3.965,0,9.111,0.248,15.938,1.71c17.82,3.814,13.365,17.828,13.365,17.828
				s-24.188,6.357-31.186,10.812c-7.007,4.455-56.003,18.461-56.003,18.461s-5.727,4.445,6.998,4.445
				c12.726,0,78.278-31.176,78.278-31.176l15.918-5.727c0,0,2.543,3.184,2.543,5.727c0,1.354-0.896,3.412-2.215,5.535
				C743.23,715.953,856.7,683.752,856.7,683.752l88.304-25.303l3.824-2.379l-3.293,3.285c2.434-0.787,3.769-1.217,3.769-1.217
				s-6.138,5.451-11.417,8.873l-0.512,0.512l-0.604,0.184c-1.519,0.914-2.909,1.609-4.016,1.885
				c-5.096,1.271-801.902,250.761-817.814,254.575c0,0-6.224,0.415-13.461,0.415c-5.437,0-11.447-0.234-15.816-1.055
				c-10.182-1.912-28.001-4.455-35.64-14.646c0,0,0.57-5.362,9.047-5.361c3.942,0,9.594,1.159,17.692,4.557
				c10.259,2.662,28.491,7.172,33.879,7.172c7.638,0,16.233-2.379,16.233-2.379l292.914-103.261
				c-3.183-34.999,29.914-50.276,29.914-50.276l0.009,0.01c3.796-3.084,8.247-6.953,12.953-11.555
				c3.732-3.658,7.053-7.153,9.926-10.281l-2.525,1.463l5.731-9.551c0,0-4.459-8.27-2.552-10.182
				c1.912-1.911,7.007-4.455,7.007-4.455s1.968,5.418,4.174,5.418c0.301,0,0.606-0.102,0.912-0.331
				c2.547-1.903,10.186-10.173,10.186-10.173l1.276-8.919c0,0,1.267-4.455,5.731-4.455c2.964,0,2.539,1.699,2.869,1.699
				c0.164,0,0.518-0.425,1.577-1.699c1.263-1.509,2.626-3.915,3.81-6.275c0.225-2.122,0.334-3.915,0.334-3.915l-10.981-4.291
				c0,0-2.527,0.23-5.896,0.23c-5.038,0-11.957-0.517-15.104-3.094c-5.251-4.299-67.786-95.942-76.375-108.822
				c-7.95-11.947-24.892-37.771-24.333-54.045c-2.964-5.453-3.677-13.146,2.511-23.492c-4.834,2.2-21.987,9.962-27.979,12.135
				c-5.069,1.845-16.483,7.364-25.535,7.364c-3.445,0-6.548-0.8-8.829-2.905c-1.688-1.56-3.526-3.22-5.402-4.881
				c-5.457-3.051-10.826-6.911-14.357-12.408c-0.389-0.339-0.608-0.531-0.608-0.531s0.206,0.169,0.585,0.485
				c-0.124-0.183-0.242-0.366-0.361-0.549c-2.991-2.937-6.838-7.309-7.222-10.758c-0.636-5.727,1.267-7.634,1.267-7.634
				s-0.631-16.549,10.186-19.732c10.817-3.184,11.458-0.636,22.275-6.999c2.314-1.363,4.474-2.662,6.463-3.888
				c-0.018-0.114-0.027-0.229-0.055-0.343c-0.425,0.261-0.677,0.412-0.677,0.412s-24.915-24.912-70.382-24.912
				c-4.354,0-8.9,0.229-13.627,0.729c0,0,2.598-0.622,6.847-1.331c-4.995,0.316-10.149,0.947-15.446,1.962
				c0,0-4.771-1.907-2.859-9.065c1.907-7.163,5.251-24.823,5.727-26.254c0.21-0.622,0.06-2.772-0.183-5.027
				c-0.283,0.567-0.448,0.892-0.448,0.892s-0.485-2.319-1.162-5.612c-1.057,1.285-3.312,3.042-7.872,3.279
				c-0.77,0.172-1.561,0.272-2.338,0.272c-2.151,0-4.2-0.765-5.419-2.875c-2.1-3.632-3.362-7.186-5.068-8.517
				c-0.462,0.178-1.061,0.24-1.669,0.24c-1.379,0-2.809-0.317-2.809-0.317s-0.031,0.008-0.06,0.008
				c-0.083,0-0.141-0.069,0.659-0.603c0.151-0.101,0.279-0.265,0.38-0.462c-1.075-0.604-1.707-1.587-2.173-2.521
				c-0.311-0.622-0.444-1.121-0.59-1.486c-0.037,0.019-0.078,0.046-0.128,0.055c-0.134,0.03-0.269,0.042-0.4,0.042
				c-0.924,0-1.74-0.637-1.74-0.637l0.005-0.009c-0.401,0.029-0.857,0.052-1.332,0.052c-1.674,0-3.585-0.287-4.166-1.598
				c-0.956-2.145-2.388-5.964-3.582-6.44c-0.067-0.027-0.152-0.04-0.252-0.04c-1.25,0-4.875,1.987-7.152,1.987
				c-0.736,0-1.333-0.208-1.662-0.758c-1.432-2.383-0.956-5.489-1.674-6.92c-0.691-1.391-4.995-7.958-7.643-10.955l-1.35,0.535
				c0,0-8.48-7.14-13.104-13.2c-1.377-1.07-2.484-1.917-2.484-1.917s-0.238-5.251-1.194-8.594c-0.956-3.339-5.727-2.383-6.44-2.859
				c-0.718-0.48-12.889-17.902-3.105-34.369c8.823-14.843,29.275-51.02,74.128-51.019c4.904,0,10.103,0.433,15.607,1.373
				c0,0,21.241,7.876,28.875,22.197c0.924,1.734,1.775,3.28,2.543,4.675c3.998,0.453,7.007,0.979,7.007,0.979l7.639,19.727
				l-3.837-0.855c1.079,4.661,2.506,10.571,4.789,13.425c3.819,4.775,8.352,11.691,8.352,11.691l-2.383,5.489
				c0,0,4.938-3.588,7.41-3.588c0.077,0,0.152,0.003,0.224,0.011c2.388,0.238,3.582,1.67,4.78,2.15
				c0.022,0.009,0.05,0.013,0.084,0.013c1.25,0,10.557-5.704,26.591-5.703c7.209,0,15.779,1.153,25.586,4.496
				c10.151,3.457,13.905,4.641,14.287,4.641c0.828,0-14.287-5.597-14.287-5.597s53.921-29.116,122.734-29.111
				c18.741,0.001,38.601,2.162,58.759,7.66L785.1,95.211c0,0-5.25-7.638-4.775-18.14l16.238,11.458l19.348-11.796L818.838,74.528
				 M563.841,284.43l199.304-148.648c0,0-3.832-5.237-4.345-10.044L552.434,280.405C556.229,281.622,560.035,282.957,563.841,284.43
				 M295.054,481.845c-0.087-0.549-0.165-1.079-0.243-1.596C294.853,480.807,294.926,481.342,295.054,481.845 M495.927,786.629
				l64.3-19.412c-0.987-0.512-2.213-1.061-3.604-1.518c-3.824-1.281-4.455-8.279-4.455-8.279s0,0-6.367,1.271
				c-6.357,1.281-52.819,5.727-49.641,26.73C496.224,785.814,496.133,786.209,495.927,786.629 M652.89,349.131
				c0,0-0.422,0.351-0.441,0.367C652.779,349.223,652.89,349.131,652.89,349.131 M652.448,349.498L652.448,349.498L652.448,349.498
				 M652.448,349.498C652.447,349.498,652.447,349.499,652.448,349.498C652.447,349.499,652.447,349.498,652.448,349.498
				 M817.635,72.93l-2.849,2.145l-18.144,11.062l-15.165-10.701l-2.986-2.107l-0.165,3.651c-0.373,8.251,2.544,14.794,4.139,17.716
				L543.263,275.629c-18.525-4.958-38.146-7.472-58.334-7.473c-19.781,0-51.055,2.542-87.804,14.656
				c-21.993,7.25-35.745,14.622-35.881,14.696l-0.343,0.185c-8.294-2.632-16.457-3.965-24.293-3.965
				c-12.933,0-21.67,3.615-25.4,5.159c-0.346,0.143-0.718,0.297-1.007,0.41c-0.119-0.075-0.246-0.159-0.376-0.245
				c-1.001-0.66-2.372-1.564-4.474-1.774c-0.136-0.014-0.277-0.021-0.422-0.021c-0.936,0-2.044,0.328-3.151,0.798l0.388-0.893
				l-0.591-0.902c-0.188-0.286-4.629-7.05-8.463-11.844c-1.575-1.969-2.79-6.039-3.663-9.527l0.715,0.159l3.651,0.814l-1.351-3.488
				l-7.639-19.727l-0.408-1.053l-1.112-0.195c-0.114-0.02-2.613-0.455-6.096-0.875c-0.608-1.106-1.305-2.382-2.034-3.749
				c-7.9-14.821-29.048-22.8-29.945-23.132l-0.175-0.065l-0.184-0.032c-5.445-0.93-10.809-1.401-15.945-1.401
				c-45.015-0.001-66.206,35.737-75.254,50.998l-0.593,0.999c-5.462,9.193-4.42,18.542-2.584,24.767
				c1.927,6.533,5.331,11.639,6.297,12.286c0.651,0.434,1.379,0.471,2.302,0.519c1.959,0.101,3.069,0.327,3.327,1.228
				c0.881,3.082,1.116,8.084,1.119,8.134l0.042,0.932l0.741,0.566c0.002,0.002,0.996,0.762,2.269,1.75
				c4.73,6.114,12.896,13.014,13.246,13.308l0.914,0.77l1.111-0.44l0.006-0.003c2.544,3.178,5.944,8.418,6.458,9.453
				c0.135,0.27,0.229,1.131,0.297,1.759c0.17,1.566,0.381,3.516,1.454,5.301c0.384,0.644,1.337,1.729,3.376,1.729
				c1.67,0,3.574-0.712,5.253-1.341c0.466-0.174,1.047-0.392,1.471-0.526c0.595,0.882,1.457,2.9,1.905,3.95
				c0.188,0.44,0.366,0.856,0.53,1.224c0.818,1.846,2.834,2.784,5.993,2.784c0.257,0,0.521-0.006,0.796-0.018
				c0.37,0.199,0.86,0.411,1.426,0.525c0.053,0.118,0.11,0.242,0.175,0.37c0.256,0.512,0.603,1.136,1.092,1.746
				c-0.219,0.409-0.31,0.906-0.127,1.505l0.431,1.419l1.419,0.018c0.527,0.102,1.756,0.311,2.976,0.311
				c0.36,0,0.695-0.018,1.007-0.053c0.634,0.84,1.328,2.219,2.053,3.658c0.566,1.124,1.207,2.396,1.945,3.673
				c1.444,2.498,3.983,3.874,7.151,3.874c0.839,0,1.716-0.096,2.608-0.285c2.74-0.165,4.785-0.829,6.302-1.667
				c0.311,1.502,0.503,2.421,0.503,2.421l0.665,3.179c-0.218,0.721-0.646,2.775-1.657,7.7c-1.238,6.029-2.933,14.287-4.078,18.586
				c-1.874,7.017,1.829,10.55,4.049,11.437l0.544,0.217l0.575-0.11c2.747-0.527,5.526-0.96,8.314-1.297l0.119,0.69
				c4.499-0.477,9.013-0.718,13.417-0.718c37.643,0,61.073,17.524,67.298,22.826c-1.174,0.708-2.398,1.437-3.662,2.181
				c-6.578,3.869-9.08,4.259-12.866,4.849c-2.193,0.342-4.922,0.767-8.959,1.955c-10.929,3.216-11.623,17.581-11.63,21.013
				c-0.742,1.195-1.77,3.775-1.246,8.492c0.353,3.167,2.927,7.141,7.652,11.811c0.041,0.062,0.08,0.121,0.118,0.179l-0.1,0.118
				l0.398,0.348c3.151,4.8,7.839,8.852,14.717,12.723c1.853,1.643,3.605,3.228,5.21,4.711c2.47,2.28,5.897,3.437,10.187,3.437
				c7.685,0,16.709-3.664,22.681-6.088c1.389-0.564,2.588-1.052,3.539-1.396c4.638-1.683,15.703-6.592,22.903-9.833
				c-3.092,7.264-3.14,13.899-0.131,19.783c-0.213,17.271,17.2,43.438,24.68,54.68c7.293,10.938,71.159,104.666,76.773,109.263
				c2.874,2.353,8.381,3.546,16.371,3.546c2.597,0,4.692-0.132,5.597-0.199l9.177,3.586c-0.046,0.569-0.106,1.267-0.183,2.017
				c-1.266,2.491-2.424,4.396-3.363,5.529c-0.763-0.453-1.745-0.682-2.941-0.682c-4.726,0-7.074,3.864-7.655,5.908l-0.037,0.13
				l-0.019,0.134l-1.188,8.301c-2.27,2.44-7.216,7.642-9.248,9.282c-0.633-0.563-1.666-2.359-2.253-3.978l-0.766-2.108l-2.007,1.002
				c-0.551,0.275-5.446,2.749-7.528,4.83c-2.261,2.267-0.471,7.326,1.673,11.53l-5.153,8.587l-1.925,3.208
				c-1.736,1.804-3.447,3.531-5.161,5.211c-4.026,3.937-8.26,7.72-12.587,11.246c-1.324,0.639-9.081,4.566-16.568,12.355
				c-7.267,7.56-15.55,20.269-14.432,38.272L126.28,910.958c-0.781,0.21-8.703,2.29-15.638,2.29c-3.794,0-15.905-2.577-33.239-7.072
				c-7.394-3.09-13.561-4.656-18.332-4.656c-8.129-0.001-10.774,4.677-11.037,7.15l-0.083,0.781l0.472,0.629
				c7.542,10.063,23.764,13.02,34.499,14.977c0.828,0.15,1.621,0.295,2.373,0.437c3.849,0.723,9.294,1.089,16.186,1.089
				c7.221,0,13.532-0.415,13.595-0.42l0.168-0.011l0.165-0.039c10.492-2.516,348.197-107.997,594.779-185.017
				c123.35-38.527,220.778-68.96,223.063-69.566c1.153-0.286,2.577-0.936,4.337-1.979l0.37-0.113l0.479-0.146l0.354-0.354
				l0.364-0.364c5.3-3.466,11.226-8.715,11.479-8.939l7.105-6.311l-4.907,1.579l9.792-9.768l-14.851,9.237l-3.587,2.231
				l-88.035,25.226c-1.096,0.312-107.28,30.446-155.409,44.235c0.271-0.819,0.443-1.631,0.443-2.373c0-3.152-2.675-6.593-2.98-6.975
				l-0.893-1.118l-1.347,0.484l-11.047,3.974c0.354-2.228,0.533-6.309-1.749-10.239c-2.449-4.219-6.984-7.062-13.479-8.453
				c-7.261-1.554-12.556-1.753-16.357-1.753c-0.004,0-0.007,0-0.011,0c-1.107,0-2.125,0.019-3.062,0.036
				c-0.776,0.015-1.496,0.028-2.165,0.028c-3.134,0-4.322-0.329-5.296-1.47c-1.293-1.5-1.449-2.342-1.401-2.54l1.256-0.504
				l-0.016-1.384v-10.821v-5.191l-3.483,3.85c-3.268,3.612-13.03,13.412-18.881,15.36c-2.022,0.672-3.487,1.264-4.549,1.812
				l-7.582-16.537l-0.055,0.025c-5.198-15.293-13.421-30.772-21.476-39.938c-6.816-7.767-9.303-11.882-10.192-13.96
				c1.094-1.17,1.544-2.121,1.486-3.095c-0.044-0.74-0.395-1.394-0.988-1.84c-2.181-1.634-30.07-28.208-39.438-51.955
				c-8.058-20.405-25.486-32.288-31.764-36.039c4.109-4.139,16.213-14.948,39.646-25.69c29.828-13.672,71.275-54.575,74.848-58.131
				c64.212-37.029,38.903-93.454,34.327-102.441c-0.001-0.409-0.105-0.808-0.314-1.163c-0.276-0.47-0.697-0.809-1.207-0.986
				c-0.034-0.318-0.052-0.488-0.052-0.489l-0.067-0.632l-0.42-0.478c-22.381-25.472-47.957-44.922-76.063-57.854l58.104-44.553
				l133.003-100.146c1.915,2.222,5.929,5.702,12.279,5.702c0.779,0,1.58-0.055,2.381-0.162l2.707-0.362l-1.162-2.472
				c-0.754-1.604-4.18-8.803-6.427-12.068l21.752-16.674l-2.189-3.335l-25.314,14.091c-1.159-1.019-3.021-2.577-5.623-4.707
				l25.658-19.225c3.795,2.285,13.48,7.857,17.705,7.857h3.011l-1.167-2.775c-0.53-1.261-5.241-12.396-7.255-15.065l-0.841-1.125
				l17.192-16.6L817.635,72.93L817.635,72.93z M556.698,279.708l200.832-150.52c0.791,2.441,2.018,4.677,2.905,6.119
				L563.528,282.168C561.297,281.319,559.014,280.497,556.698,279.708L556.698,279.708z M596.444,752.216
				c5.263-1.51,49.193-14.19,56.078-18.567c2.868-1.825,8.901-4.027,14.861-5.947c-22.179,10.165-56.693,25.166-64.939,25.166
				c-3.668,0-5.31-0.387-6.001-0.649C596.443,752.217,596.444,752.217,596.444,752.216L596.444,752.216z M498.017,783.909
				c-0.718-15.8,33.348-20.97,44.726-22.696c1.578-0.239,2.719-0.413,3.454-0.561l4.331-0.865c0.481,2.191,1.573,5.416,3.979,7.067
				L498.017,783.909L498.017,783.909z"/>
		</g>
		<g>
			<path fill="#010101" d="M605.365,683.404l1.749-0.967c0,0,0.055,0.085,0.124,0.243l-1.81,0.851L605.365,683.404z"/>
			<path fill="#010101" d="M606.26,682.957c0,0,0.027,0.045,0.063,0.127L606.26,682.957 M607.968,681.917l-3.497,1.935l0.063,0.127
				l3.619-1.701C608.051,682.043,607.968,681.917,607.968,681.917L607.968,681.917z"/>
		</g>
	</g>
	<path fill="#FFFFFF" d="M69.596,906.191c0,0,33.412,9.057,41.046,9.057c7.638,0,16.233-2.379,16.233-2.379l292.914-103.261
		l148.131-44.714l25.77-5.252c0,0,81.637-23.857,84.015-24.827c2.388-0.951,178.996-51.063,178.996-51.063l88.304-25.303
		l3.824-2.379l-11.453,11.453l-659.666,203.34L118.28,921.459c0,0-18.131,7.639-50.116-4.783
		C68.164,916.676,58.618,908.094,69.596,906.191"/>
	<path fill="#FFFFFF" d="M437.893,768.086c0,0,11.338-7.162,24.772-20.299c10.886-10.639,18.387-20.125,20.775-22.504
		c2.383-2.396,18.131-16.713,20.523-20.052c2.383-3.349,4.771-6.687,5.723-9.075c0.955-2.378,1.436-10.025,1.436-10.025
		l-10.981-4.291c0,0-15.748,1.438-20.999-2.863c-5.251-4.299-67.786-95.942-76.375-108.822
		c-8.585-12.898-27.677-42.016-23.862-57.764c3.819-15.749,3.819-25.775,3.819-25.775s-14.321,7.158-23.391,11.934
		c-9.075,4.775-24.347,16.699-34.844,11.453c-10.501-5.25-26.89-11.453-29.433-28.157c-2.543-16.708-2.543-18.616,6.527-21.959
		c9.065-3.343,28.157-10.977,29.593-14.321c1.427-3.339-1.912-9.546-1.912-9.546s-39.144-27.206-91.177-17.184
		c0,0-4.771-1.907-2.859-9.065c1.907-7.163,5.251-24.823,5.727-26.254c0.48-1.432-0.956-11.097-0.956-11.097
		s-1.194,0.595-4.29,2.745c-3.106,2.145-9.55,3.819-12.176-0.718c-2.625-4.533-3.934-8.946-6.44-9.07
		c-2.506-0.119-3.581-1.67-4.299-3.102c-0.718-1.431-0.476-2.269-1.669-2.145c-1.189,0.119-5.722,0.714-6.683-1.436
		c-0.956-2.145-2.388-5.964-3.582-6.44c-1.189-0.48-7.638,3.577-9.065,1.189c-1.432-2.383-0.956-5.489-1.674-6.92
		c-0.718-1.432-5.247-8.356-7.872-11.215c-2.625-2.868-8.119-7.396-8.832-8.114c-0.718-0.718-7.876-6.207-7.876-6.207
		s-0.238-5.251-1.194-8.594c-0.956-3.339-5.727-2.383-6.44-2.859c-0.718-0.48-12.889-17.902-3.105-34.369
		c9.788-16.466,33.888-59.187,89.736-49.646c0,0,21.241,7.876,28.875,22.197c7.639,14.321,10.026,16.466,11.458,18.141
		c1.432,1.669,2.863,15.034,6.682,19.81c3.819,4.775,8.352,11.691,8.352,11.691l-2.383,5.489c0,0,5.251-3.815,7.634-3.577
		c2.388,0.238,3.582,1.67,4.78,2.15c1.189,0.476,20.043-12.176,52.262-1.194c32.219,10.973,0-0.956,0-0.956
		s167.543-90.454,288.78,47.491c0,0,3.823,34.844,2.871,46.302c-0.96,11.458-17.188,33.888-40.579,55.372
		c-23.382,21.475-97.846,64.913-105.483,74.939c-7.644,10.017-8.6,14.316-8.6,14.316s12.889,16.704,18.615,22.915
		c5.727,6.203,44.387,58.711,50.121,65.389c5.736,6.679,7.795-0.951,7.795-0.951s-7.795-0.951,9.395,18.616
		c17.18,19.567,39.135,74.939,17.655,88.78c-21.479,13.84-94.03,21.004-108.832,42.958c-14.792,21.955-34.364,27.206-39.615,22.431
		S437.893,768.086,437.893,768.086z"/>
	<path fill="#FFFFFF" d="M542.15,278.978L785.1,95.211c0,0-5.25-7.638-4.775-18.14l16.238,11.458l19.566-11.934L543.103,282.797
		L542.15,278.978z"/>
	<path fill="#FFFFFF" d="M562.186,285.665l200.959-149.883c0,0-5.25-7.158-4.299-12.409c0.969-5.25,0.969-2.863,0.969-2.863
		s9.697,7.794,11.445,9.546l26.574-14.792L565.057,293.779L562.186,285.665z"/>
	<path fill="#010101" d="M78.666,908.881c0,0-9.55,5.105-5.727,7.648c0,0,24.187,6.357,34.364,5.727
		c0,0,392.677-129.205,400.32-129.827c7.633-0.64,252.658-72.561,259.656-75.104c7.008-2.544,182.024-59.187,182.024-59.187
		s-11.453,10.182-16.548,11.453c-5.096,1.271-801.902,250.761-817.814,254.575c0,0-19.092,1.272-29.278-0.64
		c-10.182-1.912-28.001-4.455-35.64-14.646C50.023,908.881,51.3,896.787,78.666,908.881z"/>
	<path fill="#010101" d="M419.789,809.608c0.174,1.903,77.789-14.829,76.371-24.187c-3.179-21.004,43.283-25.449,49.641-26.73
		c6.367-1.271,6.367-1.271,6.367-1.271s0.631,6.998,4.455,8.279c3.824,1.271,6.367,3.184,6.367,3.184l-3.824,7.629
		c0,0,96.107-30.554,106.92-33.098c10.822-2.543,23.547-5.727,26.73-8.9c3.184-3.184,6.367-8.279,6.367-10.822
		s-2.543-5.727-2.543-5.727l-15.918,5.727c0,0-65.553,31.176-78.278,31.176c-12.725,0-6.998-4.445-6.998-4.445
		s48.996-14.006,56.003-18.461c6.998-4.455,31.186-10.812,31.186-10.812s4.455-14.014-13.365-17.828
		c-17.82-3.815-24.188,0.64-27.992-3.815c-3.833-4.446-0.641-5.727-0.641-5.727v-10.821c0,0-12.094,13.373-19.732,15.916
		c-7.638,2.544-5.734,3.486-5.734,3.486l-8.91-19.402c0,0,12.733,26.738-12.094,41.375
		c-24.809,14.637-102.136,38.814-105.956,41.988c-3.819,3.184-16.873,24.197-21.328,20.382
		c-4.455-3.823-12.089-10.831-12.729-17.819c-0.631-7.008-4.451-9.551-4.451-9.551S416.606,774.609,419.789,809.608z"/>
	<path fill="#010101" d="M470.066,738.969l5.731-9.551c0,0-4.459-8.27-2.552-10.182c1.912-1.911,7.007-4.455,7.007-4.455
		s2.543,6.998,5.086,5.087c2.547-1.903,10.186-10.173,10.186-10.173l1.276-8.919c0,0,1.267-4.455,5.731-4.455
		c4.446,0,1.268,3.824,4.446,0c3.188-3.823,6.998-13.364,6.998-13.364l-4.455,19.091c0,0,27.38,18.46,28.011,26.73
		c0.631,8.278-3.192,10.19-6.367,9.55c-3.184-0.641-9.541-5.727-14.637-10.19c-5.09-4.446-16.548-13.996-16.548-13.996
		l-10.182,10.821l12.733,20.373c0,0,6.998,6.988,0.632,10.172c-6.363,3.184-10.817-6.367-12.094-8.91
		c-1.271-2.543-13.37-12.084-13.37-12.084L470.066,738.969z"/>
	<path fill="#010101" d="M541.986,643.502c0,0,13.996-5.727,18.451-12.094s-4.455-12.094-12.094-17.82s-34.368-45.83-40.095-54.731
		c-5.727-8.909-22.275-24.196-22.275-24.196s-10.817-6.988-22.916-5.086c-12.084,1.921-45.822,6.367-59.182,2.543
		c0,0,39.455,1.922,50.277-4.445c10.817-6.367,27.366-0.641,27.366-0.641s-1.267-8.91-5.731-9.551
		c-4.451-0.631-34.364-8.27-36.271-10.816c0,0,33.092,3.184,39.459,6.366c6.362,3.179,23.546,2.548,23.546,2.548l-21.003-10.186
		c0,0,17.189,9.545,43.91-1.908c26.729-11.458,32.466-18.456,32.466-18.456s-23.556,5.091-45.19,1.903
		c0,0,36.911-2.543,64.282-17.18c27.37-14.637,37.543-29.278,37.543-29.278s-51.539,29.918-109.464,34.369
		c0,0,77.647-16.549,119.654-47.098c0,0-26.09,7.002-29.282,7.643c0,0,41.375-19.096,46.462-26.095
		c5.086-7.002-17.82-4.459-17.82-4.459s14.637-3.814,12.733-4.455c-1.92-0.631-22.915-5.722-19.731-6.998
		c3.175-1.271,13.365-5.091,13.365-5.091l-11.462-6.362c0,0-11.444-5.091-8.262-5.091c3.175,0,20.363,1.908,20.363,1.908
		l-7.646-8.915l0.64-5.09c0,0,16.549-9.546,22.284-12.725c5.718-3.183,5.718-3.183,5.718-3.183s35.64,61.734-33.097,101.193
		c0,0-43.9,43.91-74.455,57.915c-30.554,14.006-42.007,28.002-42.007,28.002s23.546,12.094,33.097,36.28
		c9.541,24.187,37.543,50.907,40.096,52.819C578.258,626.944,555.982,640.959,541.986,643.502z"/>
	<path fill="#010101" d="M388.6,482.486c0,0,17.825-22.916,23.551-24.192c5.727-1.267,7.638-10.177,10.182-5.722
		c2.543,4.455,5.095,7.634,7.638,4.455c2.543-3.184,11.453-17.185,24.183-21.639c12.729-4.455,29.273-15.908,37.547-22.275
		c8.279-6.367,13.365-9.55,13.365-14.005c0-4.45,0-7.634,0-7.634l17.188-21.639c0,0-9.541,14.637-4.455,14.637
		c5.087,0,1.271,1.276,13.356,1.912c12.103,0.636,21.003-0.636,30.554-1.276c9.551-0.636,43.928-12.094,62.37-22.911
		c18.46-10.817,28.368-12.697,28.368-12.697s-36.638,31.789-65.92,35.608c-29.273,3.819-47.084,16.548-67.457,10.181l10.182,5.731
		c0,0-12.093,3.814-17.184,5.091c-5.091,1.271-7.639,5.727-7.639,5.727l17.824,5.731c0,0-21.003,1.907-25.462,2.543
		c-4.455,0.641-13.997,5.091-11.453,5.727c2.547,0.641,17.816,4.46,17.816,4.46s-14.637,3.183-22.902,3.819
		c-8.274,0.636-24.191,8.906-24.191,8.906l3.824,7.638c0,0-6.367,8.274-10.822,13.365c-4.451,5.091-15.913,8.91-21.635,14.641
		c-5.731,5.722-15.913,8.27-15.913,8.27l-12.729,3.184l-7.638,2.548c0,0,1.271,4.45,8.274,8.91c0,0-10.817,3.819-15.272-5.091
		c-4.46-8.915-0.636-1.912-0.636-1.912s-7.002,26.089,7.634,32.457C391.147,527.031,359.327,514.938,388.6,482.486z"/>
	<path fill="#010101" d="M384.785,426.469c1.907,0.645,9.55,28.011,16.548,32.466c0,0-8.924,26.734-17.82,35.64
		c-8.905,8.906-1.271-2.548-1.271-2.548s-22.279,10.182-29.277,12.725c-6.999,2.547-26.09,12.098-34.364,4.459
		c-8.274-7.639-20.368-17.82-20.368-17.82s12.729,11.458,22.28,13.361c9.541,1.912,10.182,2.547,14.637,0.641
		c4.455-1.912,21.003-8.275,21.003-8.275l-0.636-6.367c0,0-10.187-0.631-16.549,0c-6.367,0.64-12.729,2.547-12.729,2.547
		l0.636,4.455l-7.639-3.819l-3.814-4.455c0,0,29.269-4.45,38.819-4.45s20.368-3.824,20.368-3.824l4.455-10.817
		c0,0-15.272-24.183-12.729-42.002c0,0,10.817-3.188,13.36-5.731c2.547-2.543,7.643-7.639,9.55-8.274
		c1.912-0.636,7.634,0,9.546-2.543c1.907-2.543,5.727-5.727,5.727-5.727s4.455,5.086,11.453,0
		c7.007-5.091,38.823-15.913,57.284-9.546c0,0-36.271-3.819-49.005,10.182c-12.729,14-12.098,10.817-12.729,14
		c-0.636,3.179,18.456,8.91,16.544,8.27c-1.907-0.631-10.817-6.998-20.368-5.722c-9.541,1.271-11.453,1.903-13.365,1.903
		C392.423,425.197,384.785,426.469,384.785,426.469z"/>
	<path fill="#010101" d="M292.501,472.936c0,0-0.631-16.549,10.186-19.732c10.817-3.184,11.458-0.636,22.275-6.999
		c10.822-6.367,18.46-11.458,19.728-13.37c1.276-1.907,5.731,0,5.731,0s-5.091,14.642-3.179,22.28c0,0-4.455-8.91-5.095-14
		c-0.636-5.096-0.636-5.096-0.636-5.096s-11.458,14.641-21.644,18.46c-10.177,3.814-20.358,10.177-21.635,12.089
		c-1.271,1.912-4.455,10.186-3.179,15.277l6.998,12.725c0,0-10.182-8.27-10.817-14C290.599,474.843,292.501,472.936,292.501,472.936
		z"/>
	<path fill="#010101" d="M201.494,319.553c0,0,45.827-55.368,83.374-47.729l5.731,1.271l-7.639-19.727
		c0,0-14.641-2.548-22.279-1.276c-7.634,1.276-3.819-1.271-3.819-1.271s-57.275,40.731-66.185,49.641
		C190.677,300.461,201.494,313.827,201.494,319.553z"/>
	<path fill="#010101" d="M165.854,319.553c0,0,12.729-17.18,18.46-14.001c5.727,3.184,14.636,15.277,14.636,15.277
		s0,22.911-5.731,20.363c-5.722-2.548-8.905-6.362-8.905-6.362l-3.188,1.271C181.126,336.102,169.037,325.92,165.854,319.553z"/>
	<path fill="#010101" d="M204.037,312.555c0,0,1.276,19.091,17.188,19.727c15.908,0.636,26.73-5.086,28.638-14
		c1.907-8.91,19.732-35.004,28.006-38.824c0,0-19.091,17.82-21.008,41.371c-1.903,23.547-3.179,28.638-5.091,34.364
		c-1.907,5.731-11.449,24.187-11.449,24.187s-3.824-18.456-5.095-25.458c-1.271-7.003-4.455-13.365-4.455-13.365
		s15.272-0.636,17.185-11.458c0,0-10.187,12.734-27.371,8.274l-14.637-6.998C205.949,330.375,206.589,319.553,204.037,312.555z"/>
	<path fill="#010101" d="M291.23,318.922c0,0-5.727,25.454,0,46.458c5.731,20.999,19.096,36.912,19.096,36.912
		s27.366,31.185,29.273,32.457c1.912,1.271-8.905,7.639-8.905,7.639s-29.918-29.914-84.01-24.183c0,0,45.182-10.822,66.821,6.362
		l-29.914-17.82c0,0,26.735,10.817,31.83,14C315.421,420.747,275.953,385.107,291.23,318.922z"/>
	<path fill="#010101" d="M467.523,341.833l52.188-38.188L496.8,327.828c0,0,20.368-3.179,26.725-3.179
		c6.367,0-33.096,15.908-33.096,15.908l45.831-8.91c0,0-41.367,16.549-44.555,18.456c-3.179,1.912-6.367,7.638-6.367,7.638
		l7.643,16.549l12.729-3.819l-8.911,19.732C496.8,390.202,494.257,369.834,467.523,341.833z"/>
	<path fill="#010101" d="M573.82,288.089l194.1-148.008c0,0,4.455,7.638,13.996,6.362c0,0-5.086-10.817-6.998-12.725
		c-1.912-1.907-1.912-1.907-1.912-1.907l24.828-16.548l-230.151,170.96L573.82,288.089z"/>
	<path fill="#010101" d="M512.072,310.648l279.395-209.386c0,0,13.365,8.27,17.82,8.27c0,0-5.086-12.089-7.008-14.637
		c-1.902-2.543-1.902-2.543-1.902-2.543l18.461-17.825L464.339,341.192l8.915,3.819L512.072,310.648z"/>
	<path fill="#010101" d="M194.418,351.653c0,0,3.696-4.771,7.872-3.819c0,0-1.907,0-2.387,0.837
		C199.902,348.671,200.026,351.891,194.418,351.653z"/>
	<path fill="#010101" d="M209.933,360.248c0,0,2.982-2.745,3.339-3.582c0,0-0.124,3.938-1.199,4.176
		C210.999,361.08,209.933,360.248,209.933,360.248z"/>
	<path fill="#010101" d="M215.421,361.08c0,0,0.233,3.458-0.837,4.176c-1.075,0.718-0.599,0.595-0.599,0.595s3.225,0.718,4.652,0
		C220.069,365.137,216.135,362.75,215.421,361.08z"/>
	<path fill="#010101" d="M229.619,377.07c0,0,9.308-4.295,8.109-12.533l2.269,7.881C239.997,372.418,238.333,377.308,229.619,377.07
		z"/>
</g>
</svg>
