<?xml version="1.0" encoding="utf-8"?>
<!-- Generator: Adobe Illustrator 16.0.0, SVG Export Plug-In . SVG Version: 6.00 Build 0)  -->
<!DOCTYPE svg PUBLIC "-//W3C//DTD SVG 1.1//EN" "http://www.w3.org/Graphics/SVG/1.1/DTD/svg11.dtd">
<svg version="1.1" id="Layer_1" xmlns="http://www.w3.org/2000/svg" xmlns:xlink="http://www.w3.org/1999/xlink" x="0px" y="0px"
	 width="1000px" height="1000px" viewBox="0 0 1000 1000" enable-background="new 0 0 1000 1000" xml:space="preserve">
<g>
	<g>
		<defs>
			<rect id="SVGID_1_" x="42.894" y="38.886" width="914.601" height="914.617"/>
		</defs>
		<clipPath id="SVGID_2_">
			<use xlink:href="#SVGID_1_"  overflow="visible"/>
		</clipPath>
		<g clip-path="url(#SVGID_2_)">
			<defs>
				<rect id="SVGID_3_" x="42.894" y="38.886" width="914.601" height="914.617"/>
			</defs>
			<clipPath id="SVGID_4_">
				<use xlink:href="#SVGID_3_"  overflow="visible"/>
			</clipPath>
			<path clip-path="url(#SVGID_4_)" d="M500.213,412.144c-46.422,0-84.047,37.646-84.047,84.068
				c0,46.421,37.625,84.037,84.047,84.037s84.052-37.615,84.052-84.037C584.265,449.79,546.635,412.144,500.213,412.144"/>
			<path clip-path="url(#SVGID_4_)" d="M500.187,38.889c-252.54,0-457.291,204.751-457.291,457.307s204.75,457.307,457.291,457.307
				c252.563,0,457.311-204.751,457.311-457.307S752.75,38.889,500.187,38.889 M752.366,538.259h-67.842
				c-4.771,21.09-13.117,40.788-24.323,58.548l48.024,48.021l-59.413,59.408l-48.015-48.022
				c-17.796,11.184-37.494,19.521-58.578,24.321v67.815h-84.07v-67.847c-21.051-4.769-40.752-13.106-58.52-24.29l-48.017,48.022
				l-59.439-59.465l48.022-48.027c-11.176-17.727-19.489-37.431-24.257-58.51h-67.91v-84.075h67.91
				c4.799-21.051,13.143-40.752,24.319-58.509l-48.025-48.028l59.413-59.434l48.045,48.017
				c17.74-11.173,37.438-19.486,58.522-24.252v-67.911h84.062v67.911c21.059,4.799,40.791,13.112,58.548,24.283l48.022-48.02
				l59.38,59.444l-48.024,47.989c11.206,17.757,19.553,37.458,24.323,58.579h67.842V538.259z"/>
		</g>
	</g>
</g>
</svg>
