<?xml version="1.0" encoding="utf-8"?>
<!-- Generator: Adobe Illustrator 16.0.0, SVG Export Plug-In . SVG Version: 6.00 Build 0)  -->
<!DOCTYPE svg PUBLIC "-//W3C//DTD SVG 1.1//EN" "http://www.w3.org/Graphics/SVG/1.1/DTD/svg11.dtd">
<svg version="1.1" id="Layer_1" xmlns="http://www.w3.org/2000/svg" xmlns:xlink="http://www.w3.org/1999/xlink" x="0px" y="0px"
	 width="1000px" height="1000px" viewBox="0 0 1000 1000" enable-background="new 0 0 1000 1000" xml:space="preserve">
<g>
	<g>
		<defs>
			<rect id="SVGID_1_" x="42.894" y="38.886" width="914.601" height="914.617"/>
		</defs>
		<clipPath id="SVGID_2_">
			<use xlink:href="#SVGID_1_"  overflow="visible"/>
		</clipPath>
		<g clip-path="url(#SVGID_2_)">
			<defs>
				<rect id="SVGID_3_" x="42.894" y="38.886" width="914.601" height="914.617"/>
			</defs>
			<clipPath id="SVGID_4_">
				<use xlink:href="#SVGID_3_"  overflow="visible"/>
			</clipPath>
			<path clip-path="url(#SVGID_4_)" d="M644.797,380.736c-1.147-1.16-3.012-1.17-4.174-0.02L527.166,493.128
				c1.291,1.493,2.566,2.999,3.852,4.5l113.759-112.722C645.939,383.764,645.947,381.892,644.797,380.736"/>
			<path clip-path="url(#SVGID_4_)" d="M621.948,357.678c-1.142-1.165-3.004-1.17-4.174-0.02L505.667,468.74
				c1.316,1.465,2.653,2.907,3.965,4.382l112.302-111.275C623.094,360.705,623.099,358.833,621.948,357.678"/>
			<path clip-path="url(#SVGID_4_)" d="M500.187,38.889c-252.542,0-457.293,204.751-457.293,457.31
				c0,252.551,204.75,457.302,457.293,457.302c252.56,0,457.311-204.751,457.311-457.302
				C957.498,243.64,752.747,38.889,500.187,38.889 M635.657,315.008l51.231,51.703l-12.823,12.708l-51.23-51.708L635.657,315.008z
				 M283.625,715.163c-1.726-1.741,14.165-51.893,14.165-51.893l37.853,38.207C335.643,701.478,285.339,716.895,283.625,715.163
				 M500.627,551.264L370.62,680.076l-51.231-51.711l126.404-125.244c-67.354-62.449-126.771-131.865-169.182-216.978
				c84.981,42.573,154.444,101.986,217.102,169.498l123.331-122.205l51.236,51.712L541.861,510.406
				c4.063,4.841,8.117,9.698,12.146,14.59c-12.733,12.735-25.448,25.453-38.57,38.57
				C510.472,559.486,505.547,555.379,500.627,551.264 M584.71,617.3c-19.158-14.198-38.086-28.217-58.033-42.99
				c13.013-13.013,25.098-25.092,38.056-38.053c14.482,19.558,28.526,38.529,42.973,58.056
				C600.119,601.891,592.642,609.376,584.71,617.3 M619.631,672.449c-16.735-8.438-18.726-27.684-23.071-43.884
				c-2.031-7.583,20.71-22.646,28.618-21.084c29.756,5.9,45.805,24.756,52.786,53.239c3.078,12.546,27.371,43.133,26.789,44.094
				C664.032,719.037,641.463,683.469,619.631,672.449 M721.604,333.306l-28.716,28.447l-51.723-52.199l28.708-28.455
				c2.886-2.853,7.536-2.837,10.402,0.049l41.379,41.764C724.508,325.79,724.487,330.453,721.604,333.306"/>
			<path clip-path="url(#SVGID_4_)" d="M458.915,515.064l-111.682,110.66c-1.165,1.143-1.17,3.015-0.021,4.17
				c0.582,0.581,1.337,0.876,2.098,0.876c0.75,0,1.5-0.284,2.066-0.855L463.29,519.034
				C461.827,517.723,460.377,516.387,458.915,515.064"/>
			<path clip-path="url(#SVGID_4_)" d="M500.868,527.493L500.868,527.493c-5.69-5.926-15.009-15.655-26.518-27.73
				c-0.991-1.042-2.044-2.148-3.073-3.229c-48.053-50.476-128.953-136.513-141.104-156.132c0,0,39.571,74.323,126.284,152.155
				v-0.005c4.33,3.898,8.804,7.788,13.378,11.69c1.501,1.286,2.968,2.571,4.5,3.85l0.005-0.006
				c6.681,5.609,13.622,11.21,20.802,16.774h-0.005c1.562,1.206,3.166,2.412,4.751,3.613c2.361,1.788,4.688,3.588,7.091,5.37
				c0,0-1.752-1.82-4.783-4.971C501.754,528.415,501.367,528.013,500.868,527.493"/>
			<path clip-path="url(#SVGID_4_)" d="M370.077,648.778c-1.166,1.147-1.17,3.017-0.021,4.169c0.576,0.59,1.332,0.876,2.097,0.876
				c0.75,0,1.501-0.281,2.077-0.854l113.602-112.553c-1.5-1.286-3.011-2.559-4.507-3.85L370.077,648.778z"/>
			<path clip-path="url(#SVGID_4_)" d="M693.239,702.827c0,0-30.052-6.702-57.342-29.333
				C635.897,673.494,667.981,705.585,693.239,702.827"/>
		</g>
	</g>
</g>
</svg>
