<?xml version="1.0" encoding="utf-8"?>
<!-- Generator: Adobe Illustrator 16.0.0, SVG Export Plug-In . SVG Version: 6.00 Build 0)  -->
<!DOCTYPE svg PUBLIC "-//W3C//DTD SVG 1.1//EN" "http://www.w3.org/Graphics/SVG/1.1/DTD/svg11.dtd">
<svg version="1.1" id="Layer_1" xmlns="http://www.w3.org/2000/svg" xmlns:xlink="http://www.w3.org/1999/xlink" x="0px" y="0px"
	 width="1000px" height="1000px" viewBox="0 0 1000 1000" enable-background="new 0 0 1000 1000" xml:space="preserve">
<g>
	<g>
		<defs>
			<rect id="SVGID_1_" x="42.894" y="38.886" width="914.601" height="914.617"/>
		</defs>
		<clipPath id="SVGID_2_">
			<use xlink:href="#SVGID_1_"  overflow="visible"/>
		</clipPath>
		<g clip-path="url(#SVGID_2_)">
			<defs>
				<rect id="SVGID_3_" x="42.894" y="38.886" width="914.601" height="914.617"/>
			</defs>
			<clipPath id="SVGID_4_">
				<use xlink:href="#SVGID_3_"  overflow="visible"/>
			</clipPath>
			<path clip-path="url(#SVGID_4_)" d="M500.189,38.889c-252.547,0-457.298,204.751-457.298,457.31
				c0,252.551,204.75,457.302,457.298,457.302c252.561,0,457.306-204.751,457.306-457.302
				C957.495,243.64,752.75,38.889,500.189,38.889 M746.409,475.675c0,67.706-55.4,123.112-123.111,123.112h-84.997L397.602,721.891
				V598.787h-20.513c-67.706,0-123.111-55.406-123.111-123.112v-82.07c0-67.706,55.406-123.106,123.111-123.106h246.209
				c67.711,0,123.111,55.4,123.111,123.106V475.675z"/>
		</g>
	</g>
</g>
</svg>
