<?xml version="1.0" encoding="utf-8"?>
<!-- Generator: Adobe Illustrator 16.0.0, SVG Export Plug-In . SVG Version: 6.00 Build 0)  -->
<!DOCTYPE svg PUBLIC "-//W3C//DTD SVG 1.1//EN" "http://www.w3.org/Graphics/SVG/1.1/DTD/svg11.dtd">
<svg version="1.1" id="Layer_1" xmlns="http://www.w3.org/2000/svg" xmlns:xlink="http://www.w3.org/1999/xlink" x="0px" y="0px"
	 width="1000px" height="1000px" viewBox="0 0 1000 1000" enable-background="new 0 0 1000 1000" xml:space="preserve">
<g>
	<g>
		<defs>
			<rect id="SVGID_1_" x="42.894" y="38.886" width="914.601" height="914.617"/>
		</defs>
		<clipPath id="SVGID_2_">
			<use xlink:href="#SVGID_1_"  overflow="visible"/>
		</clipPath>
		<g clip-path="url(#SVGID_2_)">
			<defs>
				<rect id="SVGID_3_" x="42.894" y="38.886" width="914.601" height="914.617"/>
			</defs>
			<clipPath id="SVGID_4_">
				<use xlink:href="#SVGID_3_"  overflow="visible"/>
			</clipPath>
			<path clip-path="url(#SVGID_4_)" d="M501.637,519.257c-1.862-1.61-3.698-3.242-5.46-4.955
				c-20.754,17.722-47.633,28.468-77.05,28.468c-9.068,0-17.87-1.106-26.329-3.025c-0.635,2.374-1.237,4.756-1.721,7.174
				c9.038,2.062,18.4,3.252,28.05,3.252C450.674,550.17,479.477,538.459,501.637,519.257"/>
			<path clip-path="url(#SVGID_4_)" d="M491.003,457.396c3.194-0.267,6.395-0.405,9.535-0.405c8.241,0,16.259,1.019,24.031,2.776
				c0.814-2.371,1.501-4.773,2.156-7.211c-11.616-2.632-23.826-3.588-36.336-2.528c-4.75,0.402-9.394,1.153-13.96,2.098
				c0.633,2.397,1.289,4.773,2.077,7.102C482.611,458.407,486.771,457.756,491.003,457.396"/>
			<path clip-path="url(#SVGID_4_)" d="M491.065,508.913c-11.941-13.065-21.225-28.574-26.859-45.776
				c-18.881,6.456-35.768,17.806-48.975,33.445c-9.127,10.82-15.918,23.051-20.344,36.058c7.813,1.741,15.906,2.732,24.236,2.732
				C446.539,535.373,471.623,525.383,491.065,508.913"/>
			<path clip-path="url(#SVGID_4_)" d="M501.637,349.209c1.667-1.841,3.362-3.662,5.14-5.386c-1.667-1.836-3.357-3.652-5.14-5.378
				c-1.783,1.726-3.483,3.542-5.15,5.378C498.274,345.547,499.969,347.368,501.637,349.209"/>
			<path clip-path="url(#SVGID_4_)" d="M538.76,463.977c-5.665,16.856-14.812,32.088-26.544,44.936
				c19.438,16.47,44.521,26.463,71.931,26.463c7.471,0,14.787-0.769,21.84-2.183C595.151,501.146,570.134,475.642,538.76,463.977"/>
			<path clip-path="url(#SVGID_4_)" d="M542.703,449.769c-0.491,2.392-1.19,4.699-1.825,7.045
				c33.875,12.298,60.914,39.607,72.384,74.575c2.344-0.646,4.694-1.337,6.986-2.123
				C607.986,492.257,578.986,462.891,542.703,449.769"/>
			<path clip-path="url(#SVGID_4_)" d="M535.636,447.464c2.387,0.707,4.729,1.458,7.07,2.303c1.741-8.354,2.679-17.005,2.679-25.868
				c0-32.759-12.639-62.543-33.166-85.013c-1.886,1.585-3.668,3.237-5.439,4.935c19.321,21.138,31.212,49.188,31.212,80.078
				C537.991,431.971,537.162,439.843,535.636,447.464"/>
			<path clip-path="url(#SVGID_4_)" d="M501.637,498.59c1.667,1.847,3.362,3.667,5.14,5.391
				c11.086-12.121,19.698-26.496,25.027-42.43c-2.366-0.702-4.804-1.242-7.231-1.782
				C519.617,474.292,511.727,487.445,501.637,498.59"/>
			<path clip-path="url(#SVGID_4_)" d="M507.086,514.302c-1.762,1.716-3.598,3.347-5.449,4.955
				c22.149,19.202,50.965,30.908,82.51,30.908c8.812,0,17.409-0.922,25.707-2.643c-0.464-2.434-1.045-4.815-1.686-7.187
				c-7.752,1.596-15.78,2.436-24.021,2.436C554.719,542.771,527.85,532.019,507.086,514.302"/>
			<path clip-path="url(#SVGID_4_)" d="M476.427,452.123c-0.614-2.376-1.227-4.75-1.698-7.186c-2.43,0.504-4.848,1.06-7.225,1.706
				c0.474,2.438,1.109,4.825,1.731,7.207C471.602,453.208,473.999,452.622,476.427,452.123"/>
			<path clip-path="url(#SVGID_4_)" d="M501.637,509.354c1.762,1.705,3.588,3.352,5.449,4.944c1.782-1.726,3.45-3.555,5.135-5.386
				c-1.888-1.58-3.672-3.236-5.444-4.93C505.109,505.814,503.419,507.628,501.637,509.354"/>
			<path clip-path="url(#SVGID_4_)" d="M531.804,461.549c2.356,0.709,4.653,1.567,6.956,2.428c0.791-2.354,1.462-4.75,2.118-7.163
				c-2.312-0.84-4.636-1.611-7.022-2.307C533.235,456.881,532.57,459.242,531.804,461.549"/>
			<path clip-path="url(#SVGID_4_)" d="M496.484,503.981c-1.751,1.7-3.555,3.352-5.419,4.93c1.68,1.831,3.342,3.667,5.109,5.391
				c1.887-1.593,3.693-3.239,5.459-4.95C499.857,507.625,498.151,505.817,496.484,503.981"/>
			<path clip-path="url(#SVGID_4_)" d="M469.236,453.849c-2.387,0.65-4.72,1.406-7.048,2.197c0.612,2.387,1.252,4.769,2.018,7.091
				c2.323-0.792,4.653-1.557,7.038-2.203C470.473,458.617,469.861,456.235,469.236,453.849"/>
			<path clip-path="url(#SVGID_4_)" d="M460.375,448.829c2.356-0.781,4.709-1.547,7.127-2.187
				c-1.432-7.368-2.218-14.963-2.218-22.741c0-30.897,11.88-58.947,31.2-80.078c-1.751-1.7-3.555-3.357-5.417-4.935
				c-20.538,22.462-33.184,52.253-33.184,85.012C457.883,432.439,458.764,440.767,460.375,448.829"/>
			<path clip-path="url(#SVGID_4_)" d="M462.188,456.046c-0.635-2.402-1.321-4.769-1.815-7.217
				c-21.775,7.252-41.27,20.224-56.448,38.214c-10.464,12.397-18.236,26.428-23.235,41.359c2.312,0.85,4.62,1.685,7.007,2.382
				C399.356,495.986,426.807,468.051,462.188,456.046"/>
			<path clip-path="url(#SVGID_4_)" d="M474.727,444.937c4.935-1.017,9.939-1.847,15.038-2.277
				c13.314-1.116,26.327-0.062,38.69,2.812c1.373-6.986,2.139-14.188,2.139-21.573c0-28.741-11.04-54.896-28.956-74.689
				c-17.937,19.793-28.961,45.948-28.961,74.689C472.675,431.095,473.415,438.119,474.727,444.937"/>
			<path clip-path="url(#SVGID_4_)" d="M533.853,454.507c0.636-2.338,1.302-4.653,1.783-7.043c-2.385-0.704-4.751-1.434-7.179-1.995
				c-0.464,2.407-1.119,4.743-1.731,7.086C529.153,453.106,531.51,453.805,533.853,454.507"/>
			<path clip-path="url(#SVGID_4_)" d="M605.989,533.191c0.796,2.354,1.547,4.725,2.182,7.143c2.428-0.497,4.784-1.191,7.147-1.842
				c-0.612-2.395-1.312-4.766-2.054-7.106C610.845,532.036,608.45,532.702,605.989,533.191"/>
			<path clip-path="url(#SVGID_4_)" d="M584.149,312.429c61.475,0,111.472,50.01,111.472,111.472
				c0,48.819-31.6,90.311-75.373,105.362c0.776,2.341,1.485,4.71,2.12,7.106c46.878-15.932,80.648-60.215,80.648-112.468
				c0-65.649-53.224-118.873-118.867-118.873c-29.428,0-56.297,10.753-77.061,28.47c1.777,1.731,3.449,3.56,5.13,5.391
				C531.648,322.419,556.734,312.429,584.149,312.429"/>
			<path clip-path="url(#SVGID_4_)" d="M501.637,338.448c1.762-1.706,3.588-3.353,5.449-4.951c-1.762-1.71-3.593-3.347-5.449-4.953
				c-1.862,1.605-3.698,3.242-5.46,4.953C498.059,335.096,499.864,336.742,501.637,338.448"/>
			<path clip-path="url(#SVGID_4_)" d="M478.506,459.224c-2.448,0.492-4.868,1.071-7.265,1.711
				c5.309,16.175,14.016,30.765,25.243,43.049c1.795-1.726,3.483-3.552,5.153-5.393
				C491.414,487.305,483.452,473.978,478.506,459.224"/>
			<path clip-path="url(#SVGID_4_)" d="M615.321,538.495c0.624,2.376,1.26,4.735,1.73,7.176c2.387-0.646,4.74-1.316,7.071-2.088
				c-0.494-2.445-1.109-4.832-1.752-7.211C620.062,537.158,617.708,537.85,615.321,538.495"/>
			<path clip-path="url(#SVGID_4_)" d="M500.187,38.886c-252.542,0-457.291,204.756-457.291,457.312
				c0,252.553,204.748,457.304,457.291,457.304c252.56,0,457.306-204.751,457.306-457.304
				C957.493,243.643,752.747,38.886,500.187,38.886 M624.12,543.581c0.955,4.668,1.711,9.403,2.107,14.249
				c5.87,69.373-45.797,130.597-115.169,136.464c-3.614,0.315-7.212,0.469-10.771,0.469c-64.989,0-120.199-50.796-125.683-115.639
				c-1.052-12.356-0.266-24.593,2.182-36.414c-48.834-17.455-83.937-64.049-83.937-118.809c0-69.626,56.65-126.269,126.273-126.269
				c31.553,0,60.356,11.711,82.51,30.913c22.149-19.202,50.963-30.913,82.516-30.913c69.613,0,126.264,56.643,126.264,126.269
				C710.413,479.553,674.191,526.807,624.12,543.581"/>
			<path clip-path="url(#SVGID_4_)" d="M385.658,537.908c-2.397-0.696-4.72-1.526-7.05-2.371c-0.632,2.376-1.332,4.748-1.818,7.176
				c2.354,0.84,4.73,1.662,7.147,2.371C384.421,542.656,385.022,540.285,385.658,537.908"/>
			<path clip-path="url(#SVGID_4_)" d="M611.5,559.074c5.16,61.25-40.442,115.291-101.679,120.489
				c-61.391,5.13-115.364-41.287-120.473-101.687c-0.902-10.5-0.246-20.89,1.731-30.959c-2.407-0.551-4.784-1.16-7.145-1.836
				c-2.148,10.745-2.924,21.954-1.954,33.425c5.532,65.411,63.04,113.959,128.454,108.419
				c65.408-5.539,113.963-63.058,108.429-128.477c-0.376-4.335-1.001-8.6-1.808-12.781c-2.397,0.641-4.758,1.35-7.201,1.856
				C610.588,551.312,611.164,555.156,611.5,559.074"/>
			<path clip-path="url(#SVGID_4_)" d="M394.887,532.643c-2.417-0.54-4.835-1.154-7.191-1.856c-0.786,2.333-1.406,4.73-2.039,7.122
				c2.348,0.687,4.725,1.291,7.142,1.836C393.435,537.353,394.101,534.981,394.887,532.643"/>
			<path clip-path="url(#SVGID_4_)" d="M307.652,423.901c0-61.465,50-111.472,111.472-111.472c27.41,0,52.501,9.99,71.944,26.46
				c1.678-1.831,3.334-3.662,5.107-5.391c-20.754-17.719-47.633-28.47-77.051-28.47c-65.654,0-118.877,53.224-118.877,118.873
				c0,51.403,32.698,95.056,78.361,111.641c0.656-2.397,1.301-4.784,2.082-7.14C338.129,512.701,307.652,471.849,307.652,423.901"/>
		</g>
	</g>
</g>
</svg>
