<?xml version="1.0" encoding="utf-8"?>
<!-- Generator: Adobe Illustrator 16.0.0, SVG Export Plug-In . SVG Version: 6.00 Build 0)  -->
<!DOCTYPE svg PUBLIC "-//W3C//DTD SVG 1.1//EN" "http://www.w3.org/Graphics/SVG/1.1/DTD/svg11.dtd">
<svg version="1.1" id="Layer_1" xmlns="http://www.w3.org/2000/svg" xmlns:xlink="http://www.w3.org/1999/xlink" x="0px" y="0px"
	 width="1000px" height="1000px" viewBox="0 0 1000 1000" enable-background="new 0 0 1000 1000" xml:space="preserve">
<g>
	<g>
		<defs>
			<rect id="SVGID_1_" x="42.89" y="38.888" width="914.603" height="914.615"/>
		</defs>
		<clipPath id="SVGID_2_">
			<use xlink:href="#SVGID_1_"  overflow="visible"/>
		</clipPath>
		<g clip-path="url(#SVGID_2_)">
			<defs>
				<rect id="SVGID_3_" x="42.89" y="38.888" width="914.603" height="914.615"/>
			</defs>
			<clipPath id="SVGID_4_">
				<use xlink:href="#SVGID_3_"  overflow="visible"/>
			</clipPath>
			<path clip-path="url(#SVGID_4_)" d="M601.794,511.16c-1.106,0-1.987,1.637-1.987,3.678c0,2.028,0.881,3.68,1.987,3.68h43.559
				c1.101,0,1.992-1.651,1.992-3.68c0-2.041-0.892-3.678-1.992-3.678H601.794z"/>
			<path clip-path="url(#SVGID_4_)" d="M623.571,677.016c-5.375,0-9.749,4.354-9.749,9.729c0,5.386,4.374,9.754,9.749,9.754
				c5.36,0,9.729-4.368,9.729-9.754C633.301,681.369,628.932,677.016,623.571,677.016"/>
			<path clip-path="url(#SVGID_4_)" d="M502.087,538.646c-13.46,0-24.375,10.899-24.375,24.352
				c0,13.447,10.915,24.373,24.375,24.373c13.452,0,24.354-10.926,24.354-24.373C526.441,549.546,515.539,538.646,502.087,538.646
				 M502.348,578.036c-8.387,0-15.137-6.766-15.137-15.138c0-8.364,6.75-15.141,15.137-15.141c8.359,0,15.135,6.776,15.135,15.141
				C517.482,571.271,510.707,578.036,502.348,578.036"/>
			<path clip-path="url(#SVGID_4_)" d="M579.452,501.879h88.227c5.989,0,11.13,3.493,13.626,8.523V310.991H319.101V530.38h245.093
				v-13.222C564.194,508.729,571.014,501.879,579.452,501.879"/>
			<path clip-path="url(#SVGID_4_)" d="M500.187,38.888c-252.545,0-457.296,204.751-457.296,457.314
				c0,252.55,204.751,457.301,457.296,457.301c252.563,0,457.307-204.751,457.307-457.301
				C957.493,243.639,752.75,38.888,500.187,38.888 M711.488,569.354c0,15.678-12.612,28.375-28.155,28.375h-0.387v98.58
				c0,8.423-6.84,15.264-15.268,15.264h-88.227c-7.58,0-13.801-5.529-15.007-12.746h-21.671h-85.191h-42.581v-28.416l42.581-56.796
				h85.191l21.42,28.552v-44.438H317.108c-15.583,0-28.213-12.697-28.213-28.375V309.193c0-15.67,12.63-28.37,28.213-28.37h366.225
				c15.543,0,28.155,12.699,28.155,28.37V569.354z"/>
			<polygon clip-path="url(#SVGID_4_)" points="575.634,657.42 579.902,663.11 671.502,663.11 671.502,527.652 575.634,527.652 			
				"/>
		</g>
	</g>
</g>
</svg>
